<?xml version="1.0" encoding="UTF-8" standalone="no"?>
<!DOCTYPE svg PUBLIC "-//W3C//DTD SVG 1.1//EN"
 "http://www.w3.org/Graphics/SVG/1.1/DTD/svg11.dtd">
<!-- Generated by graphviz version 2.50.0 (0)
 -->
<!-- Title: G Pages: 1 -->
<svg width="1061pt" height="1011pt"
 viewBox="0.00 0.00 1061.20 1011.46" xmlns="http://www.w3.org/2000/svg" xmlns:xlink="http://www.w3.org/1999/xlink">
<g id="graph0" class="graph" transform="scale(1 1) rotate(0) translate(21.6 989.86)">
<title>G</title>
<polygon fill="#111111" stroke="transparent" points="-21.6,21.6 -21.6,-989.86 1039.6,-989.86 1039.6,21.6 -21.6,21.6"/>
<!-- Client.js -->
<g id="node1" class="node">
<title>Client.js</title>
<path fill="none" stroke="#c6c5fe" d="M229.33,-522.78C229.33,-522.78 179.67,-522.78 179.67,-522.78 175.83,-522.78 172,-518.95 172,-515.12 172,-515.12 172,-507.45 172,-507.45 172,-503.62 175.83,-499.78 179.67,-499.78 179.67,-499.78 229.33,-499.78 229.33,-499.78 233.17,-499.78 237,-503.62 237,-507.45 237,-507.45 237,-515.12 237,-515.12 237,-518.95 233.17,-522.78 229.33,-522.78"/>
<text text-anchor="middle" x="204.5" y="-507.58" font-family="Arial" font-size="14.00" fill="#c6c5fe">Client.js</text>
</g>
<!-- Constants.js -->
<g id="node2" class="node">
<title>Constants.js</title>
<path fill="none" stroke="#cfffac" d="M711.83,-644.78C711.83,-644.78 636.17,-644.78 636.17,-644.78 632.33,-644.78 628.5,-640.95 628.5,-637.12 628.5,-637.12 628.5,-629.45 628.5,-629.45 628.5,-625.62 632.33,-621.78 636.17,-621.78 636.17,-621.78 711.83,-621.78 711.83,-621.78 715.67,-621.78 719.5,-625.62 719.5,-629.45 719.5,-629.45 719.5,-637.12 719.5,-637.12 719.5,-640.95 715.67,-644.78 711.83,-644.78"/>
<text text-anchor="middle" x="674" y="-629.58" font-family="Arial" font-size="14.00" fill="#cfffac">Constants.js</text>
</g>
<!-- Client.js&#45;&gt;Constants.js -->
<g id="edge1" class="edge">
<title>Client.js&#45;&gt;Constants.js</title>
<path fill="none" stroke="#757575" d="M237.12,-513.68C251.27,-516.3 267.18,-521.61 278,-532.28 317.05,-570.78 269.93,-617.66 314,-650.28 360.78,-684.92 530.03,-660.05 618.41,-644"/>
<polygon fill="#757575" stroke="#757575" points="619.06,-647.44 628.26,-642.19 617.79,-640.56 619.06,-647.44"/>
</g>
<!-- Keycodes.js -->
<g id="node3" class="node">
<title>Keycodes.js</title>
<path fill="none" stroke="#cfffac" d="M459.83,-248.78C459.83,-248.78 386.17,-248.78 386.17,-248.78 382.33,-248.78 378.5,-244.95 378.5,-241.12 378.5,-241.12 378.5,-233.45 378.5,-233.45 378.5,-229.62 382.33,-225.78 386.17,-225.78 386.17,-225.78 459.83,-225.78 459.83,-225.78 463.67,-225.78 467.5,-229.62 467.5,-233.45 467.5,-233.45 467.5,-241.12 467.5,-241.12 467.5,-244.95 463.67,-248.78 459.83,-248.78"/>
<text text-anchor="middle" x="423" y="-233.58" font-family="Arial" font-size="14.00" fill="#cfffac">Keycodes.js</text>
</g>
<!-- Client.js&#45;&gt;Keycodes.js -->
<g id="edge2" class="edge">
<title>Client.js&#45;&gt;Keycodes.js</title>
<path fill="none" stroke="#757575" d="M206.96,-499.51C212.55,-459.6 236.37,-328.32 314,-263.28 329.16,-250.58 349.51,-243.88 368.46,-240.42"/>
<polygon fill="#757575" stroke="#757575" points="369.16,-243.85 378.5,-238.85 368.08,-236.94 369.16,-243.85"/>
</g>
<!-- MediaSourceUtil.js -->
<g id="node4" class="node">
<title>MediaSourceUtil.js</title>
<path fill="none" stroke="#c6c5fe" d="M480.33,-640.78C480.33,-640.78 365.67,-640.78 365.67,-640.78 361.83,-640.78 358,-636.95 358,-633.12 358,-633.12 358,-625.45 358,-625.45 358,-621.62 361.83,-617.78 365.67,-617.78 365.67,-617.78 480.33,-617.78 480.33,-617.78 484.17,-617.78 488,-621.62 488,-625.45 488,-625.45 488,-633.12 488,-633.12 488,-636.95 484.17,-640.78 480.33,-640.78"/>
<text text-anchor="middle" x="423" y="-625.58" font-family="Arial" font-size="14.00" fill="#c6c5fe">MediaSourceUtil.js</text>
</g>
<!-- Client.js&#45;&gt;MediaSourceUtil.js -->
<g id="edge3" class="edge">
<title>Client.js&#45;&gt;MediaSourceUtil.js</title>
<path fill="none" stroke="#757575" d="M237.08,-517.09C250.28,-520.35 265.43,-525.22 278,-532.28 296.92,-542.92 296.57,-552.35 314,-565.28 338.35,-583.35 368.13,-600.69 390.25,-612.75"/>
<polygon fill="#757575" stroke="#757575" points="388.76,-615.92 399.22,-617.58 392.07,-609.75 388.76,-615.92"/>
</g>
<!-- OffscreenDecodeWorkerHelper.js -->
<g id="node5" class="node">
<title>OffscreenDecodeWorkerHelper.js</title>
<path fill="none" stroke="#c6c5fe" d="M524.33,-838.78C524.33,-838.78 321.67,-838.78 321.67,-838.78 317.83,-838.78 314,-834.95 314,-831.12 314,-831.12 314,-823.45 314,-823.45 314,-819.62 317.83,-815.78 321.67,-815.78 321.67,-815.78 524.33,-815.78 524.33,-815.78 528.17,-815.78 532,-819.62 532,-823.45 532,-823.45 532,-831.12 532,-831.12 532,-834.95 528.17,-838.78 524.33,-838.78"/>
<text text-anchor="middle" x="423" y="-823.58" font-family="Arial" font-size="14.00" fill="#c6c5fe">OffscreenDecodeWorkerHelper.js</text>
</g>
<!-- Client.js&#45;&gt;OffscreenDecodeWorkerHelper.js -->
<g id="edge4" class="edge">
<title>Client.js&#45;&gt;OffscreenDecodeWorkerHelper.js</title>
<path fill="none" stroke="#757575" d="M237.08,-512.89C251.58,-515.31 267.78,-520.68 278,-532.28 346.65,-610.28 255.74,-677.25 314,-763.28 329.18,-785.71 355.07,-801.44 377.69,-811.7"/>
<polygon fill="#757575" stroke="#757575" points="376.58,-815.03 387.15,-815.76 379.34,-808.59 376.58,-815.03"/>
</g>
<!-- Protocol.js -->
<g id="node6" class="node">
<title>Protocol.js</title>
<path fill="none" stroke="#c6c5fe" d="M455.33,-442.78C455.33,-442.78 390.67,-442.78 390.67,-442.78 386.83,-442.78 383,-438.95 383,-435.12 383,-435.12 383,-427.45 383,-427.45 383,-423.62 386.83,-419.78 390.67,-419.78 390.67,-419.78 455.33,-419.78 455.33,-419.78 459.17,-419.78 463,-423.62 463,-427.45 463,-427.45 463,-435.12 463,-435.12 463,-438.95 459.17,-442.78 455.33,-442.78"/>
<text text-anchor="middle" x="423" y="-427.58" font-family="Arial" font-size="14.00" fill="#c6c5fe">Protocol.js</text>
</g>
<!-- Client.js&#45;&gt;Protocol.js -->
<g id="edge5" class="edge">
<title>Client.js&#45;&gt;Protocol.js</title>
<path fill="none" stroke="#757575" d="M236.98,-499.65C275.09,-485.57 339.35,-461.82 381.22,-446.35"/>
<polygon fill="#757575" stroke="#757575" points="382.67,-449.55 390.83,-442.8 380.24,-442.98 382.67,-449.55"/>
</g>
<!-- Utilities.js -->
<g id="node7" class="node">
<title>Utilities.js</title>
<path fill="none" stroke="#cfffac" d="M703.33,-562.78C703.33,-562.78 644.67,-562.78 644.67,-562.78 640.83,-562.78 637,-558.95 637,-555.12 637,-555.12 637,-547.45 637,-547.45 637,-543.62 640.83,-539.78 644.67,-539.78 644.67,-539.78 703.33,-539.78 703.33,-539.78 707.17,-539.78 711,-543.62 711,-547.45 711,-547.45 711,-555.12 711,-555.12 711,-558.95 707.17,-562.78 703.33,-562.78"/>
<text text-anchor="middle" x="674" y="-547.58" font-family="Arial" font-size="14.00" fill="#cfffac">Utilities.js</text>
</g>
<!-- Client.js&#45;&gt;Utilities.js -->
<g id="edge6" class="edge">
<title>Client.js&#45;&gt;Utilities.js</title>
<path fill="none" stroke="#757575" d="M237.13,-518.6C258.67,-523.3 287.91,-529.08 314,-532.28 425.81,-546 558.4,-549.82 626.9,-550.88"/>
<polygon fill="#757575" stroke="#757575" points="626.88,-554.38 636.93,-551.02 626.98,-547.38 626.88,-554.38"/>
</g>
<!-- Window.js -->
<g id="node8" class="node">
<title>Window.js</title>
<path fill="none" stroke="#c6c5fe" d="M454.33,-720.78C454.33,-720.78 391.67,-720.78 391.67,-720.78 387.83,-720.78 384,-716.95 384,-713.12 384,-713.12 384,-705.45 384,-705.45 384,-701.62 387.83,-697.78 391.67,-697.78 391.67,-697.78 454.33,-697.78 454.33,-697.78 458.17,-697.78 462,-701.62 462,-705.45 462,-705.45 462,-713.12 462,-713.12 462,-716.95 458.17,-720.78 454.33,-720.78"/>
<text text-anchor="middle" x="423" y="-705.58" font-family="Arial" font-size="14.00" fill="#c6c5fe">Window.js</text>
</g>
<!-- Client.js&#45;&gt;Window.js -->
<g id="edge7" class="edge">
<title>Client.js&#45;&gt;Window.js</title>
<path fill="none" stroke="#757575" d="M237.06,-513.32C251.37,-515.85 267.42,-521.19 278,-532.28 325.6,-582.22 265.27,-634.45 314,-683.28 329.63,-698.95 352.94,-705.79 373.91,-708.58"/>
<polygon fill="#757575" stroke="#757575" points="373.66,-712.07 383.97,-709.64 374.39,-705.11 373.66,-712.07"/>
</g>
<!-- lib/StreamSaver.js -->
<g id="node9" class="node">
<title>lib/StreamSaver.js</title>
<path fill="none" stroke="#cfffac" d="M478.33,-522.78C478.33,-522.78 367.67,-522.78 367.67,-522.78 363.83,-522.78 360,-518.95 360,-515.12 360,-515.12 360,-507.45 360,-507.45 360,-503.62 363.83,-499.78 367.67,-499.78 367.67,-499.78 478.33,-499.78 478.33,-499.78 482.17,-499.78 486,-503.62 486,-507.45 486,-507.45 486,-515.12 486,-515.12 486,-518.95 482.17,-522.78 478.33,-522.78"/>
<text text-anchor="middle" x="423" y="-507.58" font-family="Arial" font-size="14.00" fill="#cfffac">lib/StreamSaver.js</text>
</g>
<!-- Client.js&#45;&gt;lib/StreamSaver.js -->
<g id="edge8" class="edge">
<title>Client.js&#45;&gt;lib/StreamSaver.js</title>
<path fill="none" stroke="#757575" d="M237.45,-511.28C266.92,-511.28 311.76,-511.28 349.86,-511.28"/>
<polygon fill="#757575" stroke="#757575" points="349.89,-514.78 359.89,-511.28 349.89,-507.78 349.89,-514.78"/>
</g>
<!-- lib/forge.js -->
<g id="node10" class="node">
<title>lib/forge.js</title>
<path fill="none" stroke="#cfffac" d="M705.33,-407.78C705.33,-407.78 642.67,-407.78 642.67,-407.78 638.83,-407.78 635,-403.95 635,-400.12 635,-400.12 635,-392.45 635,-392.45 635,-388.62 638.83,-384.78 642.67,-384.78 642.67,-384.78 705.33,-384.78 705.33,-384.78 709.17,-384.78 713,-388.62 713,-392.45 713,-392.45 713,-400.12 713,-400.12 713,-403.95 709.17,-407.78 705.33,-407.78"/>
<text text-anchor="middle" x="674" y="-392.58" font-family="Arial" font-size="14.00" fill="#cfffac">lib/forge.js</text>
</g>
<!-- Client.js&#45;&gt;lib/forge.js -->
<g id="edge9" class="edge">
<title>Client.js&#45;&gt;lib/forge.js</title>
<path fill="none" stroke="#757575" d="M213.68,-499.54C229.85,-477.45 268.33,-430.23 314,-411.28 417.93,-368.17 553.64,-378.37 624.74,-388.15"/>
<polygon fill="#757575" stroke="#757575" points="624.35,-391.63 634.75,-389.59 625.35,-384.7 624.35,-391.63"/>
</g>
<!-- lib/jquery.ba&#45;throttle&#45;debounce.js -->
<g id="node11" class="node">
<title>lib/jquery.ba&#45;throttle&#45;debounce.js</title>
<path fill="none" stroke="#c6c5fe" d="M772.33,-245.78C772.33,-245.78 575.67,-245.78 575.67,-245.78 571.83,-245.78 568,-241.95 568,-238.12 568,-238.12 568,-230.45 568,-230.45 568,-226.62 571.83,-222.78 575.67,-222.78 575.67,-222.78 772.33,-222.78 772.33,-222.78 776.17,-222.78 780,-226.62 780,-230.45 780,-230.45 780,-238.12 780,-238.12 780,-241.95 776.17,-245.78 772.33,-245.78"/>
<text text-anchor="middle" x="674" y="-230.58" font-family="Arial" font-size="14.00" fill="#c6c5fe">lib/jquery.ba&#45;throttle&#45;debounce.js</text>
</g>
<!-- Client.js&#45;&gt;lib/jquery.ba&#45;throttle&#45;debounce.js -->
<g id="edge10" class="edge">
<title>Client.js&#45;&gt;lib/jquery.ba&#45;throttle&#45;debounce.js</title>
<path fill="none" stroke="#757575" d="M207.83,-499.41C215.59,-463.14 244.18,-353.18 314,-301.28 319.7,-297.05 493.48,-265.88 597.13,-247.59"/>
<polygon fill="#757575" stroke="#757575" points="598.01,-250.99 607.25,-245.8 596.79,-244.09 598.01,-250.99"/>
</g>
<!-- lib/jquery.js -->
<g id="node12" class="node">
<title>lib/jquery.js</title>
<path fill="none" stroke="#cfffac" d="M900.33,-186.78C900.33,-186.78 832.67,-186.78 832.67,-186.78 828.83,-186.78 825,-182.95 825,-179.12 825,-179.12 825,-171.45 825,-171.45 825,-167.62 828.83,-163.78 832.67,-163.78 832.67,-163.78 900.33,-163.78 900.33,-163.78 904.17,-163.78 908,-167.62 908,-171.45 908,-171.45 908,-179.12 908,-179.12 908,-182.95 904.17,-186.78 900.33,-186.78"/>
<text text-anchor="middle" x="866.5" y="-171.58" font-family="Arial" font-size="14.00" fill="#cfffac">lib/jquery.js</text>
</g>
<!-- Client.js&#45;&gt;lib/jquery.js -->
<g id="edge11" class="edge">
<title>Client.js&#45;&gt;lib/jquery.js</title>
<path fill="none" stroke="#757575" d="M208.77,-499.7C218.58,-467.22 251.09,-374.84 314,-332.28 335.73,-317.58 756.46,-266.89 780,-255.28 809.09,-240.94 835.14,-213.4 850.63,-194.68"/>
<polygon fill="#757575" stroke="#757575" points="853.44,-196.77 856.98,-186.78 847.98,-192.39 853.44,-196.77"/>
</g>
<!-- lib/lz4.js -->
<g id="node13" class="node">
<title>lib/lz4.js</title>
<path fill="none" stroke="#cfffac" d="M1010.33,-838.78C1010.33,-838.78 960.67,-838.78 960.67,-838.78 956.83,-838.78 953,-834.95 953,-831.12 953,-831.12 953,-823.45 953,-823.45 953,-819.62 956.83,-815.78 960.67,-815.78 960.67,-815.78 1010.33,-815.78 1010.33,-815.78 1014.17,-815.78 1018,-819.62 1018,-823.45 1018,-823.45 1018,-831.12 1018,-831.12 1018,-834.95 1014.17,-838.78 1010.33,-838.78"/>
<text text-anchor="middle" x="985.5" y="-823.58" font-family="Arial" font-size="14.00" fill="#cfffac">lib/lz4.js</text>
</g>
<!-- Client.js&#45;&gt;lib/lz4.js -->
<g id="edge12" class="edge">
<title>Client.js&#45;&gt;lib/lz4.js</title>
<path fill="none" stroke="#757575" d="M237.32,-513.07C251.7,-515.54 267.73,-520.9 278,-532.28 337.94,-598.67 249.11,-668.73 314,-730.28 412.01,-823.25 784.81,-779.45 917,-807.28 925.51,-809.08 934.5,-811.42 943.06,-813.86"/>
<polygon fill="#757575" stroke="#757575" points="942.25,-817.28 952.84,-816.76 944.24,-810.56 942.25,-817.28"/>
</g>
<!-- lib/rencode.js -->
<g id="node14" class="node">
<title>lib/rencode.js</title>
<path fill="none" stroke="#cfffac" d="M714.33,-366.78C714.33,-366.78 633.67,-366.78 633.67,-366.78 629.83,-366.78 626,-362.95 626,-359.12 626,-359.12 626,-351.45 626,-351.45 626,-347.62 629.83,-343.78 633.67,-343.78 633.67,-343.78 714.33,-343.78 714.33,-343.78 718.17,-343.78 722,-347.62 722,-351.45 722,-351.45 722,-359.12 722,-359.12 722,-362.95 718.17,-366.78 714.33,-366.78"/>
<text text-anchor="middle" x="674" y="-351.58" font-family="Arial" font-size="14.00" fill="#cfffac">lib/rencode.js</text>
</g>
<!-- Client.js&#45;&gt;lib/rencode.js -->
<g id="edge13" class="edge">
<title>Client.js&#45;&gt;lib/rencode.js</title>
<path fill="none" stroke="#757575" d="M210.71,-499.42C223.57,-471.77 259.78,-403.27 314,-375.28 410.55,-325.44 541.77,-334.13 615.88,-344.8"/>
<polygon fill="#757575" stroke="#757575" points="615.54,-348.29 625.95,-346.31 616.58,-341.37 615.54,-348.29"/>
</g>
<!-- MediaSourceUtil.js&#45;&gt;Utilities.js -->
<g id="edge32" class="edge">
<title>MediaSourceUtil.js&#45;&gt;Utilities.js</title>
<path fill="none" stroke="#757575" d="M488.05,-619.15C502.97,-615.37 518.44,-610.23 532,-603.28 550.79,-593.65 549.03,-581.55 568,-572.28 586.04,-563.48 607.55,-558.36 626.39,-555.39"/>
<polygon fill="#757575" stroke="#757575" points="627.13,-558.82 636.54,-553.96 626.15,-551.89 627.13,-558.82"/>
</g>
<!-- lib/aurora/aurora.js -->
<g id="node27" class="node">
<title>lib/aurora/aurora.js</title>
<path fill="none" stroke="#cfffac" d="M730.83,-603.78C730.83,-603.78 617.17,-603.78 617.17,-603.78 613.33,-603.78 609.5,-599.95 609.5,-596.12 609.5,-596.12 609.5,-588.45 609.5,-588.45 609.5,-584.62 613.33,-580.78 617.17,-580.78 617.17,-580.78 730.83,-580.78 730.83,-580.78 734.67,-580.78 738.5,-584.62 738.5,-588.45 738.5,-588.45 738.5,-596.12 738.5,-596.12 738.5,-599.95 734.67,-603.78 730.83,-603.78"/>
<text text-anchor="middle" x="674" y="-588.58" font-family="Arial" font-size="14.00" fill="#cfffac">lib/aurora/aurora.js</text>
</g>
<!-- MediaSourceUtil.js&#45;&gt;lib/aurora/aurora.js -->
<g id="edge33" class="edge">
<title>MediaSourceUtil.js&#45;&gt;lib/aurora/aurora.js</title>
<path fill="none" stroke="#757575" d="M488.12,-619.76C521.96,-614.73 563.65,-608.53 598.87,-603.3"/>
<polygon fill="#757575" stroke="#757575" points="599.72,-606.71 609.09,-601.78 598.69,-599.79 599.72,-606.71"/>
</g>
<!-- ImageDecoder.js -->
<g id="node19" class="node">
<title>ImageDecoder.js</title>
<path fill="none" stroke="#c6c5fe" d="M725.83,-838.78C725.83,-838.78 622.17,-838.78 622.17,-838.78 618.33,-838.78 614.5,-834.95 614.5,-831.12 614.5,-831.12 614.5,-823.45 614.5,-823.45 614.5,-819.62 618.33,-815.78 622.17,-815.78 622.17,-815.78 725.83,-815.78 725.83,-815.78 729.67,-815.78 733.5,-819.62 733.5,-823.45 733.5,-823.45 733.5,-831.12 733.5,-831.12 733.5,-834.95 729.67,-838.78 725.83,-838.78"/>
<text text-anchor="middle" x="674" y="-823.58" font-family="Arial" font-size="14.00" fill="#c6c5fe">ImageDecoder.js</text>
</g>
<!-- OffscreenDecodeWorkerHelper.js&#45;&gt;ImageDecoder.js -->
<g id="edge45" class="edge">
<title>OffscreenDecodeWorkerHelper.js&#45;&gt;ImageDecoder.js</title>
<path fill="none" stroke="#757575" d="M532.13,-827.28C556.6,-827.28 581.93,-827.28 604.25,-827.28"/>
<polygon fill="#757575" stroke="#757575" points="604.27,-830.78 614.27,-827.28 604.27,-823.78 604.27,-830.78"/>
</g>
<!-- VideoDecoder.js -->
<g id="node31" class="node">
<title>VideoDecoder.js</title>
<path fill="none" stroke="#cfffac" d="M723.83,-879.78C723.83,-879.78 624.17,-879.78 624.17,-879.78 620.33,-879.78 616.5,-875.95 616.5,-872.12 616.5,-872.12 616.5,-864.45 616.5,-864.45 616.5,-860.62 620.33,-856.78 624.17,-856.78 624.17,-856.78 723.83,-856.78 723.83,-856.78 727.67,-856.78 731.5,-860.62 731.5,-864.45 731.5,-864.45 731.5,-872.12 731.5,-872.12 731.5,-875.95 727.67,-879.78 723.83,-879.78"/>
<text text-anchor="middle" x="674" y="-864.58" font-family="Arial" font-size="14.00" fill="#cfffac">VideoDecoder.js</text>
</g>
<!-- OffscreenDecodeWorkerHelper.js&#45;&gt;VideoDecoder.js -->
<g id="edge46" class="edge">
<title>OffscreenDecodeWorkerHelper.js&#45;&gt;VideoDecoder.js</title>
<path fill="none" stroke="#757575" d="M494.02,-838.81C529.24,-844.61 571.7,-851.6 606.43,-857.32"/>
<polygon fill="#757575" stroke="#757575" points="606.03,-860.8 616.47,-858.98 607.17,-853.9 606.03,-860.8"/>
</g>
<!-- Protocol.js&#45;&gt;Utilities.js -->
<g id="edge47" class="edge">
<title>Protocol.js&#45;&gt;Utilities.js</title>
<path fill="none" stroke="#757575" d="M463.19,-433.96C484.99,-437.03 511.73,-443.53 532,-457.28 554.96,-472.86 546.29,-491 568,-508.28 585.27,-522.03 607.54,-531.99 627.13,-538.83"/>
<polygon fill="#757575" stroke="#757575" points="626.19,-542.21 636.78,-542.04 628.4,-535.56 626.19,-542.21"/>
</g>
<!-- Protocol.js&#45;&gt;lib/forge.js -->
<g id="edge49" class="edge">
<title>Protocol.js&#45;&gt;lib/forge.js</title>
<path fill="none" stroke="#757575" d="M463.18,-425.78C506.95,-419.63 577.81,-409.66 624.9,-403.04"/>
<polygon fill="#757575" stroke="#757575" points="625.45,-406.5 634.87,-401.64 624.48,-399.57 625.45,-406.5"/>
</g>
<!-- Protocol.js&#45;&gt;lib/lz4.js -->
<g id="edge50" class="edge">
<title>Protocol.js&#45;&gt;lib/lz4.js</title>
<path fill="none" stroke="#757575" d="M463.05,-435.83C483.71,-438.64 509.41,-442.77 532,-448.28 560.23,-455.18 756.77,-513.82 780,-531.28 882.72,-608.5 952.42,-752.79 975.83,-806.47"/>
<polygon fill="#757575" stroke="#757575" points="972.62,-807.86 979.77,-815.67 979.05,-805.1 972.62,-807.86"/>
</g>
<!-- Protocol.js&#45;&gt;lib/rencode.js -->
<g id="edge51" class="edge">
<title>Protocol.js&#45;&gt;lib/rencode.js</title>
<path fill="none" stroke="#757575" d="M450.35,-419.69C478.88,-407.49 525.96,-388.42 568,-376.28 583.31,-371.86 600.14,-368.05 615.76,-364.93"/>
<polygon fill="#757575" stroke="#757575" points="616.66,-368.32 625.81,-362.98 615.33,-361.45 616.66,-368.32"/>
</g>
<!-- lib/brotli_decode.js -->
<g id="node32" class="node">
<title>lib/brotli_decode.js</title>
<path fill="none" stroke="#cfffac" d="M730.33,-448.78C730.33,-448.78 617.67,-448.78 617.67,-448.78 613.83,-448.78 610,-444.95 610,-441.12 610,-441.12 610,-433.45 610,-433.45 610,-429.62 613.83,-425.78 617.67,-425.78 617.67,-425.78 730.33,-425.78 730.33,-425.78 734.17,-425.78 738,-429.62 738,-433.45 738,-433.45 738,-441.12 738,-441.12 738,-444.95 734.17,-448.78 730.33,-448.78"/>
<text text-anchor="middle" x="674" y="-433.58" font-family="Arial" font-size="14.00" fill="#cfffac">lib/brotli_decode.js</text>
</g>
<!-- Protocol.js&#45;&gt;lib/brotli_decode.js -->
<g id="edge48" class="edge">
<title>Protocol.js&#45;&gt;lib/brotli_decode.js</title>
<path fill="none" stroke="#757575" d="M463.18,-432.23C499.65,-433.11 554.93,-434.44 599.59,-435.52"/>
<polygon fill="#757575" stroke="#757575" points="599.74,-439.02 609.83,-435.76 599.91,-432.02 599.74,-439.02"/>
</g>
<!-- Window.js&#45;&gt;Constants.js -->
<g id="edge53" class="edge">
<title>Window.js&#45;&gt;Constants.js</title>
<path fill="none" stroke="#757575" d="M462.04,-703.51C483.22,-699.47 509.73,-693.02 532,-683.28 549.62,-675.58 550.41,-667.04 568,-659.28 583.79,-652.32 601.78,-647 618.36,-643.05"/>
<polygon fill="#757575" stroke="#757575" points="619.48,-646.38 628.46,-640.76 617.93,-639.56 619.48,-646.38"/>
</g>
<!-- Window.js&#45;&gt;Utilities.js -->
<g id="edge55" class="edge">
<title>Window.js&#45;&gt;Utilities.js</title>
<path fill="none" stroke="#757575" d="M457.35,-697.59C480.76,-687.96 511.43,-672.29 532,-650.28 558.07,-622.39 538.02,-595.93 568,-572.28 584.41,-559.34 606.65,-553.72 626.44,-551.48"/>
<polygon fill="#757575" stroke="#757575" points="626.86,-554.95 636.52,-550.6 626.25,-547.98 626.86,-554.95"/>
</g>
<!-- Window.js&#45;&gt;lib/jquery.js -->
<g id="edge57" class="edge">
<title>Window.js&#45;&gt;lib/jquery.js</title>
<path fill="none" stroke="#757575" d="M462.1,-716.21C534.75,-727.03 693.55,-738.74 780,-654.28 846.5,-589.32 861.85,-281.94 864.85,-197.05"/>
<polygon fill="#757575" stroke="#757575" points="868.35,-197.11 865.18,-187 861.35,-196.88 868.35,-197.11"/>
</g>
<!-- RgbHelpers.js -->
<g id="node17" class="node">
<title>RgbHelpers.js</title>
<path fill="none" stroke="#c6c5fe" d="M909.33,-838.78C909.33,-838.78 823.67,-838.78 823.67,-838.78 819.83,-838.78 816,-834.95 816,-831.12 816,-831.12 816,-823.45 816,-823.45 816,-819.62 819.83,-815.78 823.67,-815.78 823.67,-815.78 909.33,-815.78 909.33,-815.78 913.17,-815.78 917,-819.62 917,-823.45 917,-823.45 917,-831.12 917,-831.12 917,-834.95 913.17,-838.78 909.33,-838.78"/>
<text text-anchor="middle" x="866.5" y="-823.58" font-family="Arial" font-size="14.00" fill="#c6c5fe">RgbHelpers.js</text>
</g>
<!-- Window.js&#45;&gt;RgbHelpers.js -->
<g id="edge54" class="edge">
<title>Window.js&#45;&gt;RgbHelpers.js</title>
<path fill="none" stroke="#757575" d="M462.02,-719.45C540.85,-740.52 722.24,-789 812.49,-813.12"/>
<polygon fill="#757575" stroke="#757575" points="811.69,-816.52 822.25,-815.73 813.49,-809.76 811.69,-816.52"/>
</g>
<!-- lib/broadway/Decoder.js -->
<g id="node18" class="node">
<title>lib/broadway/Decoder.js</title>
<path fill="none" stroke="#cfffac" d="M746.33,-920.78C746.33,-920.78 601.67,-920.78 601.67,-920.78 597.83,-920.78 594,-916.95 594,-913.12 594,-913.12 594,-905.45 594,-905.45 594,-901.62 597.83,-897.78 601.67,-897.78 601.67,-897.78 746.33,-897.78 746.33,-897.78 750.17,-897.78 754,-901.62 754,-905.45 754,-905.45 754,-913.12 754,-913.12 754,-916.95 750.17,-920.78 746.33,-920.78"/>
<text text-anchor="middle" x="674" y="-905.58" font-family="Arial" font-size="14.00" fill="#cfffac">lib/broadway/Decoder.js</text>
</g>
<!-- Window.js&#45;&gt;lib/broadway/Decoder.js -->
<g id="edge56" class="edge">
<title>Window.js&#45;&gt;lib/broadway/Decoder.js</title>
<path fill="none" stroke="#757575" d="M440.64,-720.85C463.74,-737.61 505.68,-770.7 532,-807.28 555.25,-839.59 536.87,-864.48 568,-889.28 573,-893.27 578.56,-896.54 584.43,-899.22"/>
<polygon fill="#757575" stroke="#757575" points="583.3,-902.54 593.88,-902.97 585.88,-896.03 583.3,-902.54"/>
</g>
<!-- lib/jquery.ba&#45;throttle&#45;debounce.js&#45;&gt;lib/jquery.js -->
<g id="edge61" class="edge">
<title>lib/jquery.ba&#45;throttle&#45;debounce.js&#45;&gt;lib/jquery.js</title>
<path fill="none" stroke="#757575" d="M727.16,-222.74C744.14,-218.62 762.99,-213.65 780,-208.28 796.18,-203.18 813.72,-196.6 828.67,-190.66"/>
<polygon fill="#757575" stroke="#757575" points="830.12,-193.86 838.09,-186.88 827.5,-187.36 830.12,-193.86"/>
</g>
<!-- ConnectPage.js -->
<g id="node15" class="node">
<title>ConnectPage.js</title>
<path fill="none" stroke="#c6c5fe" d="M252.83,-640.78C252.83,-640.78 156.17,-640.78 156.17,-640.78 152.33,-640.78 148.5,-636.95 148.5,-633.12 148.5,-633.12 148.5,-625.45 148.5,-625.45 148.5,-621.62 152.33,-617.78 156.17,-617.78 156.17,-617.78 252.83,-617.78 252.83,-617.78 256.67,-617.78 260.5,-621.62 260.5,-625.45 260.5,-625.45 260.5,-633.12 260.5,-633.12 260.5,-636.95 256.67,-640.78 252.83,-640.78"/>
<text text-anchor="middle" x="204.5" y="-625.58" font-family="Arial" font-size="14.00" fill="#c6c5fe">ConnectPage.js</text>
</g>
<!-- ConnectPage.js&#45;&gt;MediaSourceUtil.js -->
<g id="edge14" class="edge">
<title>ConnectPage.js&#45;&gt;MediaSourceUtil.js</title>
<path fill="none" stroke="#757575" d="M260.69,-629.28C287.02,-629.28 318.92,-629.28 347.38,-629.28"/>
<polygon fill="#757575" stroke="#757575" points="347.69,-632.78 357.69,-629.28 347.69,-625.78 347.69,-632.78"/>
</g>
<!-- ConnectPage.js&#45;&gt;OffscreenDecodeWorkerHelper.js -->
<g id="edge15" class="edge">
<title>ConnectPage.js&#45;&gt;OffscreenDecodeWorkerHelper.js</title>
<path fill="none" stroke="#757575" d="M260.56,-638.31C267.07,-641.27 273.12,-645.16 278,-650.28 325.6,-700.22 265.27,-752.45 314,-801.28 317.56,-804.85 321.52,-807.96 325.75,-810.67"/>
<polygon fill="#757575" stroke="#757575" points="324.36,-813.9 334.81,-815.68 327.75,-807.78 324.36,-813.9"/>
</g>
<!-- ConnectPage.js&#45;&gt;Utilities.js -->
<g id="edge16" class="edge">
<title>ConnectPage.js&#45;&gt;Utilities.js</title>
<path fill="none" stroke="#757575" d="M260.65,-618.87C277.74,-615.71 296.64,-612.29 314,-609.28 426.13,-589.89 558.33,-569.06 626.76,-558.42"/>
<polygon fill="#757575" stroke="#757575" points="627.43,-561.86 636.78,-556.87 626.36,-554.94 627.43,-561.86"/>
</g>
<!-- ConnectPage.js&#45;&gt;lib/jquery.js -->
<g id="edge17" class="edge">
<title>ConnectPage.js&#45;&gt;lib/jquery.js</title>
<path fill="none" stroke="#757575" d="M260.81,-639.69C267.04,-642.43 272.95,-645.9 278,-650.28 307.44,-675.84 281.26,-709.11 314,-730.28 401.12,-786.61 704.89,-773.84 780,-702.28 854.49,-631.31 864.08,-287.11 865.32,-196.94"/>
<polygon fill="#757575" stroke="#757575" points="868.82,-196.85 865.43,-186.81 861.82,-196.77 868.82,-196.85"/>
</g>
<!-- DecodeWorker.js -->
<g id="node16" class="node">
<title>DecodeWorker.js</title>
<path fill="none" stroke="#c6c5fe" d="M474.83,-960.78C474.83,-960.78 371.17,-960.78 371.17,-960.78 367.33,-960.78 363.5,-956.95 363.5,-953.12 363.5,-953.12 363.5,-945.45 363.5,-945.45 363.5,-941.62 367.33,-937.78 371.17,-937.78 371.17,-937.78 474.83,-937.78 474.83,-937.78 478.67,-937.78 482.5,-941.62 482.5,-945.45 482.5,-945.45 482.5,-953.12 482.5,-953.12 482.5,-956.95 478.67,-960.78 474.83,-960.78"/>
<text text-anchor="middle" x="423" y="-945.58" font-family="Arial" font-size="14.00" fill="#c6c5fe">DecodeWorker.js</text>
</g>
<!-- DecodeWorker.js&#45;&gt;lib/lz4.js -->
<g id="edge20" class="edge">
<title>DecodeWorker.js&#45;&gt;lib/lz4.js</title>
<path fill="none" stroke="#757575" d="M482.67,-955.11C553.56,-960.88 676.24,-966.83 780,-951.28 842.98,-941.85 864.07,-944.71 917,-909.28 940.99,-893.23 960.88,-866.15 972.72,-847.53"/>
<polygon fill="#757575" stroke="#757575" points="975.76,-849.26 978.01,-838.91 969.79,-845.6 975.76,-849.26"/>
</g>
<!-- DecodeWorker.js&#45;&gt;RgbHelpers.js -->
<g id="edge18" class="edge">
<title>DecodeWorker.js&#45;&gt;RgbHelpers.js</title>
<path fill="none" stroke="#757575" d="M482.79,-959.88C556.5,-970.21 684.74,-978.15 780,-930.28 815.56,-912.41 841.81,-872.35 855.29,-847.79"/>
<polygon fill="#757575" stroke="#757575" points="858.4,-849.4 859.97,-838.92 852.21,-846.13 858.4,-849.4"/>
</g>
<!-- DecodeWorker.js&#45;&gt;lib/broadway/Decoder.js -->
<g id="edge19" class="edge">
<title>DecodeWorker.js&#45;&gt;lib/broadway/Decoder.js</title>
<path fill="none" stroke="#757575" d="M482.69,-939.86C515.02,-934.66 555.64,-928.14 591.05,-922.45"/>
<polygon fill="#757575" stroke="#757575" points="592.05,-925.83 601.37,-920.79 590.94,-918.92 592.05,-925.83"/>
</g>
<!-- RgbHelpers.js&#45;&gt;lib/lz4.js -->
<g id="edge52" class="edge">
<title>RgbHelpers.js&#45;&gt;lib/lz4.js</title>
<path fill="none" stroke="#757575" d="M917.12,-827.28C925.61,-827.28 934.37,-827.28 942.63,-827.28"/>
<polygon fill="#757575" stroke="#757575" points="942.79,-830.78 952.79,-827.28 942.79,-823.78 942.79,-830.78"/>
</g>
<!-- ImageDecoder.js&#45;&gt;RgbHelpers.js -->
<g id="edge21" class="edge">
<title>ImageDecoder.js&#45;&gt;RgbHelpers.js</title>
<path fill="none" stroke="#757575" d="M733.71,-827.28C756.56,-827.28 782.71,-827.28 805.67,-827.28"/>
<polygon fill="#757575" stroke="#757575" points="805.96,-830.78 815.96,-827.28 805.96,-823.78 805.96,-830.78"/>
</g>
<!-- IndexPage.js -->
<g id="node20" class="node">
<title>IndexPage.js</title>
<path fill="none" stroke="#c6c5fe" d="M87.33,-228.78C87.33,-228.78 7.67,-228.78 7.67,-228.78 3.83,-228.78 0,-224.95 0,-221.12 0,-221.12 0,-213.45 0,-213.45 0,-209.62 3.83,-205.78 7.67,-205.78 7.67,-205.78 87.33,-205.78 87.33,-205.78 91.17,-205.78 95,-209.62 95,-213.45 95,-213.45 95,-221.12 95,-221.12 95,-224.95 91.17,-228.78 87.33,-228.78"/>
<text text-anchor="middle" x="47.5" y="-213.58" font-family="Arial" font-size="14.00" fill="#c6c5fe">IndexPage.js</text>
</g>
<!-- IndexPage.js&#45;&gt;Client.js -->
<g id="edge22" class="edge">
<title>IndexPage.js&#45;&gt;Client.js</title>
<path fill="none" stroke="#757575" d="M84.74,-229.03C88.66,-231.55 92.23,-234.61 95,-238.28 161.75,-326.89 60.76,-399.41 131,-485.28 138.8,-494.83 150.39,-500.87 162.02,-504.69"/>
<polygon fill="#757575" stroke="#757575" points="161.15,-508.08 171.72,-507.41 163.04,-501.34 161.15,-508.08"/>
</g>
<!-- IndexPage.js&#45;&gt;Keycodes.js -->
<g id="edge23" class="edge">
<title>IndexPage.js&#45;&gt;Keycodes.js</title>
<path fill="none" stroke="#757575" d="M95.05,-219.78C164.38,-223.49 294.48,-230.46 367.94,-234.39"/>
<polygon fill="#757575" stroke="#757575" points="368.18,-237.91 378.35,-234.95 368.55,-230.92 368.18,-237.91"/>
</g>
<!-- IndexPage.js&#45;&gt;Utilities.js -->
<g id="edge27" class="edge">
<title>IndexPage.js&#45;&gt;Utilities.js</title>
<path fill="none" stroke="#757575" d="M78.36,-228.9C84.08,-231.63 89.88,-234.79 95,-238.28 207.39,-315.02 193.01,-389.99 314,-452.28 401.51,-497.34 438.24,-461.34 532,-491.28 548.86,-496.67 551.81,-501.15 568,-508.28 589.69,-517.84 614.18,-527.91 634.06,-535.9"/>
<polygon fill="#757575" stroke="#757575" points="632.82,-539.18 643.41,-539.65 635.42,-532.68 632.82,-539.18"/>
</g>
<!-- IndexPage.js&#45;&gt;lib/jquery.js -->
<g id="edge28" class="edge">
<title>IndexPage.js&#45;&gt;lib/jquery.js</title>
<path fill="none" stroke="#757575" d="M95.07,-207.07C106.77,-204.68 119.32,-202.25 131,-200.28 211.89,-186.66 232.16,-181.79 314,-176.28 498.11,-163.9 717.58,-169.6 814.83,-173.17"/>
<polygon fill="#757575" stroke="#757575" points="814.84,-176.67 824.96,-173.55 815.1,-169.68 814.84,-176.67"/>
</g>
<!-- Menu.js -->
<g id="node21" class="node">
<title>Menu.js</title>
<path fill="none" stroke="#c6c5fe" d="M229.33,-129.78C229.33,-129.78 179.67,-129.78 179.67,-129.78 175.83,-129.78 172,-125.95 172,-122.12 172,-122.12 172,-114.45 172,-114.45 172,-110.62 175.83,-106.78 179.67,-106.78 179.67,-106.78 229.33,-106.78 229.33,-106.78 233.17,-106.78 237,-110.62 237,-114.45 237,-114.45 237,-122.12 237,-122.12 237,-125.95 233.17,-129.78 229.33,-129.78"/>
<text text-anchor="middle" x="204.5" y="-114.58" font-family="Arial" font-size="14.00" fill="#c6c5fe">Menu.js</text>
</g>
<!-- IndexPage.js&#45;&gt;Menu.js -->
<g id="edge24" class="edge">
<title>IndexPage.js&#45;&gt;Menu.js</title>
<path fill="none" stroke="#757575" d="M58.9,-205.64C73.58,-189.82 101.87,-161.52 131,-144.28 140.6,-138.6 151.65,-133.86 162.18,-130.05"/>
<polygon fill="#757575" stroke="#757575" points="163.32,-133.36 171.65,-126.81 161.05,-126.74 163.32,-133.36"/>
</g>
<!-- MenuCustom.js -->
<g id="node22" class="node">
<title>MenuCustom.js</title>
<path fill="none" stroke="#c6c5fe" d="M252.83,-88.78C252.83,-88.78 156.17,-88.78 156.17,-88.78 152.33,-88.78 148.5,-84.95 148.5,-81.12 148.5,-81.12 148.5,-73.45 148.5,-73.45 148.5,-69.62 152.33,-65.78 156.17,-65.78 156.17,-65.78 252.83,-65.78 252.83,-65.78 256.67,-65.78 260.5,-69.62 260.5,-73.45 260.5,-73.45 260.5,-81.12 260.5,-81.12 260.5,-84.95 256.67,-88.78 252.83,-88.78"/>
<text text-anchor="middle" x="204.5" y="-73.58" font-family="Arial" font-size="14.00" fill="#c6c5fe">MenuCustom.js</text>
</g>
<!-- IndexPage.js&#45;&gt;MenuCustom.js -->
<g id="edge25" class="edge">
<title>IndexPage.js&#45;&gt;MenuCustom.js</title>
<path fill="none" stroke="#757575" d="M53.38,-205.48C63.89,-181.52 90.99,-127.04 131,-98.28 133.53,-96.47 136.21,-94.81 138.99,-93.29"/>
<polygon fill="#757575" stroke="#757575" points="140.65,-96.38 148.18,-88.92 137.64,-90.06 140.65,-96.38"/>
</g>
<!-- Notifications.js -->
<g id="node23" class="node">
<title>Notifications.js</title>
<path fill="none" stroke="#c6c5fe" d="M467.33,-207.78C467.33,-207.78 378.67,-207.78 378.67,-207.78 374.83,-207.78 371,-203.95 371,-200.12 371,-200.12 371,-192.45 371,-192.45 371,-188.62 374.83,-184.78 378.67,-184.78 378.67,-184.78 467.33,-184.78 467.33,-184.78 471.17,-184.78 475,-188.62 475,-192.45 475,-192.45 475,-200.12 475,-200.12 475,-203.95 471.17,-207.78 467.33,-207.78"/>
<text text-anchor="middle" x="423" y="-192.58" font-family="Arial" font-size="14.00" fill="#c6c5fe">Notifications.js</text>
</g>
<!-- IndexPage.js&#45;&gt;Notifications.js -->
<g id="edge26" class="edge">
<title>IndexPage.js&#45;&gt;Notifications.js</title>
<path fill="none" stroke="#757575" d="M95.05,-214.67C162.19,-210.89 286.32,-203.91 360.8,-199.73"/>
<polygon fill="#757575" stroke="#757575" points="361.18,-203.21 370.97,-199.15 360.79,-196.22 361.18,-203.21"/>
</g>
<!-- lib/jsmpeg.js -->
<g id="node24" class="node">
<title>lib/jsmpeg.js</title>
<path fill="none" stroke="#cfffac" d="M242.83,-47.78C242.83,-47.78 166.17,-47.78 166.17,-47.78 162.33,-47.78 158.5,-43.95 158.5,-40.12 158.5,-40.12 158.5,-32.45 158.5,-32.45 158.5,-28.62 162.33,-24.78 166.17,-24.78 166.17,-24.78 242.83,-24.78 242.83,-24.78 246.67,-24.78 250.5,-28.62 250.5,-32.45 250.5,-32.45 250.5,-40.12 250.5,-40.12 250.5,-43.95 246.67,-47.78 242.83,-47.78"/>
<text text-anchor="middle" x="204.5" y="-32.58" font-family="Arial" font-size="14.00" fill="#cfffac">lib/jsmpeg.js</text>
</g>
<!-- IndexPage.js&#45;&gt;lib/jsmpeg.js -->
<g id="edge29" class="edge">
<title>IndexPage.js&#45;&gt;lib/jsmpeg.js</title>
<path fill="none" stroke="#757575" d="M51.07,-205.5C58.2,-175.72 81.07,-96.93 131,-56.28 136.24,-52.02 142.32,-48.66 148.69,-46.02"/>
<polygon fill="#757575" stroke="#757575" points="149.93,-49.29 158.17,-42.64 147.57,-42.7 149.93,-49.29"/>
</g>
<!-- lib/simple&#45;keyboard.js -->
<g id="node25" class="node">
<title>lib/simple&#45;keyboard.js</title>
<path fill="none" stroke="#cfffac" d="M270.33,-681.78C270.33,-681.78 138.67,-681.78 138.67,-681.78 134.83,-681.78 131,-677.95 131,-674.12 131,-674.12 131,-666.45 131,-666.45 131,-662.62 134.83,-658.78 138.67,-658.78 138.67,-658.78 270.33,-658.78 270.33,-658.78 274.17,-658.78 278,-662.62 278,-666.45 278,-666.45 278,-674.12 278,-674.12 278,-677.95 274.17,-681.78 270.33,-681.78"/>
<text text-anchor="middle" x="204.5" y="-666.58" font-family="Arial" font-size="14.00" fill="#cfffac">lib/simple&#45;keyboard.js</text>
</g>
<!-- IndexPage.js&#45;&gt;lib/simple&#45;keyboard.js -->
<g id="edge30" class="edge">
<title>IndexPage.js&#45;&gt;lib/simple&#45;keyboard.js</title>
<path fill="none" stroke="#757575" d="M84.95,-228.88C88.83,-231.43 92.34,-234.53 95,-238.28 148.17,-313.25 72.19,-579.66 131,-650.28 131.52,-650.91 132.05,-651.51 132.6,-652.09"/>
<polygon fill="#757575" stroke="#757575" points="130.66,-655.03 140.58,-658.73 135.13,-649.65 130.66,-655.03"/>
</g>
<!-- lib/slick.js -->
<g id="node26" class="node">
<title>lib/slick.js</title>
<path fill="none" stroke="#cfffac" d="M233.83,-563.78C233.83,-563.78 175.17,-563.78 175.17,-563.78 171.33,-563.78 167.5,-559.95 167.5,-556.12 167.5,-556.12 167.5,-548.45 167.5,-548.45 167.5,-544.62 171.33,-540.78 175.17,-540.78 175.17,-540.78 233.83,-540.78 233.83,-540.78 237.67,-540.78 241.5,-544.62 241.5,-548.45 241.5,-548.45 241.5,-556.12 241.5,-556.12 241.5,-559.95 237.67,-563.78 233.83,-563.78"/>
<text text-anchor="middle" x="204.5" y="-548.58" font-family="Arial" font-size="14.00" fill="#cfffac">lib/slick.js</text>
</g>
<!-- IndexPage.js&#45;&gt;lib/slick.js -->
<g id="edge31" class="edge">
<title>IndexPage.js&#45;&gt;lib/slick.js</title>
<path fill="none" stroke="#757575" d="M84.82,-228.97C88.73,-231.5 92.27,-234.57 95,-238.28 173,-344.33 45.02,-432.6 131,-532.28 137.78,-540.14 147.34,-545.05 157.3,-548.08"/>
<polygon fill="#757575" stroke="#757575" points="156.76,-551.55 167.31,-550.53 158.42,-544.75 156.76,-551.55"/>
</g>
<!-- Menu.js&#45;&gt;lib/jquery.js -->
<g id="edge34" class="edge">
<title>Menu.js&#45;&gt;lib/jquery.js</title>
<path fill="none" stroke="#757575" d="M237.08,-116.04C324.51,-110.59 576.71,-100.01 780,-142.28 797.93,-146.01 817.02,-153.06 832.61,-159.69"/>
<polygon fill="#757575" stroke="#757575" points="831.25,-162.92 841.82,-163.73 834.06,-156.51 831.25,-162.92"/>
</g>
<!-- MenuCustom.js&#45;&gt;lib/jquery.js -->
<g id="edge36" class="edge">
<title>MenuCustom.js&#45;&gt;lib/jquery.js</title>
<path fill="none" stroke="#757575" d="M251.64,-65.7C371.75,-36.63 690.94,33.46 780,-19.28 829.61,-48.67 852.33,-118.16 861,-153.63"/>
<polygon fill="#757575" stroke="#757575" points="857.61,-154.5 863.25,-163.47 864.43,-152.94 857.61,-154.5"/>
</g>
<!-- lib/jquery&#45;transform&#45;draggable.js -->
<g id="node28" class="node">
<title>lib/jquery&#45;transform&#45;draggable.js</title>
<path fill="none" stroke="#c6c5fe" d="M520.83,-88.78C520.83,-88.78 325.17,-88.78 325.17,-88.78 321.33,-88.78 317.5,-84.95 317.5,-81.12 317.5,-81.12 317.5,-73.45 317.5,-73.45 317.5,-69.62 321.33,-65.78 325.17,-65.78 325.17,-65.78 520.83,-65.78 520.83,-65.78 524.67,-65.78 528.5,-69.62 528.5,-73.45 528.5,-73.45 528.5,-81.12 528.5,-81.12 528.5,-84.95 524.67,-88.78 520.83,-88.78"/>
<text text-anchor="middle" x="423" y="-73.58" font-family="Arial" font-size="14.00" fill="#c6c5fe">lib/jquery&#45;transform&#45;draggable.js</text>
</g>
<!-- MenuCustom.js&#45;&gt;lib/jquery&#45;transform&#45;draggable.js -->
<g id="edge35" class="edge">
<title>MenuCustom.js&#45;&gt;lib/jquery&#45;transform&#45;draggable.js</title>
<path fill="none" stroke="#757575" d="M260.69,-77.28C275.01,-77.28 290.97,-77.28 307.13,-77.28"/>
<polygon fill="#757575" stroke="#757575" points="307.21,-80.78 317.21,-77.28 307.21,-73.78 307.21,-80.78"/>
</g>
<!-- Notifications.js&#45;&gt;Utilities.js -->
<g id="edge37" class="edge">
<title>Notifications.js&#45;&gt;Utilities.js</title>
<path fill="none" stroke="#757575" d="M475.14,-194.17C495.49,-196.09 517.47,-202.11 532,-217.28 606.89,-295.52 516.35,-363.09 568,-458.28 585.79,-491.07 619.89,-517.92 644.4,-534.2"/>
<polygon fill="#757575" stroke="#757575" points="642.65,-537.23 652.96,-539.71 646.45,-531.35 642.65,-537.23"/>
</g>
<!-- Notifications.js&#45;&gt;lib/jquery.ba&#45;throttle&#45;debounce.js -->
<g id="edge38" class="edge">
<title>Notifications.js&#45;&gt;lib/jquery.ba&#45;throttle&#45;debounce.js</title>
<path fill="none" stroke="#757575" d="M475.29,-204.11C507.43,-209.02 549.67,-215.46 586.85,-221.14"/>
<polygon fill="#757575" stroke="#757575" points="586.78,-224.67 597.19,-222.72 587.84,-217.75 586.78,-224.67"/>
</g>
<!-- Notifications.js&#45;&gt;lib/jquery.js -->
<g id="edge39" class="edge">
<title>Notifications.js&#45;&gt;lib/jquery.js</title>
<path fill="none" stroke="#757575" d="M475.08,-193.85C560.17,-189.81 729.95,-181.73 814.79,-177.7"/>
<polygon fill="#757575" stroke="#757575" points="815.13,-181.18 824.95,-177.21 814.8,-174.19 815.13,-181.18"/>
</g>
<!-- lib/jquery&#45;transform&#45;draggable.js&#45;&gt;lib/jquery.js -->
<g id="edge59" class="edge">
<title>lib/jquery&#45;transform&#45;draggable.js&#45;&gt;lib/jquery.js</title>
<path fill="none" stroke="#757575" d="M528.67,-68.82C601.69,-66.78 699.99,-71.92 780,-104.28 807.67,-115.48 833.12,-139.07 848.93,-155.98"/>
<polygon fill="#757575" stroke="#757575" points="846.58,-158.6 855.88,-163.67 851.77,-153.91 846.58,-158.6"/>
</g>
<!-- lib/jquery&#45;ui.js -->
<g id="node33" class="node">
<title>lib/jquery&#45;ui.js</title>
<path fill="none" stroke="#c6c5fe" d="M715.83,-51.78C715.83,-51.78 632.17,-51.78 632.17,-51.78 628.33,-51.78 624.5,-47.95 624.5,-44.12 624.5,-44.12 624.5,-36.45 624.5,-36.45 624.5,-32.62 628.33,-28.78 632.17,-28.78 632.17,-28.78 715.83,-28.78 715.83,-28.78 719.67,-28.78 723.5,-32.62 723.5,-36.45 723.5,-36.45 723.5,-44.12 723.5,-44.12 723.5,-47.95 719.67,-51.78 715.83,-51.78"/>
<text text-anchor="middle" x="674" y="-36.58" font-family="Arial" font-size="14.00" fill="#c6c5fe">lib/jquery&#45;ui.js</text>
</g>
<!-- lib/jquery&#45;transform&#45;draggable.js&#45;&gt;lib/jquery&#45;ui.js -->
<g id="edge58" class="edge">
<title>lib/jquery&#45;transform&#45;draggable.js&#45;&gt;lib/jquery&#45;ui.js</title>
<path fill="none" stroke="#757575" d="M501.42,-65.78C537.78,-60.38 580.41,-54.04 614.09,-49.04"/>
<polygon fill="#757575" stroke="#757575" points="614.86,-52.46 624.23,-47.53 613.83,-45.54 614.86,-52.46"/>
</g>
<!-- MitmPage.js -->
<g id="node29" class="node">
<title>MitmPage.js</title>
<path fill="none" stroke="#cfffac" d="M85.83,-269.78C85.83,-269.78 9.17,-269.78 9.17,-269.78 5.33,-269.78 1.5,-265.95 1.5,-262.12 1.5,-262.12 1.5,-254.45 1.5,-254.45 1.5,-250.62 5.33,-246.78 9.17,-246.78 9.17,-246.78 85.83,-246.78 85.83,-246.78 89.67,-246.78 93.5,-250.62 93.5,-254.45 93.5,-254.45 93.5,-262.12 93.5,-262.12 93.5,-265.95 89.67,-269.78 85.83,-269.78"/>
<text text-anchor="middle" x="47.5" y="-254.58" font-family="Arial" font-size="14.00" fill="#cfffac">MitmPage.js</text>
</g>
<!-- OffscreenDecodeWorker.js -->
<g id="node30" class="node">
<title>OffscreenDecodeWorker.js</title>
<path fill="none" stroke="#c6c5fe" d="M504.83,-879.78C504.83,-879.78 341.17,-879.78 341.17,-879.78 337.33,-879.78 333.5,-875.95 333.5,-872.12 333.5,-872.12 333.5,-864.45 333.5,-864.45 333.5,-860.62 337.33,-856.78 341.17,-856.78 341.17,-856.78 504.83,-856.78 504.83,-856.78 508.67,-856.78 512.5,-860.62 512.5,-864.45 512.5,-864.45 512.5,-872.12 512.5,-872.12 512.5,-875.95 508.67,-879.78 504.83,-879.78"/>
<text text-anchor="middle" x="423" y="-864.58" font-family="Arial" font-size="14.00" fill="#c6c5fe">OffscreenDecodeWorker.js</text>
</g>
<!-- OffscreenDecodeWorker.js&#45;&gt;Constants.js -->
<g id="edge40" class="edge">
<title>OffscreenDecodeWorker.js&#45;&gt;Constants.js</title>
<path fill="none" stroke="#757575" d="M512.71,-858.1C519.52,-855.47 526.05,-852.24 532,-848.28 551.08,-835.6 630.22,-705.03 660.83,-653.77"/>
<polygon fill="#757575" stroke="#757575" points="664,-655.29 666.12,-644.9 657.99,-651.7 664,-655.29"/>
</g>
<!-- OffscreenDecodeWorker.js&#45;&gt;lib/lz4.js -->
<g id="edge44" class="edge">
<title>OffscreenDecodeWorker.js&#45;&gt;lib/lz4.js</title>
<path fill="none" stroke="#757575" d="M443.65,-879.83C470.61,-894.94 521.08,-920.61 568,-930.28 660.28,-949.31 688.33,-952.07 780,-930.28 849.7,-913.72 922.62,-869.43 959.68,-844.66"/>
<polygon fill="#757575" stroke="#757575" points="961.99,-847.32 968.3,-838.81 958.06,-841.53 961.99,-847.32"/>
</g>
<!-- OffscreenDecodeWorker.js&#45;&gt;lib/broadway/Decoder.js -->
<g id="edge43" class="edge">
<title>OffscreenDecodeWorker.js&#45;&gt;lib/broadway/Decoder.js</title>
<path fill="none" stroke="#757575" d="M494.02,-879.81C524.78,-884.88 561.07,-890.85 592.91,-896.1"/>
<polygon fill="#757575" stroke="#757575" points="592.64,-899.6 603.07,-897.77 593.77,-892.69 592.64,-899.6"/>
</g>
<!-- OffscreenDecodeWorker.js&#45;&gt;ImageDecoder.js -->
<g id="edge41" class="edge">
<title>OffscreenDecodeWorker.js&#45;&gt;ImageDecoder.js</title>
<path fill="none" stroke="#757575" d="M494.02,-856.75C528.59,-851.06 570.13,-844.22 604.48,-838.57"/>
<polygon fill="#757575" stroke="#757575" points="605.14,-842.01 614.43,-836.93 604,-835.1 605.14,-842.01"/>
</g>
<!-- OffscreenDecodeWorker.js&#45;&gt;VideoDecoder.js -->
<g id="edge42" class="edge">
<title>OffscreenDecodeWorker.js&#45;&gt;VideoDecoder.js</title>
<path fill="none" stroke="#757575" d="M512.84,-868.28C543.56,-868.28 577.45,-868.28 606.12,-868.28"/>
<polygon fill="#757575" stroke="#757575" points="606.42,-871.78 616.42,-868.28 606.42,-864.78 606.42,-871.78"/>
</g>
<!-- lib/jquery&#45;ui.js&#45;&gt;lib/jquery.js -->
<g id="edge60" class="edge">
<title>lib/jquery&#45;ui.js&#45;&gt;lib/jquery.js</title>
<path fill="none" stroke="#757575" d="M723.69,-45.47C742.41,-49.16 763.29,-55.47 780,-66.28 814.59,-88.66 841.16,-129.88 854.97,-154.72"/>
<polygon fill="#757575" stroke="#757575" points="851.96,-156.51 859.78,-163.66 858.12,-153.2 851.96,-156.51"/>
</g>
</g>
</svg>
