<?xml version="1.0" encoding="UTF-8" standalone="no"?>
<!DOCTYPE svg PUBLIC "-//W3C//DTD SVG 1.1//EN"
 "http://www.w3.org/Graphics/SVG/1.1/DTD/svg11.dtd">
<!-- Generated by graphviz version 2.50.0 (0)
 -->
<!-- Title: G Pages: 1 -->
<svg width="1064pt" height="1089pt"
 viewBox="0.00 0.00 1064.20 1089.04" xmlns="http://www.w3.org/2000/svg" xmlns:xlink="http://www.w3.org/1999/xlink">
<g id="graph0" class="graph" transform="scale(1 1) rotate(0) translate(21.6 1067.44)">
<title>G</title>
<polygon fill="#111111" stroke="transparent" points="-21.6,21.6 -21.6,-1067.44 1042.6,-1067.44 1042.6,21.6 -21.6,21.6"/>
<!-- Client.js -->
<g id="node1" class="node">
<title>Client.js</title>
<path fill="none" stroke="#c6c5fe" d="M229.33,-507.84C229.33,-507.84 179.67,-507.84 179.67,-507.84 175.83,-507.84 172,-504 172,-500.17 172,-500.17 172,-492.5 172,-492.5 172,-488.67 175.83,-484.84 179.67,-484.84 179.67,-484.84 229.33,-484.84 229.33,-484.84 233.17,-484.84 237,-488.67 237,-492.5 237,-492.5 237,-500.17 237,-500.17 237,-504 233.17,-507.84 229.33,-507.84"/>
<text text-anchor="middle" x="204.5" y="-492.64" font-family="Arial" font-size="14.00" fill="#c6c5fe">Client.js</text>
</g>
<!-- Constants.js -->
<g id="node2" class="node">
<title>Constants.js</title>
<path fill="none" stroke="#cfffac" d="M711.83,-806.84C711.83,-806.84 636.17,-806.84 636.17,-806.84 632.33,-806.84 628.5,-803 628.5,-799.17 628.5,-799.17 628.5,-791.5 628.5,-791.5 628.5,-787.67 632.33,-783.84 636.17,-783.84 636.17,-783.84 711.83,-783.84 711.83,-783.84 715.67,-783.84 719.5,-787.67 719.5,-791.5 719.5,-791.5 719.5,-799.17 719.5,-799.17 719.5,-803 715.67,-806.84 711.83,-806.84"/>
<text text-anchor="middle" x="674" y="-791.64" font-family="Arial" font-size="14.00" fill="#cfffac">Constants.js</text>
</g>
<!-- Client.js&#45;&gt;Constants.js -->
<g id="edge1" class="edge">
<title>Client.js&#45;&gt;Constants.js</title>
<path fill="none" stroke="#757575" d="M209.61,-507.84C228.01,-559.13 302.31,-764.83 314,-773.34 361.04,-807.59 529.86,-803.63 618.21,-798.94"/>
<polygon fill="#757575" stroke="#757575" points="618.52,-802.43 628.32,-798.38 618.14,-795.44 618.52,-802.43"/>
</g>
<!-- Keycodes.js -->
<g id="node3" class="node">
<title>Keycodes.js</title>
<path fill="none" stroke="#cfffac" d="M459.83,-291.84C459.83,-291.84 386.17,-291.84 386.17,-291.84 382.33,-291.84 378.5,-288 378.5,-284.17 378.5,-284.17 378.5,-276.5 378.5,-276.5 378.5,-272.67 382.33,-268.84 386.17,-268.84 386.17,-268.84 459.83,-268.84 459.83,-268.84 463.67,-268.84 467.5,-272.67 467.5,-276.5 467.5,-276.5 467.5,-284.17 467.5,-284.17 467.5,-288 463.67,-291.84 459.83,-291.84"/>
<text text-anchor="middle" x="423" y="-276.64" font-family="Arial" font-size="14.00" fill="#cfffac">Keycodes.js</text>
</g>
<!-- Client.js&#45;&gt;Keycodes.js -->
<g id="edge2" class="edge">
<title>Client.js&#45;&gt;Keycodes.js</title>
<path fill="none" stroke="#757575" d="M208.57,-484.78C218.07,-451.4 250.21,-354.24 314,-306.34 329.62,-294.61 349.79,-288.09 368.46,-284.49"/>
<polygon fill="#757575" stroke="#757575" points="369.07,-287.94 378.35,-282.83 367.9,-281.04 369.07,-287.94"/>
</g>
<!-- MediaSourceUtil.js -->
<g id="node4" class="node">
<title>MediaSourceUtil.js</title>
<path fill="none" stroke="#c6c5fe" d="M480.33,-645.84C480.33,-645.84 365.67,-645.84 365.67,-645.84 361.83,-645.84 358,-642 358,-638.17 358,-638.17 358,-630.5 358,-630.5 358,-626.67 361.83,-622.84 365.67,-622.84 365.67,-622.84 480.33,-622.84 480.33,-622.84 484.17,-622.84 488,-626.67 488,-630.5 488,-630.5 488,-638.17 488,-638.17 488,-642 484.17,-645.84 480.33,-645.84"/>
<text text-anchor="middle" x="423" y="-630.64" font-family="Arial" font-size="14.00" fill="#c6c5fe">MediaSourceUtil.js</text>
</g>
<!-- Client.js&#45;&gt;MediaSourceUtil.js -->
<g id="edge3" class="edge">
<title>Client.js&#45;&gt;MediaSourceUtil.js</title>
<path fill="none" stroke="#757575" d="M213.24,-507.93C229.2,-530.88 268.15,-582.16 314,-608.34 324.4,-614.28 336.11,-618.86 347.89,-622.41"/>
<polygon fill="#757575" stroke="#757575" points="347.19,-625.85 357.77,-625.14 349.06,-619.1 347.19,-625.85"/>
</g>
<!-- OffscreenDecodeWorkerHelper.js -->
<g id="node5" class="node">
<title>OffscreenDecodeWorkerHelper.js</title>
<path fill="none" stroke="#c6c5fe" d="M524.33,-955.84C524.33,-955.84 321.67,-955.84 321.67,-955.84 317.83,-955.84 314,-952 314,-948.17 314,-948.17 314,-940.5 314,-940.5 314,-936.67 317.83,-932.84 321.67,-932.84 321.67,-932.84 524.33,-932.84 524.33,-932.84 528.17,-932.84 532,-936.67 532,-940.5 532,-940.5 532,-948.17 532,-948.17 532,-952 528.17,-955.84 524.33,-955.84"/>
<text text-anchor="middle" x="423" y="-940.64" font-family="Arial" font-size="14.00" fill="#c6c5fe">OffscreenDecodeWorkerHelper.js</text>
</g>
<!-- Client.js&#45;&gt;OffscreenDecodeWorkerHelper.js -->
<g id="edge4" class="edge">
<title>Client.js&#45;&gt;OffscreenDecodeWorkerHelper.js</title>
<path fill="none" stroke="#757575" d="M210.72,-508.14C223.93,-538.45 258.98,-621.74 278,-694.34 303.22,-790.6 247.27,-841.51 314,-915.34 318.59,-920.42 323.97,-924.65 329.83,-928.17"/>
<polygon fill="#757575" stroke="#757575" points="328.24,-931.29 338.72,-932.83 331.49,-925.09 328.24,-931.29"/>
</g>
<!-- Protocol.js -->
<g id="node6" class="node">
<title>Protocol.js</title>
<path fill="none" stroke="#c6c5fe" d="M455.33,-527.84C455.33,-527.84 390.67,-527.84 390.67,-527.84 386.83,-527.84 383,-524 383,-520.17 383,-520.17 383,-512.5 383,-512.5 383,-508.67 386.83,-504.84 390.67,-504.84 390.67,-504.84 455.33,-504.84 455.33,-504.84 459.17,-504.84 463,-508.67 463,-512.5 463,-512.5 463,-520.17 463,-520.17 463,-524 459.17,-527.84 455.33,-527.84"/>
<text text-anchor="middle" x="423" y="-512.64" font-family="Arial" font-size="14.00" fill="#c6c5fe">Protocol.js</text>
</g>
<!-- Client.js&#45;&gt;Protocol.js -->
<g id="edge5" class="edge">
<title>Client.js&#45;&gt;Protocol.js</title>
<path fill="none" stroke="#757575" d="M237.45,-499.29C273.12,-502.58 331.29,-507.96 372.79,-511.79"/>
<polygon fill="#757575" stroke="#757575" points="372.67,-515.3 382.95,-512.73 373.32,-508.33 372.67,-515.3"/>
</g>
<!-- Utilities.js -->
<g id="node7" class="node">
<title>Utilities.js</title>
<path fill="none" stroke="#cfffac" d="M703.33,-647.84C703.33,-647.84 644.67,-647.84 644.67,-647.84 640.83,-647.84 637,-644 637,-640.17 637,-640.17 637,-632.5 637,-632.5 637,-628.67 640.83,-624.84 644.67,-624.84 644.67,-624.84 703.33,-624.84 703.33,-624.84 707.17,-624.84 711,-628.67 711,-632.5 711,-632.5 711,-640.17 711,-640.17 711,-644 707.17,-647.84 703.33,-647.84"/>
<text text-anchor="middle" x="674" y="-632.64" font-family="Arial" font-size="14.00" fill="#cfffac">Utilities.js</text>
</g>
<!-- Client.js&#45;&gt;Utilities.js -->
<g id="edge6" class="edge">
<title>Client.js&#45;&gt;Utilities.js</title>
<path fill="none" stroke="#757575" d="M218.47,-507.9C237.82,-524.48 276.04,-554.73 314,-570.34 342.6,-582.1 536.36,-614.31 626.75,-628.93"/>
<polygon fill="#757575" stroke="#757575" points="626.29,-632.41 636.72,-630.54 627.41,-625.49 626.29,-632.41"/>
</g>
<!-- Window.js -->
<g id="node8" class="node">
<title>Window.js</title>
<path fill="none" stroke="#c6c5fe" d="M454.33,-763.84C454.33,-763.84 391.67,-763.84 391.67,-763.84 387.83,-763.84 384,-760 384,-756.17 384,-756.17 384,-748.5 384,-748.5 384,-744.67 387.83,-740.84 391.67,-740.84 391.67,-740.84 454.33,-740.84 454.33,-740.84 458.17,-740.84 462,-744.67 462,-748.5 462,-748.5 462,-756.17 462,-756.17 462,-760 458.17,-763.84 454.33,-763.84"/>
<text text-anchor="middle" x="423" y="-748.64" font-family="Arial" font-size="14.00" fill="#c6c5fe">Window.js</text>
</g>
<!-- Client.js&#45;&gt;Window.js -->
<g id="edge7" class="edge">
<title>Client.js&#45;&gt;Window.js</title>
<path fill="none" stroke="#757575" d="M212.25,-508.2C228.1,-535.6 269.76,-604.79 314,-655.34 340.61,-685.74 376.24,-716.1 399.17,-734.56"/>
<polygon fill="#757575" stroke="#757575" points="396.99,-737.3 407,-740.79 401.35,-731.82 396.99,-737.3"/>
</g>
<!-- lib/StreamSaver.js -->
<g id="node9" class="node">
<title>lib/StreamSaver.js</title>
<path fill="none" stroke="#cfffac" d="M478.33,-409.84C478.33,-409.84 367.67,-409.84 367.67,-409.84 363.83,-409.84 360,-406 360,-402.17 360,-402.17 360,-394.5 360,-394.5 360,-390.67 363.83,-386.84 367.67,-386.84 367.67,-386.84 478.33,-386.84 478.33,-386.84 482.17,-386.84 486,-390.67 486,-394.5 486,-394.5 486,-402.17 486,-402.17 486,-406 482.17,-409.84 478.33,-409.84"/>
<text text-anchor="middle" x="423" y="-394.64" font-family="Arial" font-size="14.00" fill="#cfffac">lib/StreamSaver.js</text>
</g>
<!-- Client.js&#45;&gt;lib/StreamSaver.js -->
<g id="edge8" class="edge">
<title>Client.js&#45;&gt;lib/StreamSaver.js</title>
<path fill="none" stroke="#757575" d="M219.31,-484.84C239.07,-468.94 277.11,-440.42 314,-424.34 325.37,-419.38 337.84,-415.27 350.15,-411.9"/>
<polygon fill="#757575" stroke="#757575" points="351.15,-415.26 359.95,-409.36 349.39,-408.48 351.15,-415.26"/>
</g>
<!-- lib/forge.js -->
<g id="node10" class="node">
<title>lib/forge.js</title>
<path fill="none" stroke="#cfffac" d="M705.33,-368.84C705.33,-368.84 642.67,-368.84 642.67,-368.84 638.83,-368.84 635,-365 635,-361.17 635,-361.17 635,-353.5 635,-353.5 635,-349.67 638.83,-345.84 642.67,-345.84 642.67,-345.84 705.33,-345.84 705.33,-345.84 709.17,-345.84 713,-349.67 713,-353.5 713,-353.5 713,-361.17 713,-361.17 713,-365 709.17,-368.84 705.33,-368.84"/>
<text text-anchor="middle" x="674" y="-353.64" font-family="Arial" font-size="14.00" fill="#cfffac">lib/forge.js</text>
</g>
<!-- Client.js&#45;&gt;lib/forge.js -->
<g id="edge9" class="edge">
<title>Client.js&#45;&gt;lib/forge.js</title>
<path fill="none" stroke="#757575" d="M229.49,-484.7C251.11,-474.67 284.01,-460.57 314,-452.34 408.5,-426.41 446.01,-466.34 532,-419.34 553.28,-407.71 547,-390.47 568,-378.34 585.11,-368.45 606.12,-363.16 624.84,-360.34"/>
<polygon fill="#757575" stroke="#757575" points="625.5,-363.78 634.96,-359.02 624.59,-356.84 625.5,-363.78"/>
</g>
<!-- lib/jquery.ba&#45;throttle&#45;debounce.js -->
<g id="node11" class="node">
<title>lib/jquery.ba&#45;throttle&#45;debounce.js</title>
<path fill="none" stroke="#c6c5fe" d="M772.33,-288.84C772.33,-288.84 575.67,-288.84 575.67,-288.84 571.83,-288.84 568,-285 568,-281.17 568,-281.17 568,-273.5 568,-273.5 568,-269.67 571.83,-265.84 575.67,-265.84 575.67,-265.84 772.33,-265.84 772.33,-265.84 776.17,-265.84 780,-269.67 780,-273.5 780,-273.5 780,-281.17 780,-281.17 780,-285 776.17,-288.84 772.33,-288.84"/>
<text text-anchor="middle" x="674" y="-273.64" font-family="Arial" font-size="14.00" fill="#c6c5fe">lib/jquery.ba&#45;throttle&#45;debounce.js</text>
</g>
<!-- Client.js&#45;&gt;lib/jquery.ba&#45;throttle&#45;debounce.js -->
<g id="edge10" class="edge">
<title>Client.js&#45;&gt;lib/jquery.ba&#45;throttle&#45;debounce.js</title>
<path fill="none" stroke="#757575" d="M210.21,-484.47C222.45,-455.31 258.23,-379.9 314,-344.34 320,-340.51 494.13,-309.1 597.63,-290.68"/>
<polygon fill="#757575" stroke="#757575" points="598.49,-294.08 607.73,-288.88 597.27,-287.19 598.49,-294.08"/>
</g>
<!-- lib/jquery.js -->
<g id="node12" class="node">
<title>lib/jquery.js</title>
<path fill="none" stroke="#cfffac" d="M900.33,-229.84C900.33,-229.84 832.67,-229.84 832.67,-229.84 828.83,-229.84 825,-226 825,-222.17 825,-222.17 825,-214.5 825,-214.5 825,-210.67 828.83,-206.84 832.67,-206.84 832.67,-206.84 900.33,-206.84 900.33,-206.84 904.17,-206.84 908,-210.67 908,-214.5 908,-214.5 908,-222.17 908,-222.17 908,-226 904.17,-229.84 900.33,-229.84"/>
<text text-anchor="middle" x="866.5" y="-214.64" font-family="Arial" font-size="14.00" fill="#cfffac">lib/jquery.js</text>
</g>
<!-- Client.js&#45;&gt;lib/jquery.js -->
<g id="edge11" class="edge">
<title>Client.js&#45;&gt;lib/jquery.js</title>
<path fill="none" stroke="#757575" d="M212.46,-484.6C227.56,-460.3 265.85,-404.56 314,-378.34 406.28,-328.09 685.9,-345.09 780,-298.34 808.89,-283.98 834.82,-256.68 850.35,-238"/>
<polygon fill="#757575" stroke="#757575" points="853.17,-240.08 856.74,-230.11 847.73,-235.68 853.17,-240.08"/>
</g>
<!-- lib/lz4.js -->
<g id="node13" class="node">
<title>lib/lz4.js</title>
<path fill="none" stroke="#cfffac" d="M1011.83,-726.84C1011.83,-726.84 962.17,-726.84 962.17,-726.84 958.33,-726.84 954.5,-723 954.5,-719.17 954.5,-719.17 954.5,-711.5 954.5,-711.5 954.5,-707.67 958.33,-703.84 962.17,-703.84 962.17,-703.84 1011.83,-703.84 1011.83,-703.84 1015.67,-703.84 1019.5,-707.67 1019.5,-711.5 1019.5,-711.5 1019.5,-719.17 1019.5,-719.17 1019.5,-723 1015.67,-726.84 1011.83,-726.84"/>
<text text-anchor="middle" x="987" y="-711.64" font-family="Arial" font-size="14.00" fill="#cfffac">lib/lz4.js</text>
</g>
<!-- Client.js&#45;&gt;lib/lz4.js -->
<g id="edge12" class="edge">
<title>Client.js&#45;&gt;lib/lz4.js</title>
<path fill="none" stroke="#757575" d="M237.33,-501.24C250.29,-503.89 265.19,-507.78 278,-513.34 295.64,-520.99 296.07,-530.4 314,-537.34 405.39,-572.69 435.37,-554.07 532,-570.34 642.55,-588.95 673.44,-581.53 780,-616.34 846.24,-637.97 918.54,-676.51 957.42,-698.58"/>
<polygon fill="#757575" stroke="#757575" points="956.14,-701.89 966.56,-703.82 959.62,-695.81 956.14,-701.89"/>
</g>
<!-- lib/rencode.js -->
<g id="node14" class="node">
<title>lib/rencode.js</title>
<path fill="none" stroke="#cfffac" d="M714.33,-409.84C714.33,-409.84 633.67,-409.84 633.67,-409.84 629.83,-409.84 626,-406 626,-402.17 626,-402.17 626,-394.5 626,-394.5 626,-390.67 629.83,-386.84 633.67,-386.84 633.67,-386.84 714.33,-386.84 714.33,-386.84 718.17,-386.84 722,-390.67 722,-394.5 722,-394.5 722,-402.17 722,-402.17 722,-406 718.17,-409.84 714.33,-409.84"/>
<text text-anchor="middle" x="674" y="-394.64" font-family="Arial" font-size="14.00" fill="#cfffac">lib/rencode.js</text>
</g>
<!-- Client.js&#45;&gt;lib/rencode.js -->
<g id="edge13" class="edge">
<title>Client.js&#45;&gt;lib/rencode.js</title>
<path fill="none" stroke="#757575" d="M237.03,-494.49C308.35,-489.94 479.94,-476.71 532,-452.34 551.66,-443.13 548.65,-429.16 568,-419.34 582.76,-411.85 599.95,-407.03 616.1,-403.93"/>
<polygon fill="#757575" stroke="#757575" points="616.73,-407.37 625.98,-402.21 615.53,-400.47 616.73,-407.37"/>
</g>
<!-- MediaSourceUtil.js&#45;&gt;Utilities.js -->
<g id="edge29" class="edge">
<title>MediaSourceUtil.js&#45;&gt;Utilities.js</title>
<path fill="none" stroke="#757575" d="M488.12,-634.85C531.51,-635.2 587.8,-635.65 626.82,-635.97"/>
<polygon fill="#757575" stroke="#757575" points="626.82,-639.47 636.84,-636.05 626.87,-632.47 626.82,-639.47"/>
</g>
<!-- ImageDecoder.js -->
<g id="node18" class="node">
<title>ImageDecoder.js</title>
<path fill="none" stroke="#c6c5fe" d="M725.83,-965.84C725.83,-965.84 622.17,-965.84 622.17,-965.84 618.33,-965.84 614.5,-962 614.5,-958.17 614.5,-958.17 614.5,-950.5 614.5,-950.5 614.5,-946.67 618.33,-942.84 622.17,-942.84 622.17,-942.84 725.83,-942.84 725.83,-942.84 729.67,-942.84 733.5,-946.67 733.5,-950.5 733.5,-950.5 733.5,-958.17 733.5,-958.17 733.5,-962 729.67,-965.84 725.83,-965.84"/>
<text text-anchor="middle" x="674" y="-950.64" font-family="Arial" font-size="14.00" fill="#c6c5fe">ImageDecoder.js</text>
</g>
<!-- OffscreenDecodeWorkerHelper.js&#45;&gt;ImageDecoder.js -->
<g id="edge42" class="edge">
<title>OffscreenDecodeWorkerHelper.js&#45;&gt;ImageDecoder.js</title>
<path fill="none" stroke="#757575" d="M532.13,-948.68C556.6,-949.66 581.93,-950.68 604.25,-951.58"/>
<polygon fill="#757575" stroke="#757575" points="604.14,-955.07 614.27,-951.98 604.42,-948.08 604.14,-955.07"/>
</g>
<!-- VideoDecoder.js -->
<g id="node28" class="node">
<title>VideoDecoder.js</title>
<path fill="none" stroke="#cfffac" d="M723.83,-1045.84C723.83,-1045.84 624.17,-1045.84 624.17,-1045.84 620.33,-1045.84 616.5,-1042 616.5,-1038.17 616.5,-1038.17 616.5,-1030.5 616.5,-1030.5 616.5,-1026.67 620.33,-1022.84 624.17,-1022.84 624.17,-1022.84 723.83,-1022.84 723.83,-1022.84 727.67,-1022.84 731.5,-1026.67 731.5,-1030.5 731.5,-1030.5 731.5,-1038.17 731.5,-1038.17 731.5,-1042 727.67,-1045.84 723.83,-1045.84"/>
<text text-anchor="middle" x="674" y="-1030.64" font-family="Arial" font-size="14.00" fill="#cfffac">VideoDecoder.js</text>
</g>
<!-- OffscreenDecodeWorkerHelper.js&#45;&gt;VideoDecoder.js -->
<g id="edge43" class="edge">
<title>OffscreenDecodeWorkerHelper.js&#45;&gt;VideoDecoder.js</title>
<path fill="none" stroke="#757575" d="M446.94,-956.04C474.94,-969.97 524.01,-993.25 568,-1008.34 581.08,-1012.82 595.32,-1016.88 608.97,-1020.38"/>
<polygon fill="#757575" stroke="#757575" points="608.24,-1023.81 618.79,-1022.83 609.93,-1017.02 608.24,-1023.81"/>
</g>
<!-- Protocol.js&#45;&gt;Utilities.js -->
<g id="edge44" class="edge">
<title>Protocol.js&#45;&gt;Utilities.js</title>
<path fill="none" stroke="#757575" d="M447.88,-527.84C492.47,-549.34 588.53,-595.63 639.55,-620.22"/>
<polygon fill="#757575" stroke="#757575" points="638.3,-623.5 648.83,-624.69 641.34,-617.2 638.3,-623.5"/>
</g>
<!-- Protocol.js&#45;&gt;lib/forge.js -->
<g id="edge47" class="edge">
<title>Protocol.js&#45;&gt;lib/forge.js</title>
<path fill="none" stroke="#757575" d="M453.3,-504.66C477.02,-493.99 510,-476.22 532,-452.34 556.78,-425.43 539.06,-400.7 568,-378.34 584.03,-365.96 605.42,-360.31 624.72,-357.91"/>
<polygon fill="#757575" stroke="#757575" points="625.27,-361.37 634.88,-356.91 624.58,-354.41 625.27,-361.37"/>
</g>
<!-- Protocol.js&#45;&gt;lib/lz4.js -->
<g id="edge48" class="edge">
<title>Protocol.js&#45;&gt;lib/lz4.js</title>
<path fill="none" stroke="#757575" d="M463.26,-516.47C567.42,-517.61 847.5,-525.97 917,-582.34 952.99,-611.52 972.3,-664.48 980.72,-694.01"/>
<polygon fill="#757575" stroke="#757575" points="977.36,-694.99 983.34,-703.73 984.12,-693.17 977.36,-694.99"/>
</g>
<!-- Protocol.js&#45;&gt;lib/rencode.js -->
<g id="edge49" class="edge">
<title>Protocol.js&#45;&gt;lib/rencode.js</title>
<path fill="none" stroke="#757575" d="M463.22,-514.85C485.42,-512.2 512.56,-505.71 532,-490.34 559.76,-468.4 539.82,-440.73 568,-419.34 581.61,-409 598.98,-403.38 615.66,-400.42"/>
<polygon fill="#757575" stroke="#757575" points="616.54,-403.83 625.92,-398.91 615.51,-396.91 616.54,-403.83"/>
</g>
<!-- lib/zlib.js -->
<g id="node30" class="node">
<title>lib/zlib.js</title>
<path fill="none" stroke="#cfffac" d="M1013.33,-824.84C1013.33,-824.84 960.67,-824.84 960.67,-824.84 956.83,-824.84 953,-821 953,-817.17 953,-817.17 953,-809.5 953,-809.5 953,-805.67 956.83,-801.84 960.67,-801.84 960.67,-801.84 1013.33,-801.84 1013.33,-801.84 1017.17,-801.84 1021,-805.67 1021,-809.5 1021,-809.5 1021,-817.17 1021,-817.17 1021,-821 1017.17,-824.84 1013.33,-824.84"/>
<text text-anchor="middle" x="987" y="-809.64" font-family="Arial" font-size="14.00" fill="#cfffac">lib/zlib.js</text>
</g>
<!-- Protocol.js&#45;&gt;lib/zlib.js -->
<g id="edge50" class="edge">
<title>Protocol.js&#45;&gt;lib/zlib.js</title>
<path fill="none" stroke="#757575" d="M463.26,-524.83C543.87,-542.68 725.08,-585 780,-616.34 863.92,-664.21 939.65,-753.64 970.87,-793.4"/>
<polygon fill="#757575" stroke="#757575" points="968.29,-795.77 977.18,-801.53 973.82,-791.48 968.29,-795.77"/>
</g>
<!-- lib/bencode.js -->
<g id="node31" class="node">
<title>lib/bencode.js</title>
<path fill="none" stroke="#cfffac" d="M715.83,-491.84C715.83,-491.84 632.17,-491.84 632.17,-491.84 628.33,-491.84 624.5,-488 624.5,-484.17 624.5,-484.17 624.5,-476.5 624.5,-476.5 624.5,-472.67 628.33,-468.84 632.17,-468.84 632.17,-468.84 715.83,-468.84 715.83,-468.84 719.67,-468.84 723.5,-472.67 723.5,-476.5 723.5,-476.5 723.5,-484.17 723.5,-484.17 723.5,-488 719.67,-491.84 715.83,-491.84"/>
<text text-anchor="middle" x="674" y="-476.64" font-family="Arial" font-size="14.00" fill="#cfffac">lib/bencode.js</text>
</g>
<!-- Protocol.js&#45;&gt;lib/bencode.js -->
<g id="edge45" class="edge">
<title>Protocol.js&#45;&gt;lib/bencode.js</title>
<path fill="none" stroke="#757575" d="M463.18,-510.67C503.76,-504.81 567.63,-495.57 614.25,-488.83"/>
<polygon fill="#757575" stroke="#757575" points="614.82,-492.29 624.22,-487.39 613.82,-485.36 614.82,-492.29"/>
</g>
<!-- lib/brotli_decode.js -->
<g id="node32" class="node">
<title>lib/brotli_decode.js</title>
<path fill="none" stroke="#cfffac" d="M730.33,-450.84C730.33,-450.84 617.67,-450.84 617.67,-450.84 613.83,-450.84 610,-447 610,-443.17 610,-443.17 610,-435.5 610,-435.5 610,-431.67 613.83,-427.84 617.67,-427.84 617.67,-427.84 730.33,-427.84 730.33,-427.84 734.17,-427.84 738,-431.67 738,-435.5 738,-435.5 738,-443.17 738,-443.17 738,-447 734.17,-450.84 730.33,-450.84"/>
<text text-anchor="middle" x="674" y="-435.64" font-family="Arial" font-size="14.00" fill="#cfffac">lib/brotli_decode.js</text>
</g>
<!-- Protocol.js&#45;&gt;lib/brotli_decode.js -->
<g id="edge46" class="edge">
<title>Protocol.js&#45;&gt;lib/brotli_decode.js</title>
<path fill="none" stroke="#757575" d="M463.23,-511.34C484.41,-507.56 510.54,-501.11 532,-490.34 550.61,-480.99 549.21,-469.32 568,-460.34 577.89,-455.61 588.79,-451.95 599.71,-449.11"/>
<polygon fill="#757575" stroke="#757575" points="600.81,-452.44 609.72,-446.72 599.19,-445.63 600.81,-452.44"/>
</g>
<!-- Window.js&#45;&gt;Constants.js -->
<g id="edge53" class="edge">
<title>Window.js&#45;&gt;Constants.js</title>
<path fill="none" stroke="#757575" d="M462.09,-758.91C503.72,-766.1 570.79,-777.69 618.1,-785.86"/>
<polygon fill="#757575" stroke="#757575" points="617.72,-789.34 628.17,-787.6 618.92,-782.45 617.72,-789.34"/>
</g>
<!-- Window.js&#45;&gt;Utilities.js -->
<g id="edge55" class="edge">
<title>Window.js&#45;&gt;Utilities.js</title>
<path fill="none" stroke="#757575" d="M462.2,-750.63C484.46,-747.93 512,-741.46 532,-726.34 558.03,-706.66 542.03,-682.1 568,-662.34 584.8,-649.55 607.09,-642.98 626.81,-639.63"/>
<polygon fill="#757575" stroke="#757575" points="627.46,-643.08 636.84,-638.16 626.44,-636.15 627.46,-643.08"/>
</g>
<!-- Window.js&#45;&gt;lib/jquery.js -->
<g id="edge57" class="edge">
<title>Window.js&#45;&gt;lib/jquery.js</title>
<path fill="none" stroke="#757575" d="M462.08,-742.74C552.77,-719.81 774.45,-663.28 780,-657.34 837.71,-595.54 859.11,-321.16 864.21,-240.63"/>
<polygon fill="#757575" stroke="#757575" points="867.73,-240.4 864.85,-230.2 860.74,-239.97 867.73,-240.4"/>
</g>
<!-- RgbHelpers.js -->
<g id="node17" class="node">
<title>RgbHelpers.js</title>
<path fill="none" stroke="#c6c5fe" d="M909.33,-824.84C909.33,-824.84 823.67,-824.84 823.67,-824.84 819.83,-824.84 816,-821 816,-817.17 816,-817.17 816,-809.5 816,-809.5 816,-805.67 819.83,-801.84 823.67,-801.84 823.67,-801.84 909.33,-801.84 909.33,-801.84 913.17,-801.84 917,-805.67 917,-809.5 917,-809.5 917,-817.17 917,-817.17 917,-821 913.17,-824.84 909.33,-824.84"/>
<text text-anchor="middle" x="866.5" y="-809.64" font-family="Arial" font-size="14.00" fill="#c6c5fe">RgbHelpers.js</text>
</g>
<!-- Window.js&#45;&gt;RgbHelpers.js -->
<g id="edge54" class="edge">
<title>Window.js&#45;&gt;RgbHelpers.js</title>
<path fill="none" stroke="#757575" d="M462.18,-745.61C542.45,-732.22 725.73,-705.9 780,-734.34 804.9,-747.38 795.1,-767.54 816,-786.34 820.19,-790.1 824.99,-793.54 829.92,-796.6"/>
<polygon fill="#757575" stroke="#757575" points="828.41,-799.77 838.83,-801.71 831.89,-793.7 828.41,-799.77"/>
</g>
<!-- lib/broadway/Decoder.js -->
<g id="node29" class="node">
<title>lib/broadway/Decoder.js</title>
<path fill="none" stroke="#cfffac" d="M746.33,-765.84C746.33,-765.84 601.67,-765.84 601.67,-765.84 597.83,-765.84 594,-762 594,-758.17 594,-758.17 594,-750.5 594,-750.5 594,-746.67 597.83,-742.84 601.67,-742.84 601.67,-742.84 746.33,-742.84 746.33,-742.84 750.17,-742.84 754,-746.67 754,-750.5 754,-750.5 754,-758.17 754,-758.17 754,-762 750.17,-765.84 746.33,-765.84"/>
<text text-anchor="middle" x="674" y="-750.64" font-family="Arial" font-size="14.00" fill="#cfffac">lib/broadway/Decoder.js</text>
</g>
<!-- Window.js&#45;&gt;lib/broadway/Decoder.js -->
<g id="edge56" class="edge">
<title>Window.js&#45;&gt;lib/broadway/Decoder.js</title>
<path fill="none" stroke="#757575" d="M462.09,-752.64C494.37,-752.9 541.95,-753.28 583.75,-753.62"/>
<polygon fill="#757575" stroke="#757575" points="583.93,-757.12 593.96,-753.7 583.99,-750.12 583.93,-757.12"/>
</g>
<!-- lib/jquery.ba&#45;throttle&#45;debounce.js&#45;&gt;lib/jquery.js -->
<g id="edge61" class="edge">
<title>lib/jquery.ba&#45;throttle&#45;debounce.js&#45;&gt;lib/jquery.js</title>
<path fill="none" stroke="#757575" d="M727.16,-265.79C744.14,-261.67 762.99,-256.7 780,-251.34 796.18,-246.23 813.72,-239.66 828.67,-233.72"/>
<polygon fill="#757575" stroke="#757575" points="830.12,-236.91 838.09,-229.93 827.5,-230.41 830.12,-236.91"/>
</g>
<!-- ConnectPage.js -->
<g id="node15" class="node">
<title>ConnectPage.js</title>
<path fill="none" stroke="#c6c5fe" d="M252.83,-725.84C252.83,-725.84 156.17,-725.84 156.17,-725.84 152.33,-725.84 148.5,-722 148.5,-718.17 148.5,-718.17 148.5,-710.5 148.5,-710.5 148.5,-706.67 152.33,-702.84 156.17,-702.84 156.17,-702.84 252.83,-702.84 252.83,-702.84 256.67,-702.84 260.5,-706.67 260.5,-710.5 260.5,-710.5 260.5,-718.17 260.5,-718.17 260.5,-722 256.67,-725.84 252.83,-725.84"/>
<text text-anchor="middle" x="204.5" y="-710.64" font-family="Arial" font-size="14.00" fill="#c6c5fe">ConnectPage.js</text>
</g>
<!-- ConnectPage.js&#45;&gt;MediaSourceUtil.js -->
<g id="edge14" class="edge">
<title>ConnectPage.js&#45;&gt;MediaSourceUtil.js</title>
<path fill="none" stroke="#757575" d="M236.98,-702.7C275.09,-688.62 339.35,-664.88 381.22,-649.41"/>
<polygon fill="#757575" stroke="#757575" points="382.67,-652.6 390.83,-645.85 380.24,-646.04 382.67,-652.6"/>
</g>
<!-- ConnectPage.js&#45;&gt;OffscreenDecodeWorkerHelper.js -->
<g id="edge15" class="edge">
<title>ConnectPage.js&#45;&gt;OffscreenDecodeWorkerHelper.js</title>
<path fill="none" stroke="#757575" d="M260.74,-723.2C267.22,-726.18 273.21,-730.13 278,-735.34 333.2,-795.41 258.21,-855.81 314,-915.34 318.77,-920.43 324.33,-924.66 330.37,-928.18"/>
<polygon fill="#757575" stroke="#757575" points="329.01,-931.42 339.51,-932.83 332.19,-925.18 329.01,-931.42"/>
</g>
<!-- ConnectPage.js&#45;&gt;Utilities.js -->
<g id="edge16" class="edge">
<title>ConnectPage.js&#45;&gt;Utilities.js</title>
<path fill="none" stroke="#757575" d="M260.57,-718.8C327.06,-722.22 441.28,-721.71 532,-688.34 550.52,-681.52 550.09,-670.64 568,-662.34 586.49,-653.77 608.16,-647.79 627.01,-643.75"/>
<polygon fill="#757575" stroke="#757575" points="627.75,-647.17 636.86,-641.75 626.36,-640.31 627.75,-647.17"/>
</g>
<!-- ConnectPage.js&#45;&gt;lib/jquery.js -->
<g id="edge17" class="edge">
<title>ConnectPage.js&#45;&gt;lib/jquery.js</title>
<path fill="none" stroke="#757575" d="M260.86,-725.28C267.01,-727.93 272.89,-731.23 278,-735.34 304.05,-756.26 285.78,-783.44 314,-801.34 357.75,-829.08 740.86,-850.28 780,-816.34 824.68,-777.59 857,-342.94 864.05,-240.07"/>
<polygon fill="#757575" stroke="#757575" points="867.56,-240.15 864.74,-229.94 860.57,-239.68 867.56,-240.15"/>
</g>
<!-- DecodeWorker.js -->
<g id="node16" class="node">
<title>DecodeWorker.js</title>
<path fill="none" stroke="#c6c5fe" d="M725.83,-924.84C725.83,-924.84 622.17,-924.84 622.17,-924.84 618.33,-924.84 614.5,-921 614.5,-917.17 614.5,-917.17 614.5,-909.5 614.5,-909.5 614.5,-905.67 618.33,-901.84 622.17,-901.84 622.17,-901.84 725.83,-901.84 725.83,-901.84 729.67,-901.84 733.5,-905.67 733.5,-909.5 733.5,-909.5 733.5,-917.17 733.5,-917.17 733.5,-921 729.67,-924.84 725.83,-924.84"/>
<text text-anchor="middle" x="674" y="-909.64" font-family="Arial" font-size="14.00" fill="#c6c5fe">DecodeWorker.js</text>
</g>
<!-- DecodeWorker.js&#45;&gt;RgbHelpers.js -->
<g id="edge18" class="edge">
<title>DecodeWorker.js&#45;&gt;RgbHelpers.js</title>
<path fill="none" stroke="#757575" d="M733.72,-903.93C749.3,-900.08 765.74,-894.72 780,-887.34 806.81,-873.44 832.27,-849.53 848.33,-832.65"/>
<polygon fill="#757575" stroke="#757575" points="851.18,-834.72 855.42,-825.01 846.05,-829.96 851.18,-834.72"/>
</g>
<!-- RgbHelpers.js&#45;&gt;lib/lz4.js -->
<g id="edge51" class="edge">
<title>RgbHelpers.js&#45;&gt;lib/lz4.js</title>
<path fill="none" stroke="#757575" d="M881.56,-801.71C901.96,-784.84 939.96,-753.41 964.06,-733.48"/>
<polygon fill="#757575" stroke="#757575" points="966.48,-736.02 971.96,-726.95 962.02,-730.62 966.48,-736.02"/>
</g>
<!-- RgbHelpers.js&#45;&gt;lib/zlib.js -->
<g id="edge52" class="edge">
<title>RgbHelpers.js&#45;&gt;lib/zlib.js</title>
<path fill="none" stroke="#757575" d="M917.07,-813.34C925.54,-813.34 934.29,-813.34 942.58,-813.34"/>
<polygon fill="#757575" stroke="#757575" points="942.8,-816.84 952.8,-813.34 942.8,-809.84 942.8,-816.84"/>
</g>
<!-- ImageDecoder.js&#45;&gt;RgbHelpers.js -->
<g id="edge19" class="edge">
<title>ImageDecoder.js&#45;&gt;RgbHelpers.js</title>
<path fill="none" stroke="#757575" d="M733.57,-951.22C749.57,-948.3 766.27,-943.18 780,-934.34 817.97,-909.89 844.08,-862.07 856.73,-834.43"/>
<polygon fill="#757575" stroke="#757575" points="860.09,-835.47 860.92,-824.91 853.68,-832.65 860.09,-835.47"/>
</g>
<!-- IndexPage.js -->
<g id="node19" class="node">
<title>IndexPage.js</title>
<path fill="none" stroke="#c6c5fe" d="M87.33,-291.84C87.33,-291.84 7.67,-291.84 7.67,-291.84 3.83,-291.84 0,-288 0,-284.17 0,-284.17 0,-276.5 0,-276.5 0,-272.67 3.83,-268.84 7.67,-268.84 7.67,-268.84 87.33,-268.84 87.33,-268.84 91.17,-268.84 95,-272.67 95,-276.5 95,-276.5 95,-284.17 95,-284.17 95,-288 91.17,-291.84 87.33,-291.84"/>
<text text-anchor="middle" x="47.5" y="-276.64" font-family="Arial" font-size="14.00" fill="#c6c5fe">IndexPage.js</text>
</g>
<!-- IndexPage.js&#45;&gt;Client.js -->
<g id="edge20" class="edge">
<title>IndexPage.js&#45;&gt;Client.js</title>
<path fill="none" stroke="#757575" d="M81.66,-292.09C86.46,-294.67 91.09,-297.74 95,-301.34 149.59,-351.55 183.21,-435.72 196.7,-474.97"/>
<polygon fill="#757575" stroke="#757575" points="193.41,-476.2 199.9,-484.58 200.06,-473.98 193.41,-476.2"/>
</g>
<!-- IndexPage.js&#45;&gt;Keycodes.js -->
<g id="edge21" class="edge">
<title>IndexPage.js&#45;&gt;Keycodes.js</title>
<path fill="none" stroke="#757575" d="M95.05,-280.34C164.38,-280.34 294.48,-280.34 367.94,-280.34"/>
<polygon fill="#757575" stroke="#757575" points="368.35,-283.84 378.35,-280.34 368.35,-276.84 368.35,-283.84"/>
</g>
<!-- IndexPage.js&#45;&gt;Utilities.js -->
<g id="edge25" class="edge">
<title>IndexPage.js&#45;&gt;Utilities.js</title>
<path fill="none" stroke="#757575" d="M84.22,-291.85C88.33,-294.42 92.08,-297.55 95,-301.34 154.35,-378.47 80.55,-434.11 131,-517.34 183.8,-604.45 217.4,-623 314,-655.34 405.88,-686.1 435.33,-661.82 532,-655.34 563.8,-653.2 599.36,-648.4 626.81,-644.15"/>
<polygon fill="#757575" stroke="#757575" points="627.58,-647.57 636.91,-642.56 626.49,-640.66 627.58,-647.57"/>
</g>
<!-- IndexPage.js&#45;&gt;lib/jquery.js -->
<g id="edge26" class="edge">
<title>IndexPage.js&#45;&gt;lib/jquery.js</title>
<path fill="none" stroke="#757575" d="M54.41,-268.71C65.99,-247.2 93.79,-201.3 131,-178.34 298.89,-74.72 371.25,-114.97 568,-100.34 661.96,-93.35 696.07,-57.51 780,-100.34 819.94,-120.72 845.56,-169.44 857.54,-197.49"/>
<polygon fill="#757575" stroke="#757575" points="854.32,-198.86 861.34,-206.8 860.8,-196.21 854.32,-198.86"/>
</g>
<!-- Menu.js -->
<g id="node20" class="node">
<title>Menu.js</title>
<path fill="none" stroke="#c6c5fe" d="M229.33,-52.84C229.33,-52.84 179.67,-52.84 179.67,-52.84 175.83,-52.84 172,-49 172,-45.17 172,-45.17 172,-37.5 172,-37.5 172,-33.67 175.83,-29.84 179.67,-29.84 179.67,-29.84 229.33,-29.84 229.33,-29.84 233.17,-29.84 237,-33.67 237,-37.5 237,-37.5 237,-45.17 237,-45.17 237,-49 233.17,-52.84 229.33,-52.84"/>
<text text-anchor="middle" x="204.5" y="-37.64" font-family="Arial" font-size="14.00" fill="#c6c5fe">Menu.js</text>
</g>
<!-- IndexPage.js&#45;&gt;Menu.js -->
<g id="edge22" class="edge">
<title>IndexPage.js&#45;&gt;Menu.js</title>
<path fill="none" stroke="#757575" d="M49.64,-268.83C53.73,-233.59 70.81,-126.03 131,-67.34 139.52,-59.03 150.87,-53.36 162.05,-49.49"/>
<polygon fill="#757575" stroke="#757575" points="163.22,-52.8 171.77,-46.54 161.18,-46.1 163.22,-52.8"/>
</g>
<!-- MenuCustom.js -->
<g id="node21" class="node">
<title>MenuCustom.js</title>
<path fill="none" stroke="#c6c5fe" d="M252.83,-210.84C252.83,-210.84 156.17,-210.84 156.17,-210.84 152.33,-210.84 148.5,-207 148.5,-203.17 148.5,-203.17 148.5,-195.5 148.5,-195.5 148.5,-191.67 152.33,-187.84 156.17,-187.84 156.17,-187.84 252.83,-187.84 252.83,-187.84 256.67,-187.84 260.5,-191.67 260.5,-195.5 260.5,-195.5 260.5,-203.17 260.5,-203.17 260.5,-207 256.67,-210.84 252.83,-210.84"/>
<text text-anchor="middle" x="204.5" y="-195.64" font-family="Arial" font-size="14.00" fill="#c6c5fe">MenuCustom.js</text>
</g>
<!-- IndexPage.js&#45;&gt;MenuCustom.js -->
<g id="edge23" class="edge">
<title>IndexPage.js&#45;&gt;MenuCustom.js</title>
<path fill="none" stroke="#757575" d="M63.99,-268.68C80.11,-256.92 106.4,-238.77 131,-226.34 139.63,-221.98 149.14,-217.93 158.35,-214.37"/>
<polygon fill="#757575" stroke="#757575" points="159.65,-217.62 167.79,-210.84 157.2,-211.06 159.65,-217.62"/>
</g>
<!-- Notifications.js -->
<g id="node22" class="node">
<title>Notifications.js</title>
<path fill="none" stroke="#c6c5fe" d="M467.33,-250.84C467.33,-250.84 378.67,-250.84 378.67,-250.84 374.83,-250.84 371,-247 371,-243.17 371,-243.17 371,-235.5 371,-235.5 371,-231.67 374.83,-227.84 378.67,-227.84 378.67,-227.84 467.33,-227.84 467.33,-227.84 471.17,-227.84 475,-231.67 475,-235.5 475,-235.5 475,-243.17 475,-243.17 475,-247 471.17,-250.84 467.33,-250.84"/>
<text text-anchor="middle" x="423" y="-235.64" font-family="Arial" font-size="14.00" fill="#c6c5fe">Notifications.js</text>
</g>
<!-- IndexPage.js&#45;&gt;Notifications.js -->
<g id="edge24" class="edge">
<title>IndexPage.js&#45;&gt;Notifications.js</title>
<path fill="none" stroke="#757575" d="M95.05,-275.23C162.19,-267.86 286.32,-254.23 360.8,-246.06"/>
<polygon fill="#757575" stroke="#757575" points="361.41,-249.51 370.97,-244.94 360.65,-242.55 361.41,-249.51"/>
</g>
<!-- lib/simple&#45;keyboard.js -->
<g id="node23" class="node">
<title>lib/simple&#45;keyboard.js</title>
<path fill="none" stroke="#cfffac" d="M270.33,-807.84C270.33,-807.84 138.67,-807.84 138.67,-807.84 134.83,-807.84 131,-804 131,-800.17 131,-800.17 131,-792.5 131,-792.5 131,-788.67 134.83,-784.84 138.67,-784.84 138.67,-784.84 270.33,-784.84 270.33,-784.84 274.17,-784.84 278,-788.67 278,-792.5 278,-792.5 278,-800.17 278,-800.17 278,-804 274.17,-807.84 270.33,-807.84"/>
<text text-anchor="middle" x="204.5" y="-792.64" font-family="Arial" font-size="14.00" fill="#cfffac">lib/simple&#45;keyboard.js</text>
</g>
<!-- IndexPage.js&#45;&gt;lib/simple&#45;keyboard.js -->
<g id="edge27" class="edge">
<title>IndexPage.js&#45;&gt;lib/simple&#45;keyboard.js</title>
<path fill="none" stroke="#757575" d="M84.99,-291.9C88.87,-294.46 92.36,-297.56 95,-301.34 155.74,-388.04 63.73,-694.6 131,-776.34 131.51,-776.96 132.04,-777.57 132.59,-778.15"/>
<polygon fill="#757575" stroke="#757575" points="130.63,-781.07 140.54,-784.82 135.13,-775.71 130.63,-781.07"/>
</g>
<!-- lib/slick.js -->
<g id="node24" class="node">
<title>lib/slick.js</title>
<path fill="none" stroke="#cfffac" d="M233.83,-766.84C233.83,-766.84 175.17,-766.84 175.17,-766.84 171.33,-766.84 167.5,-763 167.5,-759.17 167.5,-759.17 167.5,-751.5 167.5,-751.5 167.5,-747.67 171.33,-743.84 175.17,-743.84 175.17,-743.84 233.83,-743.84 233.83,-743.84 237.67,-743.84 241.5,-747.67 241.5,-751.5 241.5,-751.5 241.5,-759.17 241.5,-759.17 241.5,-763 237.67,-766.84 233.83,-766.84"/>
<text text-anchor="middle" x="204.5" y="-751.64" font-family="Arial" font-size="14.00" fill="#cfffac">lib/slick.js</text>
</g>
<!-- IndexPage.js&#45;&gt;lib/slick.js -->
<g id="edge28" class="edge">
<title>IndexPage.js&#45;&gt;lib/slick.js</title>
<path fill="none" stroke="#757575" d="M84.96,-291.92C88.85,-294.47 92.34,-297.57 95,-301.34 150.81,-380.4 69.24,-660.83 131,-735.34 137.76,-743.49 147.51,-748.48 157.68,-751.5"/>
<polygon fill="#757575" stroke="#757575" points="156.93,-754.92 167.47,-753.83 158.55,-748.11 156.93,-754.92"/>
</g>
<!-- Menu.js&#45;&gt;lib/jquery.js -->
<g id="edge30" class="edge">
<title>Menu.js&#45;&gt;lib/jquery.js</title>
<path fill="none" stroke="#757575" d="M237.17,-32.93C329.19,-10.43 601.3,42.33 780,-67.34 827.5,-96.48 850.99,-162.35 860.38,-196.65"/>
<polygon fill="#757575" stroke="#757575" points="857.05,-197.78 862.94,-206.59 863.83,-196.04 857.05,-197.78"/>
</g>
<!-- MenuCustom.js&#45;&gt;lib/jquery.js -->
<g id="edge32" class="edge">
<title>MenuCustom.js&#45;&gt;lib/jquery.js</title>
<path fill="none" stroke="#757575" d="M260.64,-200.92C386.47,-204.55 693.3,-213.38 814.78,-216.88"/>
<polygon fill="#757575" stroke="#757575" points="814.82,-220.38 824.92,-217.17 815.02,-213.38 814.82,-220.38"/>
</g>
<!-- lib/jquery&#45;transform&#45;draggable.js -->
<g id="node25" class="node">
<title>lib/jquery&#45;transform&#45;draggable.js</title>
<path fill="none" stroke="#c6c5fe" d="M520.83,-170.84C520.83,-170.84 325.17,-170.84 325.17,-170.84 321.33,-170.84 317.5,-167 317.5,-163.17 317.5,-163.17 317.5,-155.5 317.5,-155.5 317.5,-151.67 321.33,-147.84 325.17,-147.84 325.17,-147.84 520.83,-147.84 520.83,-147.84 524.67,-147.84 528.5,-151.67 528.5,-155.5 528.5,-155.5 528.5,-163.17 528.5,-163.17 528.5,-167 524.67,-170.84 520.83,-170.84"/>
<text text-anchor="middle" x="423" y="-155.64" font-family="Arial" font-size="14.00" fill="#c6c5fe">lib/jquery&#45;transform&#45;draggable.js</text>
</g>
<!-- MenuCustom.js&#45;&gt;lib/jquery&#45;transform&#45;draggable.js -->
<g id="edge31" class="edge">
<title>MenuCustom.js&#45;&gt;lib/jquery&#45;transform&#45;draggable.js</title>
<path fill="none" stroke="#757575" d="M260.69,-189.14C287.7,-184.15 320.56,-178.08 349.56,-172.72"/>
<polygon fill="#757575" stroke="#757575" points="350.44,-176.12 359.64,-170.86 349.17,-169.23 350.44,-176.12"/>
</g>
<!-- Notifications.js&#45;&gt;Utilities.js -->
<g id="edge33" class="edge">
<title>Notifications.js&#45;&gt;Utilities.js</title>
<path fill="none" stroke="#757575" d="M475.14,-237.23C495.49,-239.15 517.47,-245.16 532,-260.34 606.89,-338.57 525.36,-401.78 568,-501.34 588.15,-548.38 628.76,-593.27 653.15,-617.58"/>
<polygon fill="#757575" stroke="#757575" points="650.85,-620.24 660.45,-624.73 655.75,-615.23 650.85,-620.24"/>
</g>
<!-- Notifications.js&#45;&gt;lib/jquery.ba&#45;throttle&#45;debounce.js -->
<g id="edge34" class="edge">
<title>Notifications.js&#45;&gt;lib/jquery.ba&#45;throttle&#45;debounce.js</title>
<path fill="none" stroke="#757575" d="M475.29,-247.16C507.43,-252.07 549.67,-258.52 586.85,-264.19"/>
<polygon fill="#757575" stroke="#757575" points="586.78,-267.72 597.19,-265.77 587.84,-260.8 586.78,-267.72"/>
</g>
<!-- Notifications.js&#45;&gt;lib/jquery.js -->
<g id="edge35" class="edge">
<title>Notifications.js&#45;&gt;lib/jquery.js</title>
<path fill="none" stroke="#757575" d="M475.08,-236.91C560.17,-232.86 729.95,-224.78 814.79,-220.75"/>
<polygon fill="#757575" stroke="#757575" points="815.13,-224.24 824.95,-220.27 814.8,-217.25 815.13,-224.24"/>
</g>
<!-- lib/jquery&#45;transform&#45;draggable.js&#45;&gt;lib/jquery.js -->
<g id="edge59" class="edge">
<title>lib/jquery&#45;transform&#45;draggable.js&#45;&gt;lib/jquery.js</title>
<path fill="none" stroke="#757575" d="M528.78,-158.91C600.33,-160.57 696.86,-166.69 780,-185.34 797.74,-189.32 816.68,-196.32 832.22,-202.85"/>
<polygon fill="#757575" stroke="#757575" points="830.84,-206.07 841.41,-206.83 833.62,-199.65 830.84,-206.07"/>
</g>
<!-- lib/jquery&#45;ui.js -->
<g id="node33" class="node">
<title>lib/jquery&#45;ui.js</title>
<path fill="none" stroke="#c6c5fe" d="M715.83,-132.84C715.83,-132.84 632.17,-132.84 632.17,-132.84 628.33,-132.84 624.5,-129 624.5,-125.17 624.5,-125.17 624.5,-117.5 624.5,-117.5 624.5,-113.67 628.33,-109.84 632.17,-109.84 632.17,-109.84 715.83,-109.84 715.83,-109.84 719.67,-109.84 723.5,-113.67 723.5,-117.5 723.5,-117.5 723.5,-125.17 723.5,-125.17 723.5,-129 719.67,-132.84 715.83,-132.84"/>
<text text-anchor="middle" x="674" y="-117.64" font-family="Arial" font-size="14.00" fill="#c6c5fe">lib/jquery&#45;ui.js</text>
</g>
<!-- lib/jquery&#45;transform&#45;draggable.js&#45;&gt;lib/jquery&#45;ui.js -->
<g id="edge58" class="edge">
<title>lib/jquery&#45;transform&#45;draggable.js&#45;&gt;lib/jquery&#45;ui.js</title>
<path fill="none" stroke="#757575" d="M499.38,-147.83C536.09,-142.23 579.59,-135.59 613.86,-130.36"/>
<polygon fill="#757575" stroke="#757575" points="614.83,-133.76 624.18,-128.79 613.77,-126.84 614.83,-133.76"/>
</g>
<!-- MitmPage.js -->
<g id="node26" class="node">
<title>MitmPage.js</title>
<path fill="none" stroke="#cfffac" d="M85.83,-332.84C85.83,-332.84 9.17,-332.84 9.17,-332.84 5.33,-332.84 1.5,-329 1.5,-325.17 1.5,-325.17 1.5,-317.5 1.5,-317.5 1.5,-313.67 5.33,-309.84 9.17,-309.84 9.17,-309.84 85.83,-309.84 85.83,-309.84 89.67,-309.84 93.5,-313.67 93.5,-317.5 93.5,-317.5 93.5,-325.17 93.5,-325.17 93.5,-329 89.67,-332.84 85.83,-332.84"/>
<text text-anchor="middle" x="47.5" y="-317.64" font-family="Arial" font-size="14.00" fill="#cfffac">MitmPage.js</text>
</g>
<!-- OffscreenDecodeWorker.js -->
<g id="node27" class="node">
<title>OffscreenDecodeWorker.js</title>
<path fill="none" stroke="#c6c5fe" d="M504.83,-905.84C504.83,-905.84 341.17,-905.84 341.17,-905.84 337.33,-905.84 333.5,-902 333.5,-898.17 333.5,-898.17 333.5,-890.5 333.5,-890.5 333.5,-886.67 337.33,-882.84 341.17,-882.84 341.17,-882.84 504.83,-882.84 504.83,-882.84 508.67,-882.84 512.5,-886.67 512.5,-890.5 512.5,-890.5 512.5,-898.17 512.5,-898.17 512.5,-902 508.67,-905.84 504.83,-905.84"/>
<text text-anchor="middle" x="423" y="-890.64" font-family="Arial" font-size="14.00" fill="#c6c5fe">OffscreenDecodeWorker.js</text>
</g>
<!-- OffscreenDecodeWorker.js&#45;&gt;Constants.js -->
<g id="edge36" class="edge">
<title>OffscreenDecodeWorker.js&#45;&gt;Constants.js</title>
<path fill="none" stroke="#757575" d="M453.05,-882.79C497.91,-864.95 584.09,-830.69 634.23,-810.75"/>
<polygon fill="#757575" stroke="#757575" points="635.75,-813.91 643.75,-806.97 633.16,-807.41 635.75,-813.91"/>
</g>
<!-- OffscreenDecodeWorker.js&#45;&gt;lib/lz4.js -->
<g id="edge40" class="edge">
<title>OffscreenDecodeWorker.js&#45;&gt;lib/lz4.js</title>
<path fill="none" stroke="#757575" d="M512.56,-891.62C603.25,-887.36 736.86,-876.54 780,-849.34 805.03,-833.56 793.65,-812.73 816,-793.34 853.77,-760.55 907.63,-738.99 944.54,-727"/>
<polygon fill="#757575" stroke="#757575" points="945.99,-730.22 954.48,-723.88 943.89,-723.54 945.99,-730.22"/>
</g>
<!-- OffscreenDecodeWorker.js&#45;&gt;ImageDecoder.js -->
<g id="edge37" class="edge">
<title>OffscreenDecodeWorker.js&#45;&gt;ImageDecoder.js</title>
<path fill="none" stroke="#757575" d="M465.59,-905.89C508.06,-917.69 567.84,-934.3 568,-934.34 579.65,-937.06 592.08,-939.68 604.18,-942.07"/>
<polygon fill="#757575" stroke="#757575" points="603.74,-945.56 614.23,-944.03 605.08,-938.68 603.74,-945.56"/>
</g>
<!-- OffscreenDecodeWorker.js&#45;&gt;VideoDecoder.js -->
<g id="edge38" class="edge">
<title>OffscreenDecodeWorker.js&#45;&gt;VideoDecoder.js</title>
<path fill="none" stroke="#757575" d="M499.58,-905.92C511.36,-910.26 522.7,-916.2 532,-924.34 562.58,-951.07 537.05,-982.04 568,-1008.34 578.83,-1017.54 592.42,-1023.57 606.2,-1027.5"/>
<polygon fill="#757575" stroke="#757575" points="605.68,-1030.98 616.24,-1030.01 607.38,-1024.19 605.68,-1030.98"/>
</g>
<!-- OffscreenDecodeWorker.js&#45;&gt;lib/broadway/Decoder.js -->
<g id="edge39" class="edge">
<title>OffscreenDecodeWorker.js&#45;&gt;lib/broadway/Decoder.js</title>
<path fill="none" stroke="#757575" d="M434.23,-882.66C456.13,-858.46 510.3,-802.78 568,-775.34 573.22,-772.86 578.71,-770.67 584.34,-768.74"/>
<polygon fill="#757575" stroke="#757575" points="585.43,-772.06 593.93,-765.73 583.34,-765.39 585.43,-772.06"/>
</g>
<!-- OffscreenDecodeWorker.js&#45;&gt;lib/zlib.js -->
<g id="edge41" class="edge">
<title>OffscreenDecodeWorker.js&#45;&gt;lib/zlib.js</title>
<path fill="none" stroke="#757575" d="M492.86,-905.87C506.61,-910.2 520.39,-916.16 532,-924.34 554.68,-940.31 543.37,-962.57 568,-975.34 651.66,-1018.69 690.96,-1006.15 780,-975.34 862.79,-946.68 937.59,-869.48 969.57,-832.97"/>
<polygon fill="#757575" stroke="#757575" points="972.55,-834.88 976.42,-825.02 967.24,-830.31 972.55,-834.88"/>
</g>
<!-- lib/jquery&#45;ui.js&#45;&gt;lib/jquery.js -->
<g id="edge60" class="edge">
<title>lib/jquery&#45;ui.js&#45;&gt;lib/jquery.js</title>
<path fill="none" stroke="#757575" d="M723.66,-128.64C741.97,-132.59 762.57,-138.53 780,-147.34 806.19,-160.57 831.45,-183.15 847.63,-199.29"/>
<polygon fill="#757575" stroke="#757575" points="845.31,-201.93 854.81,-206.63 850.32,-197.03 845.31,-201.93"/>
</g>
</g>
</svg>
