<?xml version="1.0" encoding="UTF-8" standalone="no"?>
<!DOCTYPE svg PUBLIC "-//W3C//DTD SVG 1.1//EN"
 "http://www.w3.org/Graphics/SVG/1.1/DTD/svg11.dtd">
<!-- Generated by graphviz version 2.50.0 (0)
 -->
<!-- Title: G Pages: 1 -->
<svg width="701pt" height="390pt"
 viewBox="0.00 0.00 701.20 390.20" xmlns="http://www.w3.org/2000/svg" xmlns:xlink="http://www.w3.org/1999/xlink">
<g id="graph0" class="graph" transform="scale(1 1) rotate(0) translate(21.6 368.6)">
<title>G</title>
<polygon fill="#111111" stroke="transparent" points="-21.6,21.6 -21.6,-368.6 679.6,-368.6 679.6,21.6 -21.6,21.6"/>
<!-- Client.js -->
<g id="node1" class="node">
<title>Client.js</title>
<path fill="none" stroke="#c6c5fe" d="M80.83,-185C80.83,-185 31.17,-185 31.17,-185 27.33,-185 23.5,-181.17 23.5,-177.33 23.5,-177.33 23.5,-169.67 23.5,-169.67 23.5,-165.83 27.33,-162 31.17,-162 31.17,-162 80.83,-162 80.83,-162 84.67,-162 88.5,-165.83 88.5,-169.67 88.5,-169.67 88.5,-177.33 88.5,-177.33 88.5,-181.17 84.67,-185 80.83,-185"/>
<text text-anchor="middle" x="56" y="-169.8" font-family="Arial" font-size="14.00" fill="#c6c5fe">Client.js</text>
</g>
<!-- Constants.js -->
<g id="node2" class="node">
<title>Constants.js</title>
<path fill="none" stroke="#cfffac" d="M499.33,-265C499.33,-265 423.67,-265 423.67,-265 419.83,-265 416,-261.17 416,-257.33 416,-257.33 416,-249.67 416,-249.67 416,-245.83 419.83,-242 423.67,-242 423.67,-242 499.33,-242 499.33,-242 503.17,-242 507,-245.83 507,-249.67 507,-249.67 507,-257.33 507,-257.33 507,-261.17 503.17,-265 499.33,-265"/>
<text text-anchor="middle" x="461.5" y="-249.8" font-family="Arial" font-size="14.00" fill="#cfffac">Constants.js</text>
</g>
<!-- Client.js&#45;&gt;Constants.js -->
<g id="edge1" class="edge">
<title>Client.js&#45;&gt;Constants.js</title>
<path fill="none" stroke="#757575" d="M88.58,-181.93C96.61,-184.88 104.95,-188.68 112,-193.5 132.02,-207.18 126.22,-223.83 148,-234.5 230.71,-275.01 340.82,-270.22 405.84,-262.35"/>
<polygon fill="#757575" stroke="#757575" points="406.4,-265.81 415.88,-261.06 405.51,-258.86 406.4,-265.81"/>
</g>
<!-- Keycodes.js -->
<g id="node3" class="node">
<title>Keycodes.js</title>
<path fill="none" stroke="#cfffac" d="M293.83,-64C293.83,-64 220.17,-64 220.17,-64 216.33,-64 212.5,-60.17 212.5,-56.33 212.5,-56.33 212.5,-48.67 212.5,-48.67 212.5,-44.83 216.33,-41 220.17,-41 220.17,-41 293.83,-41 293.83,-41 297.67,-41 301.5,-44.83 301.5,-48.67 301.5,-48.67 301.5,-56.33 301.5,-56.33 301.5,-60.17 297.67,-64 293.83,-64"/>
<text text-anchor="middle" x="257" y="-48.8" font-family="Arial" font-size="14.00" fill="#cfffac">Keycodes.js</text>
</g>
<!-- Client.js&#45;&gt;Keycodes.js -->
<g id="edge2" class="edge">
<title>Client.js&#45;&gt;Keycodes.js</title>
<path fill="none" stroke="#757575" d="M64.75,-161.8C78.81,-141.54 110.57,-100.01 148,-78.5 164.51,-69.01 184.34,-62.98 202.49,-59.14"/>
<polygon fill="#757575" stroke="#757575" points="203.21,-62.57 212.36,-57.23 201.88,-55.69 203.21,-62.57"/>
</g>
<!-- MediaSourceUtil.js -->
<g id="node4" class="node">
<title>MediaSourceUtil.js</title>
<path fill="none" stroke="#c6c5fe" d="M314.33,-185C314.33,-185 199.67,-185 199.67,-185 195.83,-185 192,-181.17 192,-177.33 192,-177.33 192,-169.67 192,-169.67 192,-165.83 195.83,-162 199.67,-162 199.67,-162 314.33,-162 314.33,-162 318.17,-162 322,-165.83 322,-169.67 322,-169.67 322,-177.33 322,-177.33 322,-181.17 318.17,-185 314.33,-185"/>
<text text-anchor="middle" x="257" y="-169.8" font-family="Arial" font-size="14.00" fill="#c6c5fe">MediaSourceUtil.js</text>
</g>
<!-- Client.js&#45;&gt;MediaSourceUtil.js -->
<g id="edge3" class="edge">
<title>Client.js&#45;&gt;MediaSourceUtil.js</title>
<path fill="none" stroke="#757575" d="M88.53,-173.5C113.45,-173.5 149.27,-173.5 181.39,-173.5"/>
<polygon fill="#757575" stroke="#757575" points="181.67,-177 191.67,-173.5 181.67,-170 181.67,-177"/>
</g>
<!-- OffscreenDecodeWorkerHelper.js -->
<g id="node5" class="node">
<title>OffscreenDecodeWorkerHelper.js</title>
<path fill="none" stroke="#c6c5fe" d="M358.33,-347C358.33,-347 155.67,-347 155.67,-347 151.83,-347 148,-343.17 148,-339.33 148,-339.33 148,-331.67 148,-331.67 148,-327.83 151.83,-324 155.67,-324 155.67,-324 358.33,-324 358.33,-324 362.17,-324 366,-327.83 366,-331.67 366,-331.67 366,-339.33 366,-339.33 366,-343.17 362.17,-347 358.33,-347"/>
<text text-anchor="middle" x="257" y="-331.8" font-family="Arial" font-size="14.00" fill="#c6c5fe">OffscreenDecodeWorkerHelper.js</text>
</g>
<!-- Client.js&#45;&gt;OffscreenDecodeWorkerHelper.js -->
<g id="edge4" class="edge">
<title>Client.js&#45;&gt;OffscreenDecodeWorkerHelper.js</title>
<path fill="none" stroke="#757575" d="M88.76,-179.53C97.26,-182.5 105.8,-186.92 112,-193.5 150.47,-234.34 106.45,-276.8 148,-314.5 149.51,-315.87 151.09,-317.17 152.71,-318.39"/>
<polygon fill="#757575" stroke="#757575" points="150.97,-321.42 161.27,-323.89 154.75,-315.54 150.97,-321.42"/>
</g>
<!-- Protocol.js -->
<g id="node6" class="node">
<title>Protocol.js</title>
<path fill="none" stroke="#c6c5fe" d="M289.33,-144C289.33,-144 224.67,-144 224.67,-144 220.83,-144 217,-140.17 217,-136.33 217,-136.33 217,-128.67 217,-128.67 217,-124.83 220.83,-121 224.67,-121 224.67,-121 289.33,-121 289.33,-121 293.17,-121 297,-124.83 297,-128.67 297,-128.67 297,-136.33 297,-136.33 297,-140.17 293.17,-144 289.33,-144"/>
<text text-anchor="middle" x="257" y="-128.8" font-family="Arial" font-size="14.00" fill="#c6c5fe">Protocol.js</text>
</g>
<!-- Client.js&#45;&gt;Protocol.js -->
<g id="edge5" class="edge">
<title>Client.js&#45;&gt;Protocol.js</title>
<path fill="none" stroke="#757575" d="M88.51,-165.87C106,-161.73 128.16,-156.62 148,-152.5 167.22,-148.51 188.44,-144.49 206.95,-141.12"/>
<polygon fill="#757575" stroke="#757575" points="207.71,-144.54 216.93,-139.31 206.46,-137.65 207.71,-144.54"/>
</g>
<!-- Utilities.js -->
<g id="node7" class="node">
<title>Utilities.js</title>
<path fill="none" stroke="#cfffac" d="M490.83,-144C490.83,-144 432.17,-144 432.17,-144 428.33,-144 424.5,-140.17 424.5,-136.33 424.5,-136.33 424.5,-128.67 424.5,-128.67 424.5,-124.83 428.33,-121 432.17,-121 432.17,-121 490.83,-121 490.83,-121 494.67,-121 498.5,-124.83 498.5,-128.67 498.5,-128.67 498.5,-136.33 498.5,-136.33 498.5,-140.17 494.67,-144 490.83,-144"/>
<text text-anchor="middle" x="461.5" y="-128.8" font-family="Arial" font-size="14.00" fill="#cfffac">Utilities.js</text>
</g>
<!-- Client.js&#45;&gt;Utilities.js -->
<g id="edge6" class="edge">
<title>Client.js&#45;&gt;Utilities.js</title>
<path fill="none" stroke="#757575" d="M68.96,-161.77C85.24,-146.71 116.03,-121.36 148,-111.5 239.31,-83.35 352.5,-103.74 414.52,-119.29"/>
<polygon fill="#757575" stroke="#757575" points="413.83,-122.73 424.38,-121.84 415.57,-115.95 413.83,-122.73"/>
</g>
<!-- Window.js -->
<g id="node8" class="node">
<title>Window.js</title>
<path fill="none" stroke="#c6c5fe" d="M288.33,-226C288.33,-226 225.67,-226 225.67,-226 221.83,-226 218,-222.17 218,-218.33 218,-218.33 218,-210.67 218,-210.67 218,-206.83 221.83,-203 225.67,-203 225.67,-203 288.33,-203 288.33,-203 292.17,-203 296,-206.83 296,-210.67 296,-210.67 296,-218.33 296,-218.33 296,-222.17 292.17,-226 288.33,-226"/>
<text text-anchor="middle" x="257" y="-210.8" font-family="Arial" font-size="14.00" fill="#c6c5fe">Window.js</text>
</g>
<!-- Client.js&#45;&gt;Window.js -->
<g id="edge7" class="edge">
<title>Client.js&#45;&gt;Window.js</title>
<path fill="none" stroke="#757575" d="M88.55,-180.63C106.04,-184.54 128.2,-189.4 148,-193.5 167.57,-197.55 189.18,-201.8 207.9,-205.41"/>
<polygon fill="#757575" stroke="#757575" points="207.49,-208.89 217.97,-207.34 208.81,-202.02 207.49,-208.89"/>
</g>
<!-- MediaSourceUtil.js&#45;&gt;Utilities.js -->
<g id="edge10" class="edge">
<title>MediaSourceUtil.js&#45;&gt;Utilities.js</title>
<path fill="none" stroke="#757575" d="M318.3,-161.96C333.85,-158.93 350.56,-155.64 366,-152.5 381.77,-149.3 399,-145.69 414.38,-142.42"/>
<polygon fill="#757575" stroke="#757575" points="415.13,-145.84 424.18,-140.33 413.67,-138.99 415.13,-145.84"/>
</g>
<!-- ImageDecoder.js -->
<g id="node11" class="node">
<title>ImageDecoder.js</title>
<path fill="none" stroke="#c6c5fe" d="M513.33,-347C513.33,-347 409.67,-347 409.67,-347 405.83,-347 402,-343.17 402,-339.33 402,-339.33 402,-331.67 402,-331.67 402,-327.83 405.83,-324 409.67,-324 409.67,-324 513.33,-324 513.33,-324 517.17,-324 521,-327.83 521,-331.67 521,-331.67 521,-339.33 521,-339.33 521,-343.17 517.17,-347 513.33,-347"/>
<text text-anchor="middle" x="461.5" y="-331.8" font-family="Arial" font-size="14.00" fill="#c6c5fe">ImageDecoder.js</text>
</g>
<!-- OffscreenDecodeWorkerHelper.js&#45;&gt;ImageDecoder.js -->
<g id="edge15" class="edge">
<title>OffscreenDecodeWorkerHelper.js&#45;&gt;ImageDecoder.js</title>
<path fill="none" stroke="#757575" d="M366.07,-335.5C374.85,-335.5 383.55,-335.5 391.93,-335.5"/>
<polygon fill="#757575" stroke="#757575" points="391.96,-339 401.96,-335.5 391.96,-332 391.96,-339"/>
</g>
<!-- VideoDecoder.js -->
<g id="node16" class="node">
<title>VideoDecoder.js</title>
<path fill="none" stroke="#cfffac" d="M511.33,-306C511.33,-306 411.67,-306 411.67,-306 407.83,-306 404,-302.17 404,-298.33 404,-298.33 404,-290.67 404,-290.67 404,-286.83 407.83,-283 411.67,-283 411.67,-283 511.33,-283 511.33,-283 515.17,-283 519,-286.83 519,-290.67 519,-290.67 519,-298.33 519,-298.33 519,-302.17 515.17,-306 511.33,-306"/>
<text text-anchor="middle" x="461.5" y="-290.8" font-family="Arial" font-size="14.00" fill="#cfffac">VideoDecoder.js</text>
</g>
<!-- OffscreenDecodeWorkerHelper.js&#45;&gt;VideoDecoder.js -->
<g id="edge16" class="edge">
<title>OffscreenDecodeWorkerHelper.js&#45;&gt;VideoDecoder.js</title>
<path fill="none" stroke="#757575" d="M318.3,-323.96C333.85,-320.93 350.56,-317.64 366,-314.5 375.86,-312.5 386.29,-310.34 396.48,-308.2"/>
<polygon fill="#757575" stroke="#757575" points="397.5,-311.56 406.56,-306.08 396.05,-304.71 397.5,-311.56"/>
</g>
<!-- Protocol.js&#45;&gt;Utilities.js -->
<g id="edge17" class="edge">
<title>Protocol.js&#45;&gt;Utilities.js</title>
<path fill="none" stroke="#757575" d="M297.04,-132.5C330.52,-132.5 378.8,-132.5 414.21,-132.5"/>
<polygon fill="#757575" stroke="#757575" points="414.3,-136 424.3,-132.5 414.3,-129 414.3,-136"/>
</g>
<!-- Window.js&#45;&gt;Constants.js -->
<g id="edge18" class="edge">
<title>Window.js&#45;&gt;Constants.js</title>
<path fill="none" stroke="#757575" d="M296.09,-221.84C327.06,-227.8 371.16,-236.29 405.89,-242.98"/>
<polygon fill="#757575" stroke="#757575" points="405.39,-246.45 415.87,-244.91 406.72,-239.58 405.39,-246.45"/>
</g>
<!-- Window.js&#45;&gt;Utilities.js -->
<g id="edge20" class="edge">
<title>Window.js&#45;&gt;Utilities.js</title>
<path fill="none" stroke="#757575" d="M296,-212.47C317.54,-210.04 344.42,-204.78 366,-193.5 385.78,-183.16 383.52,-171 402,-158.5 407.44,-154.82 413.48,-151.46 419.56,-148.46"/>
<polygon fill="#757575" stroke="#757575" points="421.46,-151.43 429.06,-144.05 418.51,-145.08 421.46,-151.43"/>
</g>
<!-- RgbHelpers.js -->
<g id="node10" class="node">
<title>RgbHelpers.js</title>
<path fill="none" stroke="#cfffac" d="M650.33,-224C650.33,-224 564.67,-224 564.67,-224 560.83,-224 557,-220.17 557,-216.33 557,-216.33 557,-208.67 557,-208.67 557,-204.83 560.83,-201 564.67,-201 564.67,-201 650.33,-201 650.33,-201 654.17,-201 658,-204.83 658,-208.67 658,-208.67 658,-216.33 658,-216.33 658,-220.17 654.17,-224 650.33,-224"/>
<text text-anchor="middle" x="607.5" y="-208.8" font-family="Arial" font-size="14.00" fill="#cfffac">RgbHelpers.js</text>
</g>
<!-- Window.js&#45;&gt;RgbHelpers.js -->
<g id="edge19" class="edge">
<title>Window.js&#45;&gt;RgbHelpers.js</title>
<path fill="none" stroke="#757575" d="M296.41,-206.16C347.71,-196.15 441.37,-181.86 521,-191.5 533.21,-192.98 546.19,-195.6 558.25,-198.5"/>
<polygon fill="#757575" stroke="#757575" points="557.58,-201.94 568.13,-200.99 559.29,-195.16 557.58,-201.94"/>
</g>
<!-- DecodeWorker.js -->
<g id="node9" class="node">
<title>DecodeWorker.js</title>
<path fill="none" stroke="#c6c5fe" d="M513.33,-224C513.33,-224 409.67,-224 409.67,-224 405.83,-224 402,-220.17 402,-216.33 402,-216.33 402,-208.67 402,-208.67 402,-204.83 405.83,-201 409.67,-201 409.67,-201 513.33,-201 513.33,-201 517.17,-201 521,-204.83 521,-208.67 521,-208.67 521,-216.33 521,-216.33 521,-220.17 517.17,-224 513.33,-224"/>
<text text-anchor="middle" x="461.5" y="-208.8" font-family="Arial" font-size="14.00" fill="#c6c5fe">DecodeWorker.js</text>
</g>
<!-- DecodeWorker.js&#45;&gt;RgbHelpers.js -->
<g id="edge8" class="edge">
<title>DecodeWorker.js&#45;&gt;RgbHelpers.js</title>
<path fill="none" stroke="#757575" d="M521.07,-212.5C529.48,-212.5 538.15,-212.5 546.59,-212.5"/>
<polygon fill="#757575" stroke="#757575" points="546.74,-216 556.74,-212.5 546.74,-209 546.74,-216"/>
</g>
<!-- ImageDecoder.js&#45;&gt;RgbHelpers.js -->
<g id="edge9" class="edge">
<title>ImageDecoder.js&#45;&gt;RgbHelpers.js</title>
<path fill="none" stroke="#757575" d="M503.53,-323.93C509.65,-321.32 515.69,-318.2 521,-314.5 552.82,-292.31 579.67,-255.36 594.39,-232.55"/>
<polygon fill="#757575" stroke="#757575" points="597.41,-234.33 599.76,-224.01 591.48,-230.61 597.41,-234.33"/>
</g>
<!-- Menu.js -->
<g id="node12" class="node">
<title>Menu.js</title>
<path fill="none" stroke="#cfffac" d="M80.83,-226C80.83,-226 31.17,-226 31.17,-226 27.33,-226 23.5,-222.17 23.5,-218.33 23.5,-218.33 23.5,-210.67 23.5,-210.67 23.5,-206.83 27.33,-203 31.17,-203 31.17,-203 80.83,-203 80.83,-203 84.67,-203 88.5,-206.83 88.5,-210.67 88.5,-210.67 88.5,-218.33 88.5,-218.33 88.5,-222.17 84.67,-226 80.83,-226"/>
<text text-anchor="middle" x="56" y="-210.8" font-family="Arial" font-size="14.00" fill="#cfffac">Menu.js</text>
</g>
<!-- MenuCustom.js -->
<g id="node13" class="node">
<title>MenuCustom.js</title>
<path fill="none" stroke="#cfffac" d="M104.33,-267C104.33,-267 7.67,-267 7.67,-267 3.83,-267 0,-263.17 0,-259.33 0,-259.33 0,-251.67 0,-251.67 0,-247.83 3.83,-244 7.67,-244 7.67,-244 104.33,-244 104.33,-244 108.17,-244 112,-247.83 112,-251.67 112,-251.67 112,-259.33 112,-259.33 112,-263.17 108.17,-267 104.33,-267"/>
<text text-anchor="middle" x="56" y="-251.8" font-family="Arial" font-size="14.00" fill="#cfffac">MenuCustom.js</text>
</g>
<!-- Notifications.js -->
<g id="node14" class="node">
<title>Notifications.js</title>
<path fill="none" stroke="#c6c5fe" d="M301.33,-23C301.33,-23 212.67,-23 212.67,-23 208.83,-23 205,-19.17 205,-15.33 205,-15.33 205,-7.67 205,-7.67 205,-3.83 208.83,0 212.67,0 212.67,0 301.33,0 301.33,0 305.17,0 309,-3.83 309,-7.67 309,-7.67 309,-15.33 309,-15.33 309,-19.17 305.17,-23 301.33,-23"/>
<text text-anchor="middle" x="257" y="-7.8" font-family="Arial" font-size="14.00" fill="#c6c5fe">Notifications.js</text>
</g>
<!-- Notifications.js&#45;&gt;Utilities.js -->
<g id="edge11" class="edge">
<title>Notifications.js&#45;&gt;Utilities.js</title>
<path fill="none" stroke="#757575" d="M309.16,-14.29C327.92,-16.99 348.77,-22.07 366,-31.5 401.7,-51.04 431.55,-88.99 447.65,-112.39"/>
<polygon fill="#757575" stroke="#757575" points="444.85,-114.5 453.32,-120.87 450.67,-110.61 444.85,-114.5"/>
</g>
<!-- OffscreenDecodeWorker.js -->
<g id="node15" class="node">
<title>OffscreenDecodeWorker.js</title>
<path fill="none" stroke="#c6c5fe" d="M338.83,-306C338.83,-306 175.17,-306 175.17,-306 171.33,-306 167.5,-302.17 167.5,-298.33 167.5,-298.33 167.5,-290.67 167.5,-290.67 167.5,-286.83 171.33,-283 175.17,-283 175.17,-283 338.83,-283 338.83,-283 342.67,-283 346.5,-286.83 346.5,-290.67 346.5,-290.67 346.5,-298.33 346.5,-298.33 346.5,-302.17 342.67,-306 338.83,-306"/>
<text text-anchor="middle" x="257" y="-290.8" font-family="Arial" font-size="14.00" fill="#c6c5fe">OffscreenDecodeWorker.js</text>
</g>
<!-- OffscreenDecodeWorker.js&#45;&gt;Constants.js -->
<g id="edge12" class="edge">
<title>OffscreenDecodeWorker.js&#45;&gt;Constants.js</title>
<path fill="none" stroke="#757575" d="M314.95,-282.97C343.39,-277.21 377.64,-270.28 405.77,-264.58"/>
<polygon fill="#757575" stroke="#757575" points="406.73,-267.96 415.84,-262.54 405.34,-261.1 406.73,-267.96"/>
</g>
<!-- OffscreenDecodeWorker.js&#45;&gt;ImageDecoder.js -->
<g id="edge13" class="edge">
<title>OffscreenDecodeWorker.js&#45;&gt;ImageDecoder.js</title>
<path fill="none" stroke="#757575" d="M322.32,-306.02C336.71,-308.71 351.89,-311.63 366,-314.5 377.08,-316.76 388.87,-319.28 400.22,-321.77"/>
<polygon fill="#757575" stroke="#757575" points="399.54,-325.2 410.06,-323.94 401.05,-318.37 399.54,-325.2"/>
</g>
<!-- OffscreenDecodeWorker.js&#45;&gt;VideoDecoder.js -->
<g id="edge14" class="edge">
<title>OffscreenDecodeWorker.js&#45;&gt;VideoDecoder.js</title>
<path fill="none" stroke="#757575" d="M346.52,-294.5C362.35,-294.5 378.59,-294.5 393.68,-294.5"/>
<polygon fill="#757575" stroke="#757575" points="393.92,-298 403.92,-294.5 393.92,-291 393.92,-298"/>
</g>
</g>
</svg>
