<?xml version="1.0" encoding="UTF-8" standalone="no"?>
<!DOCTYPE svg PUBLIC "-//W3C//DTD SVG 1.1//EN"
 "http://www.w3.org/Graphics/SVG/1.1/DTD/svg11.dtd">
<!-- Generated by graphviz version 2.50.0 (0)
 -->
<!-- Title: G Pages: 1 -->
<svg width="873pt" height="668pt"
 viewBox="0.00 0.00 873.20 668.20" xmlns="http://www.w3.org/2000/svg" xmlns:xlink="http://www.w3.org/1999/xlink">
<g id="graph0" class="graph" transform="scale(1 1) rotate(0) translate(21.6 646.6)">
<title>G</title>
<polygon fill="#111111" stroke="transparent" points="-21.6,21.6 -21.6,-646.6 851.6,-646.6 851.6,21.6 -21.6,21.6"/>
<!-- Client.js -->
<g id="node1" class="node">
<title>Client.js</title>
<path fill="none" stroke="#c6c5fe" d="M211.83,-291C211.83,-291 162.17,-291 162.17,-291 158.33,-291 154.5,-287.17 154.5,-283.33 154.5,-283.33 154.5,-275.67 154.5,-275.67 154.5,-271.83 158.33,-268 162.17,-268 162.17,-268 211.83,-268 211.83,-268 215.67,-268 219.5,-271.83 219.5,-275.67 219.5,-275.67 219.5,-283.33 219.5,-283.33 219.5,-287.17 215.67,-291 211.83,-291"/>
<text text-anchor="middle" x="187" y="-275.8" font-family="Arial" font-size="14.00" fill="#c6c5fe">Client.js</text>
</g>
<!-- Constants.js -->
<g id="node2" class="node">
<title>Constants.js</title>
<path fill="none" stroke="#cfffac" d="M650.83,-299C650.83,-299 575.17,-299 575.17,-299 571.33,-299 567.5,-295.17 567.5,-291.33 567.5,-291.33 567.5,-283.67 567.5,-283.67 567.5,-279.83 571.33,-276 575.17,-276 575.17,-276 650.83,-276 650.83,-276 654.67,-276 658.5,-279.83 658.5,-283.67 658.5,-283.67 658.5,-291.33 658.5,-291.33 658.5,-295.17 654.67,-299 650.83,-299"/>
<text text-anchor="middle" x="613" y="-283.8" font-family="Arial" font-size="14.00" fill="#cfffac">Constants.js</text>
</g>
<!-- Client.js&#45;&gt;Constants.js -->
<g id="edge1" class="edge">
<title>Client.js&#45;&gt;Constants.js</title>
<path fill="none" stroke="#757575" d="M215.31,-291.04C233.09,-297.91 256.99,-305.97 279,-309.5 374.66,-324.86 400.54,-318.64 497,-309.5 516.9,-307.61 538.48,-303.93 557.51,-300.11"/>
<polygon fill="#757575" stroke="#757575" points="558.41,-303.5 567.5,-298.05 557,-296.64 558.41,-303.5"/>
</g>
<!-- Keycodes.js -->
<g id="node3" class="node">
<title>Keycodes.js</title>
<path fill="none" stroke="#cfffac" d="M424.83,-102C424.83,-102 351.17,-102 351.17,-102 347.33,-102 343.5,-98.17 343.5,-94.33 343.5,-94.33 343.5,-86.67 343.5,-86.67 343.5,-82.83 347.33,-79 351.17,-79 351.17,-79 424.83,-79 424.83,-79 428.67,-79 432.5,-82.83 432.5,-86.67 432.5,-86.67 432.5,-94.33 432.5,-94.33 432.5,-98.17 428.67,-102 424.83,-102"/>
<text text-anchor="middle" x="388" y="-86.8" font-family="Arial" font-size="14.00" fill="#cfffac">Keycodes.js</text>
</g>
<!-- Client.js&#45;&gt;Keycodes.js -->
<g id="edge2" class="edge">
<title>Client.js&#45;&gt;Keycodes.js</title>
<path fill="none" stroke="#757575" d="M208.44,-267.92C219.43,-261.1 232.78,-251.8 243,-241.5 263.06,-221.28 260.32,-210 279,-188.5 305.62,-157.86 341.25,-127.16 364.17,-108.5"/>
<polygon fill="#757575" stroke="#757575" points="366.41,-111.19 372,-102.19 362.02,-105.74 366.41,-111.19"/>
</g>
<!-- MediaSourceUtil.js -->
<g id="node4" class="node">
<title>MediaSourceUtil.js</title>
<path fill="none" stroke="#c6c5fe" d="M445.33,-220C445.33,-220 330.67,-220 330.67,-220 326.83,-220 323,-216.17 323,-212.33 323,-212.33 323,-204.67 323,-204.67 323,-200.83 326.83,-197 330.67,-197 330.67,-197 445.33,-197 445.33,-197 449.17,-197 453,-200.83 453,-204.67 453,-204.67 453,-212.33 453,-212.33 453,-216.17 449.17,-220 445.33,-220"/>
<text text-anchor="middle" x="388" y="-204.8" font-family="Arial" font-size="14.00" fill="#c6c5fe">MediaSourceUtil.js</text>
</g>
<!-- Client.js&#45;&gt;MediaSourceUtil.js -->
<g id="edge3" class="edge">
<title>Client.js&#45;&gt;MediaSourceUtil.js</title>
<path fill="none" stroke="#757575" d="M208.03,-267.97C226.1,-257.97 253.65,-243.69 279,-234.5 291.57,-229.94 305.25,-225.95 318.52,-222.54"/>
<polygon fill="#757575" stroke="#757575" points="319.7,-225.86 328.57,-220.06 318.02,-219.06 319.7,-225.86"/>
</g>
<!-- OffscreenDecodeWorkerHelper.js -->
<g id="node5" class="node">
<title>OffscreenDecodeWorkerHelper.js</title>
<path fill="none" stroke="#c6c5fe" d="M489.33,-584C489.33,-584 286.67,-584 286.67,-584 282.83,-584 279,-580.17 279,-576.33 279,-576.33 279,-568.67 279,-568.67 279,-564.83 282.83,-561 286.67,-561 286.67,-561 489.33,-561 489.33,-561 493.17,-561 497,-564.83 497,-568.67 497,-568.67 497,-576.33 497,-576.33 497,-580.17 493.17,-584 489.33,-584"/>
<text text-anchor="middle" x="388" y="-568.8" font-family="Arial" font-size="14.00" fill="#c6c5fe">OffscreenDecodeWorkerHelper.js</text>
</g>
<!-- Client.js&#45;&gt;OffscreenDecodeWorkerHelper.js -->
<g id="edge4" class="edge">
<title>Client.js&#45;&gt;OffscreenDecodeWorkerHelper.js</title>
<path fill="none" stroke="#757575" d="M187.99,-291.03C188.62,-333.31 196.84,-481.01 279,-552.5 280.17,-553.52 281.37,-554.49 282.61,-555.42"/>
<polygon fill="#757575" stroke="#757575" points="280.87,-558.47 291.17,-560.96 284.68,-552.59 280.87,-558.47"/>
</g>
<!-- Protocol.js -->
<g id="node6" class="node">
<title>Protocol.js</title>
<path fill="none" stroke="#c6c5fe" d="M420.33,-381C420.33,-381 355.67,-381 355.67,-381 351.83,-381 348,-377.17 348,-373.33 348,-373.33 348,-365.67 348,-365.67 348,-361.83 351.83,-358 355.67,-358 355.67,-358 420.33,-358 420.33,-358 424.17,-358 428,-361.83 428,-365.67 428,-365.67 428,-373.33 428,-373.33 428,-377.17 424.17,-381 420.33,-381"/>
<text text-anchor="middle" x="388" y="-365.8" font-family="Arial" font-size="14.00" fill="#c6c5fe">Protocol.js</text>
</g>
<!-- Client.js&#45;&gt;Protocol.js -->
<g id="edge5" class="edge">
<title>Client.js&#45;&gt;Protocol.js</title>
<path fill="none" stroke="#757575" d="M201.54,-291.24C218.52,-305.39 249.07,-328.94 279,-342.5 297.51,-350.88 319.02,-356.93 337.96,-361.15"/>
<polygon fill="#757575" stroke="#757575" points="337.37,-364.61 347.88,-363.25 338.82,-357.76 337.37,-364.61"/>
</g>
<!-- Utilities.js -->
<g id="node7" class="node">
<title>Utilities.js</title>
<path fill="none" stroke="#cfffac" d="M642.33,-219C642.33,-219 583.67,-219 583.67,-219 579.83,-219 576,-215.17 576,-211.33 576,-211.33 576,-203.67 576,-203.67 576,-199.83 579.83,-196 583.67,-196 583.67,-196 642.33,-196 642.33,-196 646.17,-196 650,-199.83 650,-203.67 650,-203.67 650,-211.33 650,-211.33 650,-215.17 646.17,-219 642.33,-219"/>
<text text-anchor="middle" x="613" y="-203.8" font-family="Arial" font-size="14.00" fill="#cfffac">Utilities.js</text>
</g>
<!-- Client.js&#45;&gt;Utilities.js -->
<g id="edge6" class="edge">
<title>Client.js&#45;&gt;Utilities.js</title>
<path fill="none" stroke="#757575" d="M219.63,-274.69C275.63,-266.1 395.85,-247.35 497,-229.5 519.71,-225.49 544.87,-220.72 565.86,-216.64"/>
<polygon fill="#757575" stroke="#757575" points="566.65,-220.05 575.79,-214.7 565.31,-213.18 566.65,-220.05"/>
</g>
<!-- Window.js -->
<g id="node8" class="node">
<title>Window.js</title>
<path fill="none" stroke="#c6c5fe" d="M419.33,-300C419.33,-300 356.67,-300 356.67,-300 352.83,-300 349,-296.17 349,-292.33 349,-292.33 349,-284.67 349,-284.67 349,-280.83 352.83,-277 356.67,-277 356.67,-277 419.33,-277 419.33,-277 423.17,-277 427,-280.83 427,-284.67 427,-284.67 427,-292.33 427,-292.33 427,-296.17 423.17,-300 419.33,-300"/>
<text text-anchor="middle" x="388" y="-284.8" font-family="Arial" font-size="14.00" fill="#c6c5fe">Window.js</text>
</g>
<!-- Client.js&#45;&gt;Window.js -->
<g id="edge7" class="edge">
<title>Client.js&#45;&gt;Window.js</title>
<path fill="none" stroke="#757575" d="M219.53,-280.93C251.59,-282.38 301.67,-284.64 338.73,-286.32"/>
<polygon fill="#757575" stroke="#757575" points="338.66,-289.82 348.81,-286.77 338.98,-282.82 338.66,-289.82"/>
</g>
<!-- MediaSourceUtil.js&#45;&gt;Utilities.js -->
<g id="edge21" class="edge">
<title>MediaSourceUtil.js&#45;&gt;Utilities.js</title>
<path fill="none" stroke="#757575" d="M453.2,-208.21C489.19,-208.05 533.26,-207.85 565.83,-207.71"/>
<polygon fill="#757575" stroke="#757575" points="565.99,-211.21 575.98,-207.66 565.96,-204.21 565.99,-211.21"/>
</g>
<!-- ImageDecoder.js -->
<g id="node14" class="node">
<title>ImageDecoder.js</title>
<path fill="none" stroke="#c6c5fe" d="M664.83,-625C664.83,-625 561.17,-625 561.17,-625 557.33,-625 553.5,-621.17 553.5,-617.33 553.5,-617.33 553.5,-609.67 553.5,-609.67 553.5,-605.83 557.33,-602 561.17,-602 561.17,-602 664.83,-602 664.83,-602 668.67,-602 672.5,-605.83 672.5,-609.67 672.5,-609.67 672.5,-617.33 672.5,-617.33 672.5,-621.17 668.67,-625 664.83,-625"/>
<text text-anchor="middle" x="613" y="-609.8" font-family="Arial" font-size="14.00" fill="#c6c5fe">ImageDecoder.js</text>
</g>
<!-- OffscreenDecodeWorkerHelper.js&#45;&gt;ImageDecoder.js -->
<g id="edge28" class="edge">
<title>OffscreenDecodeWorkerHelper.js&#45;&gt;ImageDecoder.js</title>
<path fill="none" stroke="#757575" d="M451.71,-584.03C480.17,-589.26 513.92,-595.47 543.09,-600.83"/>
<polygon fill="#757575" stroke="#757575" points="542.74,-604.32 553.2,-602.69 544,-597.44 542.74,-604.32"/>
</g>
<!-- VideoDecoder.js -->
<g id="node21" class="node">
<title>VideoDecoder.js</title>
<path fill="none" stroke="#cfffac" d="M662.83,-584C662.83,-584 563.17,-584 563.17,-584 559.33,-584 555.5,-580.17 555.5,-576.33 555.5,-576.33 555.5,-568.67 555.5,-568.67 555.5,-564.83 559.33,-561 563.17,-561 563.17,-561 662.83,-561 662.83,-561 666.67,-561 670.5,-564.83 670.5,-568.67 670.5,-568.67 670.5,-576.33 670.5,-576.33 670.5,-580.17 666.67,-584 662.83,-584"/>
<text text-anchor="middle" x="613" y="-568.8" font-family="Arial" font-size="14.00" fill="#cfffac">VideoDecoder.js</text>
</g>
<!-- OffscreenDecodeWorkerHelper.js&#45;&gt;VideoDecoder.js -->
<g id="edge29" class="edge">
<title>OffscreenDecodeWorkerHelper.js&#45;&gt;VideoDecoder.js</title>
<path fill="none" stroke="#757575" d="M497.23,-572.5C513.55,-572.5 529.97,-572.5 545.07,-572.5"/>
<polygon fill="#757575" stroke="#757575" points="545.31,-576 555.31,-572.5 545.31,-569 545.31,-576"/>
</g>
<!-- Protocol.js&#45;&gt;Utilities.js -->
<g id="edge30" class="edge">
<title>Protocol.js&#45;&gt;Utilities.js</title>
<path fill="none" stroke="#757575" d="M415.94,-357.84C438.84,-347.18 471.91,-329.98 497,-309.5 516.05,-293.95 515.11,-284.36 533,-267.5 549.6,-251.85 570.18,-236.33 586.16,-225"/>
<polygon fill="#757575" stroke="#757575" points="588.33,-227.76 594.52,-219.16 584.32,-222.02 588.33,-227.76"/>
</g>
<!-- lib/lz4.js -->
<g id="node13" class="node">
<title>lib/lz4.js</title>
<path fill="none" stroke="#cfffac" d="M637.83,-502C637.83,-502 588.17,-502 588.17,-502 584.33,-502 580.5,-498.17 580.5,-494.33 580.5,-494.33 580.5,-486.67 580.5,-486.67 580.5,-482.83 584.33,-479 588.17,-479 588.17,-479 637.83,-479 637.83,-479 641.67,-479 645.5,-482.83 645.5,-486.67 645.5,-486.67 645.5,-494.33 645.5,-494.33 645.5,-498.17 641.67,-502 637.83,-502"/>
<text text-anchor="middle" x="613" y="-486.8" font-family="Arial" font-size="14.00" fill="#cfffac">lib/lz4.js</text>
</g>
<!-- Protocol.js&#45;&gt;lib/lz4.js -->
<g id="edge33" class="edge">
<title>Protocol.js&#45;&gt;lib/lz4.js</title>
<path fill="none" stroke="#757575" d="M410.38,-381.1C450.26,-402.74 536.07,-449.3 581.82,-474.13"/>
<polygon fill="#757575" stroke="#757575" points="580.22,-477.24 590.68,-478.93 583.56,-471.09 580.22,-477.24"/>
</g>
<!-- lib/brotli_decode.js -->
<g id="node22" class="node">
<title>lib/brotli_decode.js</title>
<path fill="none" stroke="#cfffac" d="M669.33,-381C669.33,-381 556.67,-381 556.67,-381 552.83,-381 549,-377.17 549,-373.33 549,-373.33 549,-365.67 549,-365.67 549,-361.83 552.83,-358 556.67,-358 556.67,-358 669.33,-358 669.33,-358 673.17,-358 677,-361.83 677,-365.67 677,-365.67 677,-373.33 677,-373.33 677,-377.17 673.17,-381 669.33,-381"/>
<text text-anchor="middle" x="613" y="-365.8" font-family="Arial" font-size="14.00" fill="#cfffac">lib/brotli_decode.js</text>
</g>
<!-- Protocol.js&#45;&gt;lib/brotli_decode.js -->
<g id="edge31" class="edge">
<title>Protocol.js&#45;&gt;lib/brotli_decode.js</title>
<path fill="none" stroke="#757575" d="M428.1,-369.5C458.58,-369.5 501.79,-369.5 538.67,-369.5"/>
<polygon fill="#757575" stroke="#757575" points="538.88,-373 548.88,-369.5 538.88,-366 538.88,-373"/>
</g>
<!-- lib/forge.js -->
<g id="node23" class="node">
<title>lib/forge.js</title>
<path fill="none" stroke="#cfffac" d="M644.33,-340C644.33,-340 581.67,-340 581.67,-340 577.83,-340 574,-336.17 574,-332.33 574,-332.33 574,-324.67 574,-324.67 574,-320.83 577.83,-317 581.67,-317 581.67,-317 644.33,-317 644.33,-317 648.17,-317 652,-320.83 652,-324.67 652,-324.67 652,-332.33 652,-332.33 652,-336.17 648.17,-340 644.33,-340"/>
<text text-anchor="middle" x="613" y="-324.8" font-family="Arial" font-size="14.00" fill="#cfffac">lib/forge.js</text>
</g>
<!-- Protocol.js&#45;&gt;lib/forge.js -->
<g id="edge32" class="edge">
<title>Protocol.js&#45;&gt;lib/forge.js</title>
<path fill="none" stroke="#757575" d="M428.1,-362.31C465.87,-355.37 523.17,-344.83 563.76,-337.37"/>
<polygon fill="#757575" stroke="#757575" points="564.49,-340.79 573.69,-335.54 563.22,-333.91 564.49,-340.79"/>
</g>
<!-- lib/rencode.js -->
<g id="node24" class="node">
<title>lib/rencode.js</title>
<path fill="none" stroke="#cfffac" d="M653.33,-422C653.33,-422 572.67,-422 572.67,-422 568.83,-422 565,-418.17 565,-414.33 565,-414.33 565,-406.67 565,-406.67 565,-402.83 568.83,-399 572.67,-399 572.67,-399 653.33,-399 653.33,-399 657.17,-399 661,-402.83 661,-406.67 661,-406.67 661,-414.33 661,-414.33 661,-418.17 657.17,-422 653.33,-422"/>
<text text-anchor="middle" x="613" y="-406.8" font-family="Arial" font-size="14.00" fill="#cfffac">lib/rencode.js</text>
</g>
<!-- Protocol.js&#45;&gt;lib/rencode.js -->
<g id="edge34" class="edge">
<title>Protocol.js&#45;&gt;lib/rencode.js</title>
<path fill="none" stroke="#757575" d="M428.1,-376.69C463.15,-383.13 515.01,-392.67 554.73,-399.97"/>
<polygon fill="#757575" stroke="#757575" points="554.34,-403.46 564.81,-401.82 555.61,-396.57 554.34,-403.46"/>
</g>
<!-- Window.js&#45;&gt;Constants.js -->
<g id="edge35" class="edge">
<title>Window.js&#45;&gt;Constants.js</title>
<path fill="none" stroke="#757575" d="M427.08,-288.33C462.79,-288.17 516.57,-287.93 556.94,-287.75"/>
<polygon fill="#757575" stroke="#757575" points="557.18,-291.25 567.16,-287.7 557.15,-284.25 557.18,-291.25"/>
</g>
<!-- Window.js&#45;&gt;Utilities.js -->
<g id="edge37" class="edge">
<title>Window.js&#45;&gt;Utilities.js</title>
<path fill="none" stroke="#757575" d="M427.14,-283.54C448.48,-279.74 475.11,-273.27 497,-262.5 515.44,-253.43 514.95,-243.31 533,-233.5 543.3,-227.9 555.02,-223.23 566.21,-219.48"/>
<polygon fill="#757575" stroke="#757575" points="567.4,-222.77 575.87,-216.41 565.28,-216.1 567.4,-222.77"/>
</g>
<!-- RgbHelpers.js -->
<g id="node11" class="node">
<title>RgbHelpers.js</title>
<path fill="none" stroke="#cfffac" d="M822.33,-462C822.33,-462 736.67,-462 736.67,-462 732.83,-462 729,-458.17 729,-454.33 729,-454.33 729,-446.67 729,-446.67 729,-442.83 732.83,-439 736.67,-439 736.67,-439 822.33,-439 822.33,-439 826.17,-439 830,-442.83 830,-446.67 830,-446.67 830,-454.33 830,-454.33 830,-458.17 826.17,-462 822.33,-462"/>
<text text-anchor="middle" x="779.5" y="-446.8" font-family="Arial" font-size="14.00" fill="#cfffac">RgbHelpers.js</text>
</g>
<!-- Window.js&#45;&gt;RgbHelpers.js -->
<g id="edge36" class="edge">
<title>Window.js&#45;&gt;RgbHelpers.js</title>
<path fill="none" stroke="#757575" d="M427.07,-280.39C498.63,-266.01 649.88,-240.05 693,-267.5 749.78,-303.65 769.48,-388.47 775.79,-428.66"/>
<polygon fill="#757575" stroke="#757575" points="772.35,-429.32 777.23,-438.73 779.28,-428.33 772.35,-429.32"/>
</g>
<!-- ConnectPage.js -->
<g id="node9" class="node">
<title>ConnectPage.js</title>
<path fill="none" stroke="#c6c5fe" d="M235.33,-191C235.33,-191 138.67,-191 138.67,-191 134.83,-191 131,-187.17 131,-183.33 131,-183.33 131,-175.67 131,-175.67 131,-171.83 134.83,-168 138.67,-168 138.67,-168 235.33,-168 235.33,-168 239.17,-168 243,-171.83 243,-175.67 243,-175.67 243,-183.33 243,-183.33 243,-187.17 239.17,-191 235.33,-191"/>
<text text-anchor="middle" x="187" y="-175.8" font-family="Arial" font-size="14.00" fill="#c6c5fe">ConnectPage.js</text>
</g>
<!-- ConnectPage.js&#45;&gt;MediaSourceUtil.js -->
<g id="edge8" class="edge">
<title>ConnectPage.js&#45;&gt;MediaSourceUtil.js</title>
<path fill="none" stroke="#757575" d="M243.17,-187.54C264.71,-190.68 289.74,-194.33 312.82,-197.69"/>
<polygon fill="#757575" stroke="#757575" points="312.52,-201.18 322.92,-199.16 313.53,-194.26 312.52,-201.18"/>
</g>
<!-- ConnectPage.js&#45;&gt;OffscreenDecodeWorkerHelper.js -->
<g id="edge9" class="edge">
<title>ConnectPage.js&#45;&gt;OffscreenDecodeWorkerHelper.js</title>
<path fill="none" stroke="#757575" d="M232.28,-191.01C236.37,-193.57 240.08,-196.69 243,-200.5 290.84,-262.91 225.7,-494.69 279,-552.5 279.65,-553.21 280.32,-553.89 281,-554.56"/>
<polygon fill="#757575" stroke="#757575" points="278.89,-557.35 288.85,-560.97 283.32,-551.93 278.89,-557.35"/>
</g>
<!-- ConnectPage.js&#45;&gt;Utilities.js -->
<g id="edge10" class="edge">
<title>ConnectPage.js&#45;&gt;Utilities.js</title>
<path fill="none" stroke="#757575" d="M243.12,-178.87C305.04,-178.69 408.46,-179.94 497,-188.5 519.85,-190.71 545.03,-194.69 565.99,-198.44"/>
<polygon fill="#757575" stroke="#757575" points="565.44,-201.9 575.91,-200.26 566.7,-195.01 565.44,-201.9"/>
</g>
<!-- DecodeWorker.js -->
<g id="node10" class="node">
<title>DecodeWorker.js</title>
<path fill="none" stroke="#c6c5fe" d="M439.83,-502C439.83,-502 336.17,-502 336.17,-502 332.33,-502 328.5,-498.17 328.5,-494.33 328.5,-494.33 328.5,-486.67 328.5,-486.67 328.5,-482.83 332.33,-479 336.17,-479 336.17,-479 439.83,-479 439.83,-479 443.67,-479 447.5,-482.83 447.5,-486.67 447.5,-486.67 447.5,-494.33 447.5,-494.33 447.5,-498.17 443.67,-502 439.83,-502"/>
<text text-anchor="middle" x="388" y="-486.8" font-family="Arial" font-size="14.00" fill="#c6c5fe">DecodeWorker.js</text>
</g>
<!-- DecodeWorker.js&#45;&gt;RgbHelpers.js -->
<g id="edge11" class="edge">
<title>DecodeWorker.js&#45;&gt;RgbHelpers.js</title>
<path fill="none" stroke="#757575" d="M447.76,-481.57C473.83,-477.81 504.9,-473.59 533,-470.5 596.1,-463.55 668.56,-457.94 718.32,-454.45"/>
<polygon fill="#757575" stroke="#757575" points="718.85,-457.92 728.58,-453.73 718.36,-450.94 718.85,-457.92"/>
</g>
<!-- lib/broadway/Decoder.js -->
<g id="node12" class="node">
<title>lib/broadway/Decoder.js</title>
<path fill="none" stroke="#cfffac" d="M685.33,-543C685.33,-543 540.67,-543 540.67,-543 536.83,-543 533,-539.17 533,-535.33 533,-535.33 533,-527.67 533,-527.67 533,-523.83 536.83,-520 540.67,-520 540.67,-520 685.33,-520 685.33,-520 689.17,-520 693,-523.83 693,-527.67 693,-527.67 693,-535.33 693,-535.33 693,-539.17 689.17,-543 685.33,-543"/>
<text text-anchor="middle" x="613" y="-527.8" font-family="Arial" font-size="14.00" fill="#cfffac">lib/broadway/Decoder.js</text>
</g>
<!-- DecodeWorker.js&#45;&gt;lib/broadway/Decoder.js -->
<g id="edge12" class="edge">
<title>DecodeWorker.js&#45;&gt;lib/broadway/Decoder.js</title>
<path fill="none" stroke="#757575" d="M447.59,-501.27C475.65,-506.43 509.52,-512.66 539.22,-518.12"/>
<polygon fill="#757575" stroke="#757575" points="538.64,-521.57 549.11,-519.94 539.91,-514.69 538.64,-521.57"/>
</g>
<!-- DecodeWorker.js&#45;&gt;lib/lz4.js -->
<g id="edge13" class="edge">
<title>DecodeWorker.js&#45;&gt;lib/lz4.js</title>
<path fill="none" stroke="#757575" d="M447.59,-490.5C486.07,-490.5 535.48,-490.5 570.05,-490.5"/>
<polygon fill="#757575" stroke="#757575" points="570.28,-494 580.28,-490.5 570.28,-487 570.28,-494"/>
</g>
<!-- ImageDecoder.js&#45;&gt;RgbHelpers.js -->
<g id="edge14" class="edge">
<title>ImageDecoder.js&#45;&gt;RgbHelpers.js</title>
<path fill="none" stroke="#757575" d="M672.9,-604.16C680.07,-601.46 686.99,-597.98 693,-593.5 735.11,-562.15 760.48,-503.38 771.69,-471.83"/>
<polygon fill="#757575" stroke="#757575" points="775.04,-472.84 774.95,-462.25 768.41,-470.59 775.04,-472.84"/>
</g>
<!-- IndexPage.js -->
<g id="node15" class="node">
<title>IndexPage.js</title>
<path fill="none" stroke="#c6c5fe" d="M87.33,-123C87.33,-123 7.67,-123 7.67,-123 3.83,-123 0,-119.17 0,-115.33 0,-115.33 0,-107.67 0,-107.67 0,-103.83 3.83,-100 7.67,-100 7.67,-100 87.33,-100 87.33,-100 91.17,-100 95,-103.83 95,-107.67 95,-107.67 95,-115.33 95,-115.33 95,-119.17 91.17,-123 87.33,-123"/>
<text text-anchor="middle" x="47.5" y="-107.8" font-family="Arial" font-size="14.00" fill="#c6c5fe">IndexPage.js</text>
</g>
<!-- IndexPage.js&#45;&gt;Client.js -->
<g id="edge15" class="edge">
<title>IndexPage.js&#45;&gt;Client.js</title>
<path fill="none" stroke="#757575" d="M83.22,-123.17C87.59,-125.73 91.68,-128.81 95,-132.5 129.13,-170.42 100.43,-200.66 131,-241.5 137.14,-249.71 145.59,-256.77 154.03,-262.51"/>
<polygon fill="#757575" stroke="#757575" points="152.39,-265.62 162.72,-268 156.13,-259.7 152.39,-265.62"/>
</g>
<!-- IndexPage.js&#45;&gt;Keycodes.js -->
<g id="edge16" class="edge">
<title>IndexPage.js&#45;&gt;Keycodes.js</title>
<path fill="none" stroke="#757575" d="M95.21,-108.6C157.53,-104.74 267.63,-97.91 333.3,-93.83"/>
<polygon fill="#757575" stroke="#757575" points="333.68,-97.31 343.45,-93.2 333.25,-90.33 333.68,-97.31"/>
</g>
<!-- IndexPage.js&#45;&gt;Utilities.js -->
<g id="edge20" class="edge">
<title>IndexPage.js&#45;&gt;Utilities.js</title>
<path fill="none" stroke="#757575" d="M95.04,-115.87C176.92,-124.04 351.83,-143.63 497,-174.5 520.33,-179.46 545.86,-186.61 566.93,-192.99"/>
<polygon fill="#757575" stroke="#757575" points="565.99,-196.36 576.58,-195.95 568.05,-189.67 565.99,-196.36"/>
</g>
<!-- Menu.js -->
<g id="node16" class="node">
<title>Menu.js</title>
<path fill="none" stroke="#cfffac" d="M211.83,-23C211.83,-23 162.17,-23 162.17,-23 158.33,-23 154.5,-19.17 154.5,-15.33 154.5,-15.33 154.5,-7.67 154.5,-7.67 154.5,-3.83 158.33,0 162.17,0 162.17,0 211.83,0 211.83,0 215.67,0 219.5,-3.83 219.5,-7.67 219.5,-7.67 219.5,-15.33 219.5,-15.33 219.5,-19.17 215.67,-23 211.83,-23"/>
<text text-anchor="middle" x="187" y="-7.8" font-family="Arial" font-size="14.00" fill="#cfffac">Menu.js</text>
</g>
<!-- IndexPage.js&#45;&gt;Menu.js -->
<g id="edge17" class="edge">
<title>IndexPage.js&#45;&gt;Menu.js</title>
<path fill="none" stroke="#757575" d="M57.71,-99.86C71.82,-82.72 100.39,-50.66 131,-31.5 135.36,-28.77 140.14,-26.34 145.01,-24.2"/>
<polygon fill="#757575" stroke="#757575" points="146.42,-27.4 154.39,-20.42 143.8,-20.91 146.42,-27.4"/>
</g>
<!-- MenuCustom.js -->
<g id="node17" class="node">
<title>MenuCustom.js</title>
<path fill="none" stroke="#cfffac" d="M235.33,-232C235.33,-232 138.67,-232 138.67,-232 134.83,-232 131,-228.17 131,-224.33 131,-224.33 131,-216.67 131,-216.67 131,-212.83 134.83,-209 138.67,-209 138.67,-209 235.33,-209 235.33,-209 239.17,-209 243,-212.83 243,-216.67 243,-216.67 243,-224.33 243,-224.33 243,-228.17 239.17,-232 235.33,-232"/>
<text text-anchor="middle" x="187" y="-216.8" font-family="Arial" font-size="14.00" fill="#cfffac">MenuCustom.js</text>
</g>
<!-- IndexPage.js&#45;&gt;MenuCustom.js -->
<g id="edge18" class="edge">
<title>IndexPage.js&#45;&gt;MenuCustom.js</title>
<path fill="none" stroke="#757575" d="M81.72,-123.18C86.51,-125.78 91.13,-128.86 95,-132.5 119.93,-155.91 105.21,-178.05 131,-200.5 132.32,-201.65 133.71,-202.73 135.15,-203.75"/>
<polygon fill="#757575" stroke="#757575" points="133.53,-206.86 143.92,-208.97 137.11,-200.85 133.53,-206.86"/>
</g>
<!-- Notifications.js -->
<g id="node18" class="node">
<title>Notifications.js</title>
<path fill="none" stroke="#c6c5fe" d="M231.33,-64C231.33,-64 142.67,-64 142.67,-64 138.83,-64 135,-60.17 135,-56.33 135,-56.33 135,-48.67 135,-48.67 135,-44.83 138.83,-41 142.67,-41 142.67,-41 231.33,-41 231.33,-41 235.17,-41 239,-44.83 239,-48.67 239,-48.67 239,-56.33 239,-56.33 239,-60.17 235.17,-64 231.33,-64"/>
<text text-anchor="middle" x="187" y="-48.8" font-family="Arial" font-size="14.00" fill="#c6c5fe">Notifications.js</text>
</g>
<!-- IndexPage.js&#45;&gt;Notifications.js -->
<g id="edge19" class="edge">
<title>IndexPage.js&#45;&gt;Notifications.js</title>
<path fill="none" stroke="#757575" d="M75.34,-99.98C96.49,-90.91 126.21,-78.15 149.53,-68.15"/>
<polygon fill="#757575" stroke="#757575" points="150.95,-71.35 158.76,-64.19 148.19,-64.92 150.95,-71.35"/>
</g>
<!-- Notifications.js&#45;&gt;Utilities.js -->
<g id="edge22" class="edge">
<title>Notifications.js&#45;&gt;Utilities.js</title>
<path fill="none" stroke="#757575" d="M239.02,-43.43C303,-34.62 414.3,-27.96 497,-69.5 548.05,-95.14 584.92,-154.74 601.77,-186.58"/>
<polygon fill="#757575" stroke="#757575" points="598.85,-188.56 606.53,-195.86 605.08,-185.36 598.85,-188.56"/>
</g>
<!-- MitmPage.js -->
<g id="node19" class="node">
<title>MitmPage.js</title>
<path fill="none" stroke="#cfffac" d="M85.83,-164C85.83,-164 9.17,-164 9.17,-164 5.33,-164 1.5,-160.17 1.5,-156.33 1.5,-156.33 1.5,-148.67 1.5,-148.67 1.5,-144.83 5.33,-141 9.17,-141 9.17,-141 85.83,-141 85.83,-141 89.67,-141 93.5,-144.83 93.5,-148.67 93.5,-148.67 93.5,-156.33 93.5,-156.33 93.5,-160.17 89.67,-164 85.83,-164"/>
<text text-anchor="middle" x="47.5" y="-148.8" font-family="Arial" font-size="14.00" fill="#cfffac">MitmPage.js</text>
</g>
<!-- OffscreenDecodeWorker.js -->
<g id="node20" class="node">
<title>OffscreenDecodeWorker.js</title>
<path fill="none" stroke="#c6c5fe" d="M469.83,-543C469.83,-543 306.17,-543 306.17,-543 302.33,-543 298.5,-539.17 298.5,-535.33 298.5,-535.33 298.5,-527.67 298.5,-527.67 298.5,-523.83 302.33,-520 306.17,-520 306.17,-520 469.83,-520 469.83,-520 473.67,-520 477.5,-523.83 477.5,-527.67 477.5,-527.67 477.5,-535.33 477.5,-535.33 477.5,-539.17 473.67,-543 469.83,-543"/>
<text text-anchor="middle" x="388" y="-527.8" font-family="Arial" font-size="14.00" fill="#c6c5fe">OffscreenDecodeWorker.js</text>
</g>
<!-- OffscreenDecodeWorker.js&#45;&gt;Constants.js -->
<g id="edge23" class="edge">
<title>OffscreenDecodeWorker.js&#45;&gt;Constants.js</title>
<path fill="none" stroke="#757575" d="M477.66,-524.74C484.82,-521.44 491.43,-517.12 497,-511.5 561.55,-446.46 471,-375.96 533,-308.5 539.56,-301.37 548.24,-296.54 557.44,-293.31"/>
<polygon fill="#757575" stroke="#757575" points="558.53,-296.63 567.15,-290.48 556.57,-289.91 558.53,-296.63"/>
</g>
<!-- OffscreenDecodeWorker.js&#45;&gt;lib/broadway/Decoder.js -->
<g id="edge26" class="edge">
<title>OffscreenDecodeWorker.js&#45;&gt;lib/broadway/Decoder.js</title>
<path fill="none" stroke="#757575" d="M477.78,-531.5C492.58,-531.5 507.94,-531.5 522.75,-531.5"/>
<polygon fill="#757575" stroke="#757575" points="522.91,-535 532.91,-531.5 522.91,-528 522.91,-535"/>
</g>
<!-- OffscreenDecodeWorker.js&#45;&gt;lib/lz4.js -->
<g id="edge27" class="edge">
<title>OffscreenDecodeWorker.js&#45;&gt;lib/lz4.js</title>
<path fill="none" stroke="#757575" d="M451.71,-519.97C489.65,-512.99 536.99,-504.29 570.35,-498.16"/>
<polygon fill="#757575" stroke="#757575" points="571.03,-501.59 580.23,-496.34 569.76,-494.71 571.03,-501.59"/>
</g>
<!-- OffscreenDecodeWorker.js&#45;&gt;ImageDecoder.js -->
<g id="edge24" class="edge">
<title>OffscreenDecodeWorker.js&#45;&gt;ImageDecoder.js</title>
<path fill="none" stroke="#757575" d="M476.04,-543.09C483.36,-545.65 490.46,-548.74 497,-552.5 518.03,-564.57 512.32,-580.84 533,-593.5 536.43,-595.6 540.08,-597.48 543.84,-599.16"/>
<polygon fill="#757575" stroke="#757575" points="542.82,-602.52 553.41,-602.96 545.4,-596.02 542.82,-602.52"/>
</g>
<!-- OffscreenDecodeWorker.js&#45;&gt;VideoDecoder.js -->
<g id="edge25" class="edge">
<title>OffscreenDecodeWorker.js&#45;&gt;VideoDecoder.js</title>
<path fill="none" stroke="#757575" d="M451.71,-543.03C480.99,-548.41 515.87,-554.83 545.6,-560.29"/>
<polygon fill="#757575" stroke="#757575" points="545,-563.74 555.47,-562.11 546.27,-556.86 545,-563.74"/>
</g>
</g>
</svg>
