<?xml version="1.0" encoding="UTF-8" standalone="no"?>
<!DOCTYPE svg PUBLIC "-//W3C//DTD SVG 1.1//EN"
 "http://www.w3.org/Graphics/SVG/1.1/DTD/svg11.dtd">
<!-- Generated by graphviz version 2.50.0 (0)
 -->
<!-- Title: G Pages: 1 -->
<svg width="873pt" height="674pt"
 viewBox="0.00 0.00 873.20 674.20" xmlns="http://www.w3.org/2000/svg" xmlns:xlink="http://www.w3.org/1999/xlink">
<g id="graph0" class="graph" transform="scale(1 1) rotate(0) translate(21.6 652.6)">
<title>G</title>
<polygon fill="#111111" stroke="transparent" points="-21.6,21.6 -21.6,-652.6 851.6,-652.6 851.6,21.6 -21.6,21.6"/>
<!-- Client.js -->
<g id="node1" class="node">
<title>Client.js</title>
<path fill="none" stroke="#c6c5fe" d="M211.83,-221C211.83,-221 162.17,-221 162.17,-221 158.33,-221 154.5,-217.17 154.5,-213.33 154.5,-213.33 154.5,-205.67 154.5,-205.67 154.5,-201.83 158.33,-198 162.17,-198 162.17,-198 211.83,-198 211.83,-198 215.67,-198 219.5,-201.83 219.5,-205.67 219.5,-205.67 219.5,-213.33 219.5,-213.33 219.5,-217.17 215.67,-221 211.83,-221"/>
<text text-anchor="middle" x="187" y="-205.8" font-family="Arial" font-size="14.00" fill="#c6c5fe">Client.js</text>
</g>
<!-- Constants.js -->
<g id="node2" class="node">
<title>Constants.js</title>
<path fill="none" stroke="#cfffac" d="M650.83,-221C650.83,-221 575.17,-221 575.17,-221 571.33,-221 567.5,-217.17 567.5,-213.33 567.5,-213.33 567.5,-205.67 567.5,-205.67 567.5,-201.83 571.33,-198 575.17,-198 575.17,-198 650.83,-198 650.83,-198 654.67,-198 658.5,-201.83 658.5,-205.67 658.5,-205.67 658.5,-213.33 658.5,-213.33 658.5,-217.17 654.67,-221 650.83,-221"/>
<text text-anchor="middle" x="613" y="-205.8" font-family="Arial" font-size="14.00" fill="#cfffac">Constants.js</text>
</g>
<!-- Client.js&#45;&gt;Constants.js -->
<g id="edge1" class="edge">
<title>Client.js&#45;&gt;Constants.js</title>
<path fill="none" stroke="#757575" d="M219.7,-218.68C237.05,-223.23 259.02,-228.22 279,-230.5 375.27,-241.46 400.51,-239.24 497,-230.5 516.87,-228.7 538.45,-225.18 557.48,-221.54"/>
<polygon fill="#757575" stroke="#757575" points="558.34,-224.94 567.47,-219.57 556.99,-218.07 558.34,-224.94"/>
</g>
<!-- Keycodes.js -->
<g id="node3" class="node">
<title>Keycodes.js</title>
<path fill="none" stroke="#cfffac" d="M424.83,-141C424.83,-141 351.17,-141 351.17,-141 347.33,-141 343.5,-137.17 343.5,-133.33 343.5,-133.33 343.5,-125.67 343.5,-125.67 343.5,-121.83 347.33,-118 351.17,-118 351.17,-118 424.83,-118 424.83,-118 428.67,-118 432.5,-121.83 432.5,-125.67 432.5,-125.67 432.5,-133.33 432.5,-133.33 432.5,-137.17 428.67,-141 424.83,-141"/>
<text text-anchor="middle" x="388" y="-125.8" font-family="Arial" font-size="14.00" fill="#cfffac">Keycodes.js</text>
</g>
<!-- Client.js&#45;&gt;Keycodes.js -->
<g id="edge2" class="edge">
<title>Client.js&#45;&gt;Keycodes.js</title>
<path fill="none" stroke="#757575" d="M204,-197.98C221.59,-185.81 251.09,-166.84 279,-155.5 296.1,-148.55 315.51,-143.17 333.12,-139.14"/>
<polygon fill="#757575" stroke="#757575" points="334.22,-142.48 343.24,-136.93 332.72,-135.65 334.22,-142.48"/>
</g>
<!-- MediaSourceUtil.js -->
<g id="node4" class="node">
<title>MediaSourceUtil.js</title>
<path fill="none" stroke="#c6c5fe" d="M445.33,-301C445.33,-301 330.67,-301 330.67,-301 326.83,-301 323,-297.17 323,-293.33 323,-293.33 323,-285.67 323,-285.67 323,-281.83 326.83,-278 330.67,-278 330.67,-278 445.33,-278 445.33,-278 449.17,-278 453,-281.83 453,-285.67 453,-285.67 453,-293.33 453,-293.33 453,-297.17 449.17,-301 445.33,-301"/>
<text text-anchor="middle" x="388" y="-285.8" font-family="Arial" font-size="14.00" fill="#c6c5fe">MediaSourceUtil.js</text>
</g>
<!-- Client.js&#45;&gt;MediaSourceUtil.js -->
<g id="edge3" class="edge">
<title>Client.js&#45;&gt;MediaSourceUtil.js</title>
<path fill="none" stroke="#757575" d="M219.52,-219.2C227.46,-222.27 235.78,-226.04 243,-230.5 261.47,-241.91 259.84,-253.3 279,-263.5 289.51,-269.09 301.23,-273.5 312.96,-276.97"/>
<polygon fill="#757575" stroke="#757575" points="312.23,-280.4 322.8,-279.67 314.08,-273.64 312.23,-280.4"/>
</g>
<!-- OffscreenDecodeWorkerHelper.js -->
<g id="node5" class="node">
<title>OffscreenDecodeWorkerHelper.js</title>
<path fill="none" stroke="#c6c5fe" d="M489.33,-579C489.33,-579 286.67,-579 286.67,-579 282.83,-579 279,-575.17 279,-571.33 279,-571.33 279,-563.67 279,-563.67 279,-559.83 282.83,-556 286.67,-556 286.67,-556 489.33,-556 489.33,-556 493.17,-556 497,-559.83 497,-563.67 497,-563.67 497,-571.33 497,-571.33 497,-575.17 493.17,-579 489.33,-579"/>
<text text-anchor="middle" x="388" y="-563.8" font-family="Arial" font-size="14.00" fill="#c6c5fe">OffscreenDecodeWorkerHelper.js</text>
</g>
<!-- Client.js&#45;&gt;OffscreenDecodeWorkerHelper.js -->
<g id="edge4" class="edge">
<title>Client.js&#45;&gt;OffscreenDecodeWorkerHelper.js</title>
<path fill="none" stroke="#757575" d="M219.67,-215.19C228.48,-218.29 237.21,-223.09 243,-230.5 324.87,-335.27 196.6,-423.14 279,-527.5 287.62,-538.42 299.54,-546.36 312.33,-552.14"/>
<polygon fill="#757575" stroke="#757575" points="311.17,-555.44 321.75,-555.97 313.81,-548.96 311.17,-555.44"/>
</g>
<!-- Protocol.js -->
<g id="node6" class="node">
<title>Protocol.js</title>
<path fill="none" stroke="#c6c5fe" d="M420.33,-383C420.33,-383 355.67,-383 355.67,-383 351.83,-383 348,-379.17 348,-375.33 348,-375.33 348,-367.67 348,-367.67 348,-363.83 351.83,-360 355.67,-360 355.67,-360 420.33,-360 420.33,-360 424.17,-360 428,-363.83 428,-367.67 428,-367.67 428,-375.33 428,-375.33 428,-379.17 424.17,-383 420.33,-383"/>
<text text-anchor="middle" x="388" y="-367.8" font-family="Arial" font-size="14.00" fill="#c6c5fe">Protocol.js</text>
</g>
<!-- Client.js&#45;&gt;Protocol.js -->
<g id="edge5" class="edge">
<title>Client.js&#45;&gt;Protocol.js</title>
<path fill="none" stroke="#757575" d="M219.52,-216.79C227.91,-219.92 236.46,-224.33 243,-230.5 271.36,-257.26 252.72,-281.7 279,-310.5 297.29,-330.54 323.74,-345.63 345.88,-355.79"/>
<polygon fill="#757575" stroke="#757575" points="344.51,-359.01 355.08,-359.84 347.34,-352.6 344.51,-359.01"/>
</g>
<!-- Utilities.js -->
<g id="node7" class="node">
<title>Utilities.js</title>
<path fill="none" stroke="#cfffac" d="M642.33,-180C642.33,-180 583.67,-180 583.67,-180 579.83,-180 576,-176.17 576,-172.33 576,-172.33 576,-164.67 576,-164.67 576,-160.83 579.83,-157 583.67,-157 583.67,-157 642.33,-157 642.33,-157 646.17,-157 650,-160.83 650,-164.67 650,-164.67 650,-172.33 650,-172.33 650,-176.17 646.17,-180 642.33,-180"/>
<text text-anchor="middle" x="613" y="-164.8" font-family="Arial" font-size="14.00" fill="#cfffac">Utilities.js</text>
</g>
<!-- Client.js&#45;&gt;Utilities.js -->
<g id="edge6" class="edge">
<title>Client.js&#45;&gt;Utilities.js</title>
<path fill="none" stroke="#757575" d="M219.79,-201.26C237.17,-197.07 259.14,-192.29 279,-189.5 380.61,-175.22 501.04,-170.64 565.6,-169.18"/>
<polygon fill="#757575" stroke="#757575" points="565.92,-172.68 575.84,-168.97 565.77,-165.68 565.92,-172.68"/>
</g>
<!-- Window.js -->
<g id="node8" class="node">
<title>Window.js</title>
<path fill="none" stroke="#c6c5fe" d="M419.33,-221C419.33,-221 356.67,-221 356.67,-221 352.83,-221 349,-217.17 349,-213.33 349,-213.33 349,-205.67 349,-205.67 349,-201.83 352.83,-198 356.67,-198 356.67,-198 419.33,-198 419.33,-198 423.17,-198 427,-201.83 427,-205.67 427,-205.67 427,-213.33 427,-213.33 427,-217.17 423.17,-221 419.33,-221"/>
<text text-anchor="middle" x="388" y="-205.8" font-family="Arial" font-size="14.00" fill="#c6c5fe">Window.js</text>
</g>
<!-- Client.js&#45;&gt;Window.js -->
<g id="edge7" class="edge">
<title>Client.js&#45;&gt;Window.js</title>
<path fill="none" stroke="#757575" d="M219.53,-209.5C251.59,-209.5 301.67,-209.5 338.73,-209.5"/>
<polygon fill="#757575" stroke="#757575" points="338.81,-213 348.81,-209.5 338.81,-206 338.81,-213"/>
</g>
<!-- MediaSourceUtil.js&#45;&gt;Utilities.js -->
<g id="edge19" class="edge">
<title>MediaSourceUtil.js&#45;&gt;Utilities.js</title>
<path fill="none" stroke="#757575" d="M416.35,-277.83C439.2,-267.34 471.98,-250.53 497,-230.5 515.93,-215.34 512.39,-202.28 533,-189.5 542.98,-183.31 554.77,-178.93 566.14,-175.83"/>
<polygon fill="#757575" stroke="#757575" points="567.1,-179.2 575.98,-173.43 565.44,-172.4 567.1,-179.2"/>
</g>
<!-- ImageDecoder.js -->
<g id="node12" class="node">
<title>ImageDecoder.js</title>
<path fill="none" stroke="#c6c5fe" d="M664.83,-590C664.83,-590 561.17,-590 561.17,-590 557.33,-590 553.5,-586.17 553.5,-582.33 553.5,-582.33 553.5,-574.67 553.5,-574.67 553.5,-570.83 557.33,-567 561.17,-567 561.17,-567 664.83,-567 664.83,-567 668.67,-567 672.5,-570.83 672.5,-574.67 672.5,-574.67 672.5,-582.33 672.5,-582.33 672.5,-586.17 668.67,-590 664.83,-590"/>
<text text-anchor="middle" x="613" y="-574.8" font-family="Arial" font-size="14.00" fill="#c6c5fe">ImageDecoder.js</text>
</g>
<!-- OffscreenDecodeWorkerHelper.js&#45;&gt;ImageDecoder.js -->
<g id="edge27" class="edge">
<title>OffscreenDecodeWorkerHelper.js&#45;&gt;ImageDecoder.js</title>
<path fill="none" stroke="#757575" d="M497.23,-572.84C512.77,-573.61 528.39,-574.38 542.89,-575.09"/>
<polygon fill="#757575" stroke="#757575" points="543.07,-578.6 553.23,-575.6 543.42,-571.61 543.07,-578.6"/>
</g>
<!-- VideoDecoder.js -->
<g id="node19" class="node">
<title>VideoDecoder.js</title>
<path fill="none" stroke="#cfffac" d="M662.83,-631C662.83,-631 563.17,-631 563.17,-631 559.33,-631 555.5,-627.17 555.5,-623.33 555.5,-623.33 555.5,-615.67 555.5,-615.67 555.5,-611.83 559.33,-608 563.17,-608 563.17,-608 662.83,-608 662.83,-608 666.67,-608 670.5,-611.83 670.5,-615.67 670.5,-615.67 670.5,-623.33 670.5,-623.33 670.5,-627.17 666.67,-631 662.83,-631"/>
<text text-anchor="middle" x="613" y="-615.8" font-family="Arial" font-size="14.00" fill="#cfffac">VideoDecoder.js</text>
</g>
<!-- OffscreenDecodeWorkerHelper.js&#45;&gt;VideoDecoder.js -->
<g id="edge28" class="edge">
<title>OffscreenDecodeWorkerHelper.js&#45;&gt;VideoDecoder.js</title>
<path fill="none" stroke="#757575" d="M438.49,-579.04C472.27,-586.92 517.18,-597.39 552.85,-605.71"/>
<polygon fill="#757575" stroke="#757575" points="552.11,-609.13 562.65,-607.99 553.7,-602.31 552.11,-609.13"/>
</g>
<!-- Protocol.js&#45;&gt;Utilities.js -->
<g id="edge29" class="edge">
<title>Protocol.js&#45;&gt;Utilities.js</title>
<path fill="none" stroke="#757575" d="M428.16,-371.01C451.2,-368.62 479.21,-361.73 497,-343.5 546.1,-293.2 484.05,-239.95 533,-189.5 541.65,-180.59 553.61,-175.31 565.62,-172.23"/>
<polygon fill="#757575" stroke="#757575" points="566.57,-175.61 575.64,-170.13 565.13,-168.76 566.57,-175.61"/>
</g>
<!-- lib/lz4.js -->
<g id="node21" class="node">
<title>lib/lz4.js</title>
<path fill="none" stroke="#cfffac" d="M637.83,-467C637.83,-467 588.17,-467 588.17,-467 584.33,-467 580.5,-463.17 580.5,-459.33 580.5,-459.33 580.5,-451.67 580.5,-451.67 580.5,-447.83 584.33,-444 588.17,-444 588.17,-444 637.83,-444 637.83,-444 641.67,-444 645.5,-447.83 645.5,-451.67 645.5,-451.67 645.5,-459.33 645.5,-459.33 645.5,-463.17 641.67,-467 637.83,-467"/>
<text text-anchor="middle" x="613" y="-451.8" font-family="Arial" font-size="14.00" fill="#cfffac">lib/lz4.js</text>
</g>
<!-- Protocol.js&#45;&gt;lib/lz4.js -->
<g id="edge33" class="edge">
<title>Protocol.js&#45;&gt;lib/lz4.js</title>
<path fill="none" stroke="#757575" d="M411.95,-383.17C439.97,-397.06 489.05,-420.29 533,-435.5 545.01,-439.66 558.32,-443.36 570.54,-446.41"/>
<polygon fill="#757575" stroke="#757575" points="569.95,-449.87 580.5,-448.82 571.6,-443.07 569.95,-449.87"/>
</g>
<!-- lib/zlib.js -->
<g id="node22" class="node">
<title>lib/zlib.js</title>
<path fill="none" stroke="#cfffac" d="M639.33,-508C639.33,-508 586.67,-508 586.67,-508 582.83,-508 579,-504.17 579,-500.33 579,-500.33 579,-492.67 579,-492.67 579,-488.83 582.83,-485 586.67,-485 586.67,-485 639.33,-485 639.33,-485 643.17,-485 647,-488.83 647,-492.67 647,-492.67 647,-500.33 647,-500.33 647,-504.17 643.17,-508 639.33,-508"/>
<text text-anchor="middle" x="613" y="-492.8" font-family="Arial" font-size="14.00" fill="#cfffac">lib/zlib.js</text>
</g>
<!-- Protocol.js&#45;&gt;lib/zlib.js -->
<g id="edge35" class="edge">
<title>Protocol.js&#45;&gt;lib/zlib.js</title>
<path fill="none" stroke="#757575" d="M401.42,-383.17C425.11,-404.81 479.23,-451.25 533,-476.5 544.21,-481.76 556.98,-485.76 568.94,-488.75"/>
<polygon fill="#757575" stroke="#757575" points="568.21,-492.17 578.75,-491.03 569.8,-485.36 568.21,-492.17"/>
</g>
<!-- lib/bencode.js -->
<g id="node23" class="node">
<title>lib/bencode.js</title>
<path fill="none" stroke="#cfffac" d="M654.83,-385C654.83,-385 571.17,-385 571.17,-385 567.33,-385 563.5,-381.17 563.5,-377.33 563.5,-377.33 563.5,-369.67 563.5,-369.67 563.5,-365.83 567.33,-362 571.17,-362 571.17,-362 654.83,-362 654.83,-362 658.67,-362 662.5,-365.83 662.5,-369.67 662.5,-369.67 662.5,-377.33 662.5,-377.33 662.5,-381.17 658.67,-385 654.83,-385"/>
<text text-anchor="middle" x="613" y="-369.8" font-family="Arial" font-size="14.00" fill="#cfffac">lib/bencode.js</text>
</g>
<!-- Protocol.js&#45;&gt;lib/bencode.js -->
<g id="edge30" class="edge">
<title>Protocol.js&#45;&gt;lib/bencode.js</title>
<path fill="none" stroke="#757575" d="M428.1,-371.85C462.69,-372.16 513.65,-372.62 553.16,-372.97"/>
<polygon fill="#757575" stroke="#757575" points="553.17,-376.47 563.2,-373.06 553.23,-369.47 553.17,-376.47"/>
</g>
<!-- lib/brotli_decode.js -->
<g id="node24" class="node">
<title>lib/brotli_decode.js</title>
<path fill="none" stroke="#cfffac" d="M669.33,-303C669.33,-303 556.67,-303 556.67,-303 552.83,-303 549,-299.17 549,-295.33 549,-295.33 549,-287.67 549,-287.67 549,-283.83 552.83,-280 556.67,-280 556.67,-280 669.33,-280 669.33,-280 673.17,-280 677,-283.83 677,-287.67 677,-287.67 677,-295.33 677,-295.33 677,-299.17 673.17,-303 669.33,-303"/>
<text text-anchor="middle" x="613" y="-287.8" font-family="Arial" font-size="14.00" fill="#cfffac">lib/brotli_decode.js</text>
</g>
<!-- Protocol.js&#45;&gt;lib/brotli_decode.js -->
<g id="edge31" class="edge">
<title>Protocol.js&#45;&gt;lib/brotli_decode.js</title>
<path fill="none" stroke="#757575" d="M428.05,-365.83C449.3,-361.67 475.55,-354.73 497,-343.5 515.71,-333.71 514.32,-322.35 533,-312.5 537.17,-310.3 541.6,-308.31 546.13,-306.53"/>
<polygon fill="#757575" stroke="#757575" points="547.33,-309.82 555.56,-303.14 544.96,-303.23 547.33,-309.82"/>
</g>
<!-- lib/forge.js -->
<g id="node25" class="node">
<title>lib/forge.js</title>
<path fill="none" stroke="#cfffac" d="M644.33,-262C644.33,-262 581.67,-262 581.67,-262 577.83,-262 574,-258.17 574,-254.33 574,-254.33 574,-246.67 574,-246.67 574,-242.83 577.83,-239 581.67,-239 581.67,-239 644.33,-239 644.33,-239 648.17,-239 652,-242.83 652,-246.67 652,-246.67 652,-254.33 652,-254.33 652,-258.17 648.17,-262 644.33,-262"/>
<text text-anchor="middle" x="613" y="-246.8" font-family="Arial" font-size="14.00" fill="#cfffac">lib/forge.js</text>
</g>
<!-- Protocol.js&#45;&gt;lib/forge.js -->
<g id="edge32" class="edge">
<title>Protocol.js&#45;&gt;lib/forge.js</title>
<path fill="none" stroke="#757575" d="M428.03,-369.27C450.31,-366.21 477.58,-359.22 497,-343.5 524.81,-320.99 505.26,-294.09 533,-271.5 541.76,-264.36 552.72,-259.64 563.65,-256.51"/>
<polygon fill="#757575" stroke="#757575" points="564.75,-259.84 573.62,-254.06 563.08,-253.04 564.75,-259.84"/>
</g>
<!-- lib/rencode.js -->
<g id="node26" class="node">
<title>lib/rencode.js</title>
<path fill="none" stroke="#cfffac" d="M653.33,-426C653.33,-426 572.67,-426 572.67,-426 568.83,-426 565,-422.17 565,-418.33 565,-418.33 565,-410.67 565,-410.67 565,-406.83 568.83,-403 572.67,-403 572.67,-403 653.33,-403 653.33,-403 657.17,-403 661,-406.83 661,-410.67 661,-410.67 661,-418.33 661,-418.33 661,-422.17 657.17,-426 653.33,-426"/>
<text text-anchor="middle" x="613" y="-410.8" font-family="Arial" font-size="14.00" fill="#cfffac">lib/rencode.js</text>
</g>
<!-- Protocol.js&#45;&gt;lib/rencode.js -->
<g id="edge34" class="edge">
<title>Protocol.js&#45;&gt;lib/rencode.js</title>
<path fill="none" stroke="#757575" d="M428.1,-379.04C463.22,-385.81 515.23,-395.84 554.98,-403.51"/>
<polygon fill="#757575" stroke="#757575" points="554.33,-406.94 564.81,-405.4 555.65,-400.07 554.33,-406.94"/>
</g>
<!-- Window.js&#45;&gt;Constants.js -->
<g id="edge36" class="edge">
<title>Window.js&#45;&gt;Constants.js</title>
<path fill="none" stroke="#757575" d="M427.08,-209.5C462.79,-209.5 516.57,-209.5 556.94,-209.5"/>
<polygon fill="#757575" stroke="#757575" points="557.16,-213 567.16,-209.5 557.16,-206 557.16,-213"/>
</g>
<!-- Window.js&#45;&gt;Utilities.js -->
<g id="edge38" class="edge">
<title>Window.js&#45;&gt;Utilities.js</title>
<path fill="none" stroke="#757575" d="M427.08,-202.5C465.5,-195.44 524.85,-184.52 565.9,-176.98"/>
<polygon fill="#757575" stroke="#757575" points="566.72,-180.38 575.92,-175.13 565.45,-173.5 566.72,-180.38"/>
</g>
<!-- RgbHelpers.js -->
<g id="node11" class="node">
<title>RgbHelpers.js</title>
<path fill="none" stroke="#cfffac" d="M822.33,-344C822.33,-344 736.67,-344 736.67,-344 732.83,-344 729,-340.17 729,-336.33 729,-336.33 729,-328.67 729,-328.67 729,-324.83 732.83,-321 736.67,-321 736.67,-321 822.33,-321 822.33,-321 826.17,-321 830,-324.83 830,-328.67 830,-328.67 830,-336.33 830,-336.33 830,-340.17 826.17,-344 822.33,-344"/>
<text text-anchor="middle" x="779.5" y="-328.8" font-family="Arial" font-size="14.00" fill="#cfffac">RgbHelpers.js</text>
</g>
<!-- Window.js&#45;&gt;RgbHelpers.js -->
<g id="edge37" class="edge">
<title>Window.js&#45;&gt;RgbHelpers.js</title>
<path fill="none" stroke="#757575" d="M406.39,-197.97C455.55,-166.94 598.16,-87.99 693,-148.5 750,-184.87 769.59,-270.15 775.83,-310.54"/>
<polygon fill="#757575" stroke="#757575" points="772.39,-311.25 777.25,-320.67 779.32,-310.28 772.39,-311.25"/>
</g>
<!-- ConnectPage.js -->
<g id="node9" class="node">
<title>ConnectPage.js</title>
<path fill="none" stroke="#c6c5fe" d="M235.33,-341C235.33,-341 138.67,-341 138.67,-341 134.83,-341 131,-337.17 131,-333.33 131,-333.33 131,-325.67 131,-325.67 131,-321.83 134.83,-318 138.67,-318 138.67,-318 235.33,-318 235.33,-318 239.17,-318 243,-321.83 243,-325.67 243,-325.67 243,-333.33 243,-333.33 243,-337.17 239.17,-341 235.33,-341"/>
<text text-anchor="middle" x="187" y="-325.8" font-family="Arial" font-size="14.00" fill="#c6c5fe">ConnectPage.js</text>
</g>
<!-- ConnectPage.js&#45;&gt;MediaSourceUtil.js -->
<g id="edge8" class="edge">
<title>ConnectPage.js&#45;&gt;MediaSourceUtil.js</title>
<path fill="none" stroke="#757575" d="M243.17,-318.41C266.82,-313.66 294.68,-308.06 319.55,-303.06"/>
<polygon fill="#757575" stroke="#757575" points="320.53,-306.43 329.64,-301.03 319.15,-299.57 320.53,-306.43"/>
</g>
<!-- ConnectPage.js&#45;&gt;OffscreenDecodeWorkerHelper.js -->
<g id="edge9" class="edge">
<title>ConnectPage.js&#45;&gt;OffscreenDecodeWorkerHelper.js</title>
<path fill="none" stroke="#757575" d="M190.11,-341.15C196.82,-374.86 220.73,-473.5 279,-527.5 290.96,-538.59 306.27,-546.67 321.57,-552.54"/>
<polygon fill="#757575" stroke="#757575" points="320.47,-555.86 331.07,-555.91 322.82,-549.26 320.47,-555.86"/>
</g>
<!-- ConnectPage.js&#45;&gt;Utilities.js -->
<g id="edge10" class="edge">
<title>ConnectPage.js&#45;&gt;Utilities.js</title>
<path fill="none" stroke="#757575" d="M243.19,-333.41C321.37,-337.75 459.08,-340.64 497,-310.5 540.93,-275.59 492.75,-228.59 533,-189.5 541.91,-180.85 553.96,-175.66 565.96,-172.57"/>
<polygon fill="#757575" stroke="#757575" points="566.9,-175.95 575.96,-170.45 565.45,-169.1 566.9,-175.95"/>
</g>
<!-- DecodeWorker.js -->
<g id="node10" class="node">
<title>DecodeWorker.js</title>
<path fill="none" stroke="#c6c5fe" d="M664.83,-344C664.83,-344 561.17,-344 561.17,-344 557.33,-344 553.5,-340.17 553.5,-336.33 553.5,-336.33 553.5,-328.67 553.5,-328.67 553.5,-324.83 557.33,-321 561.17,-321 561.17,-321 664.83,-321 664.83,-321 668.67,-321 672.5,-324.83 672.5,-328.67 672.5,-328.67 672.5,-336.33 672.5,-336.33 672.5,-340.17 668.67,-344 664.83,-344"/>
<text text-anchor="middle" x="613" y="-328.8" font-family="Arial" font-size="14.00" fill="#c6c5fe">DecodeWorker.js</text>
</g>
<!-- DecodeWorker.js&#45;&gt;RgbHelpers.js -->
<g id="edge11" class="edge">
<title>DecodeWorker.js&#45;&gt;RgbHelpers.js</title>
<path fill="none" stroke="#757575" d="M672.92,-332.5C687.83,-332.5 703.85,-332.5 718.79,-332.5"/>
<polygon fill="#757575" stroke="#757575" points="718.94,-336 728.94,-332.5 718.94,-329 718.94,-336"/>
</g>
<!-- ImageDecoder.js&#45;&gt;RgbHelpers.js -->
<g id="edge12" class="edge">
<title>ImageDecoder.js&#45;&gt;RgbHelpers.js</title>
<path fill="none" stroke="#757575" d="M672.89,-570.45C680.24,-567.56 687.19,-563.68 693,-558.5 754.61,-503.53 772.02,-399.5 776.78,-354.34"/>
<polygon fill="#757575" stroke="#757575" points="780.28,-354.47 777.74,-344.19 773.32,-353.82 780.28,-354.47"/>
</g>
<!-- IndexPage.js -->
<g id="node13" class="node">
<title>IndexPage.js</title>
<path fill="none" stroke="#c6c5fe" d="M87.33,-123C87.33,-123 7.67,-123 7.67,-123 3.83,-123 0,-119.17 0,-115.33 0,-115.33 0,-107.67 0,-107.67 0,-103.83 3.83,-100 7.67,-100 7.67,-100 87.33,-100 87.33,-100 91.17,-100 95,-103.83 95,-107.67 95,-107.67 95,-115.33 95,-115.33 95,-119.17 91.17,-123 87.33,-123"/>
<text text-anchor="middle" x="47.5" y="-107.8" font-family="Arial" font-size="14.00" fill="#c6c5fe">IndexPage.js</text>
</g>
<!-- IndexPage.js&#45;&gt;Client.js -->
<g id="edge13" class="edge">
<title>IndexPage.js&#45;&gt;Client.js</title>
<path fill="none" stroke="#757575" d="M77.68,-123.17C83.57,-125.94 89.61,-129.09 95,-132.5 122.01,-149.56 149.53,-174.04 167.13,-190.79"/>
<polygon fill="#757575" stroke="#757575" points="164.85,-193.46 174.48,-197.89 169.72,-188.42 164.85,-193.46"/>
</g>
<!-- IndexPage.js&#45;&gt;Keycodes.js -->
<g id="edge14" class="edge">
<title>IndexPage.js&#45;&gt;Keycodes.js</title>
<path fill="none" stroke="#757575" d="M95.21,-113.98C157.53,-117.3 267.63,-123.15 333.3,-126.64"/>
<polygon fill="#757575" stroke="#757575" points="333.27,-130.15 343.45,-127.18 333.65,-123.16 333.27,-130.15"/>
</g>
<!-- IndexPage.js&#45;&gt;Utilities.js -->
<g id="edge18" class="edge">
<title>IndexPage.js&#45;&gt;Utilities.js</title>
<path fill="none" stroke="#757575" d="M65.93,-99.84C82.04,-89.82 107.02,-76.13 131,-70.5 200.93,-54.08 448.38,-66.09 497,-83.5 535.76,-97.38 572.55,-128.94 593.67,-149.45"/>
<polygon fill="#757575" stroke="#757575" points="591.41,-152.14 600.97,-156.71 596.35,-147.18 591.41,-152.14"/>
</g>
<!-- Menu.js -->
<g id="node14" class="node">
<title>Menu.js</title>
<path fill="none" stroke="#cfffac" d="M211.83,-23C211.83,-23 162.17,-23 162.17,-23 158.33,-23 154.5,-19.17 154.5,-15.33 154.5,-15.33 154.5,-7.67 154.5,-7.67 154.5,-3.83 158.33,0 162.17,0 162.17,0 211.83,0 211.83,0 215.67,0 219.5,-3.83 219.5,-7.67 219.5,-7.67 219.5,-15.33 219.5,-15.33 219.5,-19.17 215.67,-23 211.83,-23"/>
<text text-anchor="middle" x="187" y="-7.8" font-family="Arial" font-size="14.00" fill="#cfffac">Menu.js</text>
</g>
<!-- IndexPage.js&#45;&gt;Menu.js -->
<g id="edge15" class="edge">
<title>IndexPage.js&#45;&gt;Menu.js</title>
<path fill="none" stroke="#757575" d="M59.37,-99.83C74.38,-84.19 102.79,-56.24 131,-37.5 136.37,-33.93 142.3,-30.59 148.23,-27.56"/>
<polygon fill="#757575" stroke="#757575" points="149.98,-30.6 157.45,-23.09 146.93,-24.31 149.98,-30.6"/>
</g>
<!-- MenuCustom.js -->
<g id="node15" class="node">
<title>MenuCustom.js</title>
<path fill="none" stroke="#cfffac" d="M235.33,-262C235.33,-262 138.67,-262 138.67,-262 134.83,-262 131,-258.17 131,-254.33 131,-254.33 131,-246.67 131,-246.67 131,-242.83 134.83,-239 138.67,-239 138.67,-239 235.33,-239 235.33,-239 239.17,-239 243,-242.83 243,-246.67 243,-246.67 243,-254.33 243,-254.33 243,-258.17 239.17,-262 235.33,-262"/>
<text text-anchor="middle" x="187" y="-246.8" font-family="Arial" font-size="14.00" fill="#cfffac">MenuCustom.js</text>
</g>
<!-- IndexPage.js&#45;&gt;MenuCustom.js -->
<g id="edge16" class="edge">
<title>IndexPage.js&#45;&gt;MenuCustom.js</title>
<path fill="none" stroke="#757575" d="M82.64,-123C87.2,-125.6 91.5,-128.74 95,-132.5 126.61,-166.47 98.14,-197.74 131,-230.5 131.93,-231.43 132.91,-232.31 133.93,-233.16"/>
<polygon fill="#757575" stroke="#757575" points="132.13,-236.17 142.37,-238.87 136.05,-230.37 132.13,-236.17"/>
</g>
<!-- Notifications.js -->
<g id="node16" class="node">
<title>Notifications.js</title>
<path fill="none" stroke="#c6c5fe" d="M231.33,-103C231.33,-103 142.67,-103 142.67,-103 138.83,-103 135,-99.17 135,-95.33 135,-95.33 135,-87.67 135,-87.67 135,-83.83 138.83,-80 142.67,-80 142.67,-80 231.33,-80 231.33,-80 235.17,-80 239,-83.83 239,-87.67 239,-87.67 239,-95.33 239,-95.33 239,-99.17 235.17,-103 231.33,-103"/>
<text text-anchor="middle" x="187" y="-87.8" font-family="Arial" font-size="14.00" fill="#c6c5fe">Notifications.js</text>
</g>
<!-- IndexPage.js&#45;&gt;Notifications.js -->
<g id="edge17" class="edge">
<title>IndexPage.js&#45;&gt;Notifications.js</title>
<path fill="none" stroke="#757575" d="M95.05,-104.73C104.63,-103.34 114.86,-101.85 124.87,-100.39"/>
<polygon fill="#757575" stroke="#757575" points="125.38,-103.85 134.78,-98.95 124.38,-96.93 125.38,-103.85"/>
</g>
<!-- Notifications.js&#45;&gt;Utilities.js -->
<g id="edge20" class="edge">
<title>Notifications.js&#45;&gt;Utilities.js</title>
<path fill="none" stroke="#757575" d="M239.07,-88.11C301.2,-85.42 408.73,-85.44 497,-109.5 529.73,-118.42 563.9,-137.38 586.41,-151.41"/>
<polygon fill="#757575" stroke="#757575" points="584.69,-154.47 595.01,-156.89 588.45,-148.57 584.69,-154.47"/>
</g>
<!-- MitmPage.js -->
<g id="node17" class="node">
<title>MitmPage.js</title>
<path fill="none" stroke="#cfffac" d="M85.83,-164C85.83,-164 9.17,-164 9.17,-164 5.33,-164 1.5,-160.17 1.5,-156.33 1.5,-156.33 1.5,-148.67 1.5,-148.67 1.5,-144.83 5.33,-141 9.17,-141 9.17,-141 85.83,-141 85.83,-141 89.67,-141 93.5,-144.83 93.5,-148.67 93.5,-148.67 93.5,-156.33 93.5,-156.33 93.5,-160.17 89.67,-164 85.83,-164"/>
<text text-anchor="middle" x="47.5" y="-148.8" font-family="Arial" font-size="14.00" fill="#cfffac">MitmPage.js</text>
</g>
<!-- OffscreenDecodeWorker.js -->
<g id="node18" class="node">
<title>OffscreenDecodeWorker.js</title>
<path fill="none" stroke="#c6c5fe" d="M469.83,-518C469.83,-518 306.17,-518 306.17,-518 302.33,-518 298.5,-514.17 298.5,-510.33 298.5,-510.33 298.5,-502.67 298.5,-502.67 298.5,-498.83 302.33,-495 306.17,-495 306.17,-495 469.83,-495 469.83,-495 473.67,-495 477.5,-498.83 477.5,-502.67 477.5,-502.67 477.5,-510.33 477.5,-510.33 477.5,-514.17 473.67,-518 469.83,-518"/>
<text text-anchor="middle" x="388" y="-502.8" font-family="Arial" font-size="14.00" fill="#c6c5fe">OffscreenDecodeWorker.js</text>
</g>
<!-- OffscreenDecodeWorker.js&#45;&gt;Constants.js -->
<g id="edge21" class="edge">
<title>OffscreenDecodeWorker.js&#45;&gt;Constants.js</title>
<path fill="none" stroke="#757575" d="M404.63,-494.72C428.46,-475.88 473.58,-436.56 497,-392.5 531.62,-327.37 481.93,-283.72 533,-230.5 539.71,-223.51 548.46,-218.75 557.69,-215.54"/>
<polygon fill="#757575" stroke="#757575" points="558.78,-218.86 567.41,-212.71 556.83,-212.14 558.78,-218.86"/>
</g>
<!-- OffscreenDecodeWorker.js&#45;&gt;ImageDecoder.js -->
<g id="edge22" class="edge">
<title>OffscreenDecodeWorker.js&#45;&gt;ImageDecoder.js</title>
<path fill="none" stroke="#757575" d="M418.22,-518.01C447.12,-529.17 492.72,-546.16 533,-558.5 539.54,-560.5 546.44,-562.47 553.31,-564.33"/>
<polygon fill="#757575" stroke="#757575" points="552.76,-567.8 563.33,-566.98 554.56,-561.04 552.76,-567.8"/>
</g>
<!-- OffscreenDecodeWorker.js&#45;&gt;VideoDecoder.js -->
<g id="edge23" class="edge">
<title>OffscreenDecodeWorker.js&#45;&gt;VideoDecoder.js</title>
<path fill="none" stroke="#757575" d="M437.36,-518.03C457.24,-524.42 479.63,-533.9 497,-547.5 519.14,-564.82 509.91,-583.48 533,-599.5 537,-602.28 541.36,-604.67 545.9,-606.73"/>
<polygon fill="#757575" stroke="#757575" points="544.84,-610.08 555.43,-610.51 547.42,-603.57 544.84,-610.08"/>
</g>
<!-- lib/broadway/Decoder.js -->
<g id="node20" class="node">
<title>lib/broadway/Decoder.js</title>
<path fill="none" stroke="#cfffac" d="M685.33,-549C685.33,-549 540.67,-549 540.67,-549 536.83,-549 533,-545.17 533,-541.33 533,-541.33 533,-533.67 533,-533.67 533,-529.83 536.83,-526 540.67,-526 540.67,-526 685.33,-526 685.33,-526 689.17,-526 693,-529.83 693,-533.67 693,-533.67 693,-541.33 693,-541.33 693,-545.17 689.17,-549 685.33,-549"/>
<text text-anchor="middle" x="613" y="-533.8" font-family="Arial" font-size="14.00" fill="#cfffac">lib/broadway/Decoder.js</text>
</g>
<!-- OffscreenDecodeWorker.js&#45;&gt;lib/broadway/Decoder.js -->
<g id="edge24" class="edge">
<title>OffscreenDecodeWorker.js&#45;&gt;lib/broadway/Decoder.js</title>
<path fill="none" stroke="#757575" d="M472.04,-518.04C488.55,-520.34 505.95,-522.76 522.66,-525.08"/>
<polygon fill="#757575" stroke="#757575" points="522.57,-528.6 532.96,-526.51 523.54,-521.67 522.57,-528.6"/>
</g>
<!-- OffscreenDecodeWorker.js&#45;&gt;lib/lz4.js -->
<g id="edge25" class="edge">
<title>OffscreenDecodeWorker.js&#45;&gt;lib/lz4.js</title>
<path fill="none" stroke="#757575" d="M439.32,-494.99C478.89,-485.94 533.35,-473.49 570.46,-465"/>
<polygon fill="#757575" stroke="#757575" points="571.48,-468.36 580.44,-462.72 569.92,-461.53 571.48,-468.36"/>
</g>
<!-- OffscreenDecodeWorker.js&#45;&gt;lib/zlib.js -->
<g id="edge26" class="edge">
<title>OffscreenDecodeWorker.js&#45;&gt;lib/zlib.js</title>
<path fill="none" stroke="#757575" d="M477.78,-502.52C509.05,-501.12 542.82,-499.6 568.67,-498.44"/>
<polygon fill="#757575" stroke="#757575" points="569.04,-501.93 578.87,-497.99 568.72,-494.94 569.04,-501.93"/>
</g>
</g>
</svg>
